<svg width="30" height="30" viewBox="0 0 30 30" fill="none" xmlns="http://www.w3.org/2000/svg">
<path d="M15 2.5H4.99996C4.33717 2.50078 3.70174 2.76441 3.23308 3.23308C2.76441 3.70174 2.50078 4.33717 2.5 4.99996V25C2.50076 25.6628 2.7644 26.2983 3.23308 26.7669C3.70176 27.2356 4.33721 27.4993 5.00002 27.5H15C15.6628 27.4993 16.2982 27.2356 16.7669 26.7669C17.2356 26.2983 17.4992 25.6628 17.5 25V4.99996C17.4992 4.33716 17.2356 3.70172 16.7669 3.23306C16.2982 2.76439 15.6628 2.50076 15 2.5ZM15 25H4.99996V4.99996H15L15.0016 24.9999L15 25Z" fill="#9F64CE"/>
<path d="M25 12.5H20C19.6685 12.5 19.3505 12.6317 19.1161 12.8661C18.8817 13.1005 18.75 13.4185 18.75 13.75C18.75 14.0815 18.8817 14.3995 19.1161 14.6339C19.3505 14.8683 19.6685 15 20 15H25V25H20C19.6685 25 19.3505 25.1317 19.1161 25.3662C18.8817 25.6006 18.75 25.9185 18.75 26.25C18.75 26.5816 18.8817 26.8995 19.1161 27.1339C19.3505 27.3684 19.6685 27.5001 20 27.5001H25C25.6628 27.4993 26.2983 27.2357 26.7669 26.767C27.2356 26.2983 27.4992 25.6629 27.5 25V15C27.4992 14.3372 27.2356 13.7018 26.767 13.2331C26.2983 12.7644 25.6629 12.5008 25 12.5Z" fill="#9F64CE"/>
<path d="M20.21 7.56846C20.3471 7.77419 20.5421 7.93464 20.7704 8.0295C20.9988 8.12437 21.2501 8.14939 21.4926 8.10141C21.7351 8.05343 21.958 7.93459 22.133 7.75994C22.308 7.58529 22.4273 7.36266 22.4757 7.12022L22.565 6.67362C23.9133 7.09455 25 8.04125 25 10.0001C25 10.3316 25.1317 10.6496 25.3661 10.884C25.6005 11.1184 25.9185 11.2501 26.25 11.2501C26.5815 11.2501 26.8995 11.1184 27.1339 10.884C27.3683 10.6496 27.5 10.3316 27.5 10.0001C27.5 7.07557 25.8517 5.00967 23.0548 4.22498L23.1007 3.99524C23.1493 3.7528 23.1248 3.50142 23.0304 3.27289C22.9361 3.04436 22.7761 2.84895 22.5706 2.71137C22.3652 2.5738 22.1236 2.50024 21.8763 2.5C21.6291 2.49976 21.3873 2.57286 21.1816 2.71004L19.3066 3.96002C19.0308 4.14391 18.8393 4.42984 18.7743 4.75491C18.7093 5.07998 18.776 5.41756 18.9599 5.6934L20.21 7.56846Z" fill="#9F64CE"/>
</svg>
