<svg width="30" height="20" viewBox="0 0 30 20" fill="none" xmlns="http://www.w3.org/2000/svg">
<path d="M27.7594 1.15176C27.356 0.866428 26.8897 0.682522 26.4002 0.615613C25.9106 0.548704 25.4121 0.600764 24.9469 0.767381C18.513 3.05507 11.4871 3.05507 5.05315 0.767381C4.58791 0.600059 4.08917 0.547388 3.59924 0.613834C3.10931 0.68028 2.64262 0.863884 2.23875 1.14908C1.83488 1.43427 1.50573 1.81265 1.27921 2.25213C1.05269 2.6916 0.935485 3.17922 0.937526 3.67363V16.3299C0.935485 16.8243 1.05269 17.3119 1.27921 17.7514C1.50573 18.1909 1.83488 18.5692 2.23875 18.8544C2.64262 19.1396 3.10931 19.3232 3.59924 19.3897C4.08917 19.4561 4.58791 19.4035 5.05315 19.2361C11.4871 16.9484 18.513 16.9484 24.9469 19.2361C25.2777 19.3551 25.6266 19.4154 25.9781 19.4143C26.3835 19.4155 26.7852 19.3366 27.16 19.182C27.5347 19.0274 27.8752 18.8003 28.1619 18.5136C28.4486 18.227 28.6757 17.8865 28.8303 17.5117C28.9848 17.1369 29.0638 16.7353 29.0625 16.3299V3.67363C29.0631 3.17964 28.9451 2.69273 28.7183 2.25387C28.4916 1.81501 28.1627 1.43704 27.7594 1.15176ZM27.1875 16.3299C27.1927 16.526 27.15 16.7205 27.0633 16.8964C26.9765 17.0724 26.8483 17.2247 26.6896 17.34C26.5308 17.4554 26.3464 17.5304 26.1523 17.5585C25.9581 17.5867 25.76 17.5672 25.575 17.5018C18.7357 15.0642 11.2643 15.0642 4.42503 17.5018C4.24007 17.5672 4.04196 17.5867 3.84779 17.5585C3.65362 17.5304 3.46922 17.4554 3.3105 17.34C3.15178 17.2247 3.02351 17.0724 2.93676 16.8964C2.85 16.7205 2.80736 16.526 2.81253 16.3299V3.67363C2.80736 3.47749 2.85 3.28305 2.93676 3.10707C3.02351 2.93109 3.15178 2.77885 3.3105 2.66351C3.46922 2.54816 3.65362 2.47316 3.84779 2.44498C4.04196 2.4168 4.24007 2.43629 4.42503 2.50176C11.2643 4.93927 18.7357 4.93927 25.575 2.50176C25.76 2.43629 25.9581 2.4168 26.1523 2.44498C26.3464 2.47316 26.5308 2.54816 26.6896 2.66351C26.8483 2.77885 26.9765 2.93109 27.0633 3.10707C27.15 3.28305 27.1927 3.47749 27.1875 3.67363V16.3299Z" fill="#9F64CE"/>
</svg>
