<svg width="24" height="24" viewBox="0 0 24 24" fill="none" xmlns="http://www.w3.org/2000/svg">
<path fill-rule="evenodd" clip-rule="evenodd" d="M0.705882 0C0.316039 0 0 0.316039 0 0.705882V11.2941C0 11.684 0.316039 12 0.705882 12H23.2941C23.684 12 24 11.684 24 11.2941V0.705882C24 0.316039 23.684 0 23.2941 0H0.705882ZM22.5882 1.41176V10.5882H1.41176V1.41176H22.5882ZM0.705882 14.4706C0.316039 14.4706 0 14.7866 0 15.1765V18C0 18.3898 0.316039 18.7059 0.705882 18.7059H18.3529C18.7428 18.7059 19.0588 18.3898 19.0588 18V15.1765C19.0588 14.7866 18.7428 14.4706 18.3529 14.4706H0.705882ZM17.6471 15.8824V17.2941H1.41176V15.8824H17.6471ZM0.705882 21.5294H23.2941C23.684 21.5294 24 21.2134 24 20.8235C24 20.4337 23.684 20.1176 23.2941 20.1176H0.705882C0.316039 20.1176 0 20.4337 0 20.8235C0 21.2134 0.316039 21.5294 0.705882 21.5294ZM0.705882 24H9.17647C9.56631 24 9.88235 23.684 9.88235 23.2941C9.88235 22.9043 9.56631 22.5882 9.17647 22.5882H0.705882C0.316039 22.5882 0 22.9043 0 23.2941C0 23.684 0.316039 24 0.705882 24Z" fill="#8F8F8F"/>
</svg>
