<svg width="24" height="22" viewBox="0 0 24 22" fill="none" xmlns="http://www.w3.org/2000/svg">
<path d="M20.25 21.8281H3.75C1.68225 21.8281 0 20.1459 0 18.0781V7.29688C0 5.22913 1.68225 3.54688 3.75 3.54688H5.15236C5.54606 3.54688 5.90039 3.29806 6.03412 2.9278L6.35864 2.02911C6.75975 0.918266 7.82283 0.171875 9.00389 0.171875H14.9932C16.1976 0.171875 17.2675 0.937953 17.6557 2.07814L17.9393 2.91144C18.0687 3.29155 18.4253 3.54688 18.8268 3.54688H20.25C22.3177 3.54688 24 5.22913 24 7.29688V13.3906C24 13.9084 23.5803 14.3281 23.0625 14.3281C22.5447 14.3281 22.125 13.9084 22.125 13.3906V7.29688C22.125 6.263 21.2839 5.42188 20.25 5.42188H18.8268C17.6224 5.42188 16.5524 4.6558 16.1643 3.51561L15.8807 2.68231C15.7513 2.30225 15.3946 2.04688 14.9932 2.04688H9.00389C8.61019 2.04688 8.25586 2.29569 8.12213 2.66595L7.79761 3.56464C7.3965 4.67548 6.33342 5.42188 5.15236 5.42188H3.75C2.71613 5.42188 1.875 6.263 1.875 7.29688V18.0781C1.875 19.112 2.71613 19.9531 3.75 19.9531H20.25C21.2839 19.9531 22.125 19.112 22.125 18.0781C22.125 17.5603 22.5447 17.1406 23.0625 17.1406C23.5803 17.1406 24 17.5603 24 18.0781C24 20.1459 22.3177 21.8281 20.25 21.8281ZM17.9062 12.2188C17.9062 8.98789 15.2777 6.35938 12.0469 6.35938C8.81602 6.35938 6.1875 8.98789 6.1875 12.2188C6.1875 15.4496 8.81602 18.0781 12.0469 18.0781C15.2777 18.0781 17.9062 15.4496 17.9062 12.2188ZM16.0312 12.2188C16.0312 14.4157 14.2439 16.2031 12.0469 16.2031C9.84989 16.2031 8.0625 14.4157 8.0625 12.2188C8.0625 10.0218 9.84989 8.23438 12.0469 8.23438C14.2439 8.23438 16.0312 10.0218 16.0312 12.2188Z" fill="url(#paint0_linear_1092_11671)"/>
<defs>
<linearGradient id="paint0_linear_1092_11671" x1="0" y1="11" x2="24" y2="11" gradientUnits="userSpaceOnUse">
<stop stop-color="#00F2FE"/>
<stop offset="0.021" stop-color="#03EFFE"/>
<stop offset="0.293" stop-color="#24D2FE"/>
<stop offset="0.554" stop-color="#3CBDFE"/>
<stop offset="0.796" stop-color="#4AB0FE"/>
<stop offset="1" stop-color="#4FACFE"/>
</linearGradient>
</defs>
</svg>
