<svg width="27" height="27" viewBox="0 0 27 27" fill="none" xmlns="http://www.w3.org/2000/svg">
<g clip-path="url(#clip0_449_7256)">
<path d="M20.25 2.25C22.7318 2.25 24.75 4.26825 24.75 6.75V20.25C24.75 22.7318 22.7318 24.75 20.25 24.75H6.75C4.26825 24.75 2.25 22.7318 2.25 20.25V6.75C2.25 4.26825 4.26825 2.25 6.75 2.25H20.25ZM20.25 0H6.75C3.02175 0 0 3.02175 0 6.75V20.25C0 23.9783 3.02175 27 6.75 27H20.25C23.9783 27 27 23.9783 27 20.25V6.75C27 3.02175 23.9783 0 20.25 0Z" fill="black"/>
<path d="M13.5 20.25C12.879 20.25 12.375 19.7471 12.375 19.125V7.875C12.375 7.254 12.879 6.75 13.5 6.75C14.121 6.75 14.625 7.254 14.625 7.875V19.125C14.625 19.7471 14.121 20.25 13.5 20.25Z" fill="black"/>
<path d="M6.75 13.5C6.75 12.879 7.25288 12.375 7.875 12.375H19.125C19.746 12.375 20.25 12.879 20.25 13.5C20.25 14.121 19.746 14.625 19.125 14.625H7.875C7.25288 14.625 6.75 14.121 6.75 13.5Z" fill="black"/>
</g>
<defs>
<clipPath id="clip0_449_7256">
<rect width="27" height="27" fill="white"/>
</clipPath>
</defs>
</svg>
