<svg width="24" height="24" viewBox="0 0 24 24" fill="none" xmlns="http://www.w3.org/2000/svg">
<path d="M1.54151 0.657258C1.4367 0.192478 1.01194 -0.0900959 0.592765 0.0261103C0.173592 0.142317 -0.0812553 0.613298 0.0235483 1.07808L1.12075 5.94393L2.14177 10.6675C2.57591 12.6761 2.91764 14.2571 3.32315 15.4853C3.73911 16.7451 4.2492 17.7232 5.06761 18.4732C5.13824 18.5379 5.2102 18.6009 5.28342 18.6619C6.13196 19.3696 7.10865 19.6916 8.31053 19.8465C9.48219 19.9975 10.9484 19.9975 12.8111 19.9975H13.4302C15.0419 19.9975 16.3106 19.9975 17.3326 19.8829C18.3795 19.7655 19.2409 19.5219 20.0161 18.9838C20.3837 18.7285 20.7254 18.4298 21.0349 18.0928C21.6461 17.4276 22.0489 16.6197 22.3825 15.6145H17.4726C17.0405 15.6145 16.6903 15.2262 16.6903 14.7471C16.6903 14.268 17.0405 13.8796 17.4726 13.8796H22.8654C22.9929 13.3539 23.122 12.7771 23.2601 12.1447L14.3432 12.1447C13.9112 12.1447 13.5609 11.7563 13.5609 11.2772C13.5609 10.7981 13.9112 10.4098 14.3432 10.4098L23.6347 10.4098C23.7897 9.67727 23.9111 9.04896 23.9661 8.51584C24.041 7.78972 24.0104 7.09834 23.6835 6.46708C23.5437 6.19708 23.3689 5.95131 23.1647 5.73762C22.6872 5.23801 22.088 5.04394 21.4337 4.95542C20.8033 4.87012 20.0024 4.87014 19.0306 4.87017L2.49148 4.87017L1.54151 0.657258Z" fill="#9F64CE"/>
<path d="M9.56684 24C10.1733 24 10.6649 23.4549 10.6649 22.7825C10.6649 22.1101 10.1733 21.565 9.56684 21.565C8.96041 21.565 8.46881 22.1101 8.46881 22.7825C8.46881 23.4549 8.96041 24 9.56684 24Z" fill="#9F64CE"/>
<path d="M16.155 24C16.7614 24 17.253 23.4549 17.253 22.7825C17.253 22.1101 16.7614 21.565 16.155 21.565C15.5486 21.565 15.057 22.1101 15.057 22.7825C15.057 23.4549 15.5486 24 16.155 24Z" fill="#9F64CE"/>
</svg>
