<svg width="27" height="27" viewBox="0 0 27 27" fill="none" xmlns="http://www.w3.org/2000/svg">
<path d="M2.62488 7.21066C2.25 8.60564 2.25 10.5301 2.25 13.5C2.25 17.7184 2.25 19.8277 3.32428 21.3063C3.67123 21.7838 4.09118 22.2038 4.56871 22.5507C6.04733 23.625 8.15655 23.625 12.375 23.625H14.625C18.8434 23.625 20.9527 23.625 22.4313 22.5507C22.9088 22.2038 23.3288 21.7838 23.6757 21.3063C24.75 19.8277 24.75 17.7184 24.75 13.5C24.75 10.5202 24.75 8.59282 24.3714 7.19673L22.0058 9.56234C20.1695 11.3987 18.7304 12.8377 17.4566 13.8096C16.1528 14.8044 14.9235 15.3888 13.4998 15.3888C12.0762 15.3888 10.8469 14.8044 9.54309 13.8096C8.2693 12.8377 6.83022 11.3986 4.99392 9.56232L2.79434 7.36274L2.62488 7.21066Z" fill="black"/>
<path d="M3.375 5.625L3.49745 5.72633L3.95536 6.13727L6.14152 8.32343C8.03338 10.2153 9.39353 11.5729 10.5667 12.468C11.7204 13.3482 12.5935 13.7013 13.4998 13.7013C14.4062 13.7013 15.2793 13.3482 16.433 12.468C17.6062 11.5729 18.9663 10.2153 20.8582 8.32344L23.4546 5.72704L23.5959 5.58651C23.2489 5.10898 22.9088 4.79623 22.4313 4.44928C20.9527 3.375 18.8434 3.375 14.625 3.375H12.375C8.15655 3.375 6.04733 3.375 4.56871 4.44928C4.09118 4.79623 3.72195 5.14747 3.375 5.625Z" fill="black"/>
</svg>
