<svg width="27" height="27" viewBox="0 0 27 27" fill="none" xmlns="http://www.w3.org/2000/svg">
<path fill-rule="evenodd" clip-rule="evenodd" d="M19.6465 2.67044C18.3616 2.53123 16.742 2.53124 14.6759 2.53125H12.3241C10.258 2.53124 8.63844 2.53123 7.35354 2.67044C6.04231 2.81251 4.97988 3.10761 4.07276 3.76667C3.5236 4.16566 3.04066 4.6486 2.64167 5.19776C2.45978 5.44812 2.30401 5.71254 2.1711 5.99396C1.76409 6.8558 1.58255 7.85516 1.49407 9.04689C1.40624 10.2299 1.40625 11.68 1.40625 13.468V13.5509C1.40624 15.617 1.40623 17.2366 1.54544 18.5215C1.68751 19.8327 1.98261 20.8951 2.64167 21.8022C3.04066 22.3514 3.5236 22.8343 4.07276 23.2333C4.97988 23.8924 6.04231 24.1875 7.35354 24.3296C8.63842 24.4688 10.2579 24.4688 12.324 24.4688H14.6759C16.742 24.4688 18.3616 24.4688 19.6465 24.3296C20.9577 24.1875 22.0201 23.8924 22.9272 23.2333C23.4764 22.8343 23.9593 22.3514 24.3583 21.8022C25.0174 20.8951 25.3125 19.8327 25.4546 18.5215C25.5938 17.2366 25.5938 15.6171 25.5938 13.551V13.4673C25.5938 11.6671 25.5938 10.2092 25.504 9.02142C25.4136 7.82444 25.228 6.82176 24.8115 5.95739C24.6824 5.68951 24.5323 5.43717 24.3583 5.19776C23.9593 4.6486 23.4764 4.16566 22.9272 3.76667C22.0201 3.10761 20.9577 2.81251 19.6465 2.67044ZM5.06465 5.13189C5.63616 4.71667 6.36765 4.47463 7.5353 4.34813C8.71874 4.21991 10.247 4.21875 12.375 4.21875H14.625C16.753 4.21875 18.2813 4.21991 19.4647 4.34813C20.6324 4.47463 21.3638 4.71667 21.9353 5.13189C22.3411 5.42665 22.6979 5.78341 22.9927 6.18907L20.8583 8.32343C18.9665 10.2153 17.6063 11.5729 16.4332 12.468C15.2795 13.3482 14.4063 13.7013 13.5 13.7013C12.5937 13.7013 11.7205 13.3482 10.5668 12.468C9.39368 11.5729 8.03354 10.2153 6.14167 8.32343L4.00731 6.18907C4.30214 5.78341 4.65894 5.42665 5.06465 5.13189ZM23.6669 7.9013C23.7349 8.26156 23.7854 8.67252 23.8213 9.14855C23.9057 10.2655 23.9062 11.6604 23.9062 13.5C23.9062 15.628 23.9051 17.1563 23.7769 18.3397C23.6504 19.5073 23.4083 20.2388 22.9931 20.8103C22.6982 21.2163 22.3413 21.5732 21.9353 21.8681C21.3638 22.2833 20.6324 22.5254 19.4647 22.6519C18.2813 22.7801 16.753 22.7812 14.625 22.7812H12.375C10.247 22.7812 8.71874 22.7801 7.5353 22.6519C6.36765 22.5254 5.63616 22.2833 5.06465 21.8681C4.65875 21.5732 4.30179 21.2163 4.00689 20.8103C3.59167 20.2388 3.34963 19.5073 3.22313 18.3397C3.09491 17.1563 3.09375 15.628 3.09375 13.5C3.09375 11.6735 3.09428 10.2852 3.17694 9.17183C3.21301 8.68595 3.26398 8.26746 3.33305 7.90129L4.99407 9.56231C6.83037 11.3986 8.26945 12.8377 9.54324 13.8096C10.847 14.8044 12.0764 15.3888 13.5 15.3888C14.9236 15.3888 16.153 14.8044 17.4568 13.8096C18.7305 12.8377 20.1696 11.3987 22.0059 9.56234L23.6669 7.9013Z" fill="black"/>
</svg>
