<svg width="26" height="24" viewBox="0 0 26 24" fill="none" xmlns="http://www.w3.org/2000/svg">
<path d="M23.4 0H2.6C1.16653 0 0 1.15371 0 2.57143V16.2857C0 17.7034 1.16653 18.8571 2.6 18.8571H5.2V23.1429C5.2 23.472 5.39153 23.7729 5.69053 23.9151C5.811 23.9717 5.93927 24 6.06667 24C6.25993 24 6.45147 23.9357 6.60833 23.8123L12.8709 18.8571H23.4C24.8335 18.8571 26 17.7034 26 16.2857V2.57143C26 1.15371 24.8335 0 23.4 0ZM24.2667 16.2857C24.2667 16.758 23.8784 17.1429 23.4 17.1429H12.5667C12.3691 17.1429 12.1793 17.2089 12.025 17.3306L6.93333 21.3591V18C6.93333 17.5269 6.54593 17.1429 6.06667 17.1429H2.6C2.1216 17.1429 1.73333 16.758 1.73333 16.2857V2.57143C1.73333 2.09914 2.1216 1.71429 2.6 1.71429H23.4C23.8784 1.71429 24.2667 2.09914 24.2667 2.57143V16.2857Z" fill="#263238"/>
<path d="M19.9333 8.56975H6.06662C5.58735 8.56975 5.19995 8.18575 5.19995 7.71261C5.19995 7.23947 5.58735 6.85547 6.06662 6.85547H19.9333C20.4126 6.85547 20.8 7.23947 20.8 7.71261C20.8 8.18575 20.4126 8.56975 19.9333 8.56975Z" fill="#3498DB"/>
<path d="M13 11.9994H6.06662C5.58735 11.9994 5.19995 11.6154 5.19995 11.1423C5.19995 10.6692 5.58735 10.2852 6.06662 10.2852H13C13.4792 10.2852 13.8666 10.6692 13.8666 11.1423C13.8666 11.6154 13.4792 11.9994 13 11.9994Z" fill="#3498DB"/>
</svg>
