<svg width="20" height="20" viewBox="0 0 20 20" fill="none" xmlns="http://www.w3.org/2000/svg">
<path d="M16.5273 3.4375H13.9375V2.22625C13.9372 1.96742 13.8343 1.71927 13.6513 1.53625C13.4683 1.35323 13.2201 1.25029 12.9613 1.25H7.03873C6.7799 1.25029 6.53175 1.35323 6.34873 1.53625C6.16571 1.71927 6.06277 1.96742 6.06248 2.22625V3.4375H3.47275C3.21394 3.43782 2.96583 3.54078 2.78284 3.7238C2.59985 3.90682 2.49692 4.15494 2.49664 4.41375V5.93765C2.49665 6.02053 2.52957 6.10001 2.58818 6.15861C2.64678 6.21722 2.72626 6.25014 2.80914 6.25015H3.7319L4.16933 16.5445C4.09504 17.7117 4.89976 18.7506 6.11133 18.75H13.8887C14.3863 18.751 14.865 18.5593 15.2242 18.215C15.5835 17.8707 15.7954 17.4006 15.8154 16.9034L16.2681 6.25013H17.1909C17.2737 6.25012 17.3532 6.2172 17.4118 6.15859C17.4704 6.09999 17.5034 6.02051 17.5034 5.93763V4.41375C17.5031 4.15494 17.4002 3.90681 17.2172 3.7238C17.0342 3.54078 16.7861 3.43782 16.5273 3.4375ZM6.68747 2.22625C6.68759 2.13313 6.72464 2.04386 6.79049 1.97801C6.85633 1.91217 6.94561 1.87512 7.03873 1.875H12.9613C13.0544 1.87512 13.1437 1.91217 13.2095 1.97802C13.2754 2.04386 13.3124 2.13313 13.3125 2.22625V3.4375H6.68747V2.22625ZM15.191 16.8768C15.1775 17.2129 15.0342 17.5307 14.7914 17.7634C14.5486 17.9961 14.225 18.1257 13.8887 18.125H6.1113C5.77495 18.1257 5.45141 17.9961 5.20858 17.7634C4.96575 17.5307 4.82252 17.2129 4.80896 16.8768L4.35745 6.25015H15.6425L15.191 16.8768ZM16.8784 5.62515C15.8442 5.62515 4.15652 5.62515 3.12164 5.62515V4.41375C3.12173 4.32065 3.15875 4.23138 3.22457 4.16553C3.29039 4.09968 3.37964 4.06263 3.47275 4.0625C3.47275 4.0625 14.5944 4.06246 16.5272 4.0625C16.6204 4.06263 16.7096 4.09968 16.7754 4.16553C16.8412 4.23138 16.8783 4.32064 16.8784 4.41375V5.62515Z" fill="#EE1C24"/>
<path d="M7.21634 16.6102C7.25863 16.6102 7.30049 16.6016 7.33937 16.585C7.37826 16.5684 7.41337 16.544 7.44258 16.5135C7.47179 16.4829 7.4945 16.4467 7.50932 16.4071C7.52415 16.3675 7.53079 16.3253 7.52884 16.283L7.14386 8.06205C7.1386 7.98026 7.10142 7.9038 7.04034 7.84915C6.97925 7.7945 6.89914 7.76603 6.81727 7.76988C6.73539 7.77372 6.6583 7.80957 6.6026 7.8697C6.54691 7.92984 6.51706 8.00944 6.51949 8.09137L6.90446 16.3123C6.90824 16.3925 6.94274 16.4682 7.0008 16.5237C7.05887 16.5791 7.13605 16.6101 7.21634 16.6102Z" fill="#EE1C24"/>
<path d="M12.7687 16.6111C12.8515 16.6149 12.9324 16.5857 12.9937 16.53C13.0549 16.4742 13.0916 16.3964 13.0956 16.3136L13.4805 8.09262C13.4844 8.00982 13.4552 7.92887 13.3994 7.86757C13.3436 7.80628 13.2658 7.76966 13.183 7.76578C13.1005 7.76323 13.0203 7.79286 12.9593 7.84839C12.8983 7.90392 12.8613 7.981 12.8561 8.06332L12.4712 16.2843C12.4692 16.3253 12.4754 16.3663 12.4893 16.4049C12.5032 16.4435 12.5246 16.479 12.5522 16.5093C12.5799 16.5397 12.6132 16.5643 12.6503 16.5818C12.6875 16.5992 12.7277 16.6092 12.7687 16.6111Z" fill="#EE1C24"/>
<path d="M10 16.6096C10.0829 16.6096 10.1624 16.5767 10.221 16.5181C10.2796 16.4595 10.3125 16.38 10.3125 16.2971V8.07617C10.3125 7.99329 10.2796 7.91381 10.221 7.8552C10.1624 7.7966 10.0829 7.76367 10 7.76367C9.91712 7.76367 9.83763 7.7966 9.77903 7.8552C9.72042 7.91381 9.6875 7.99329 9.6875 8.07617V16.2971C9.6875 16.38 9.72043 16.4595 9.77903 16.5181C9.83764 16.5767 9.91712 16.6096 10 16.6096Z" fill="#EE1C24"/>
</svg>
