<svg width="24" height="24" viewBox="0 0 24 24" fill="none" xmlns="http://www.w3.org/2000/svg">
<path d="M18.8507 12.0644V2.57055C18.8507 1.8888 18.5799 1.23497 18.0978 0.752896C17.6157 0.270825 16.9619 0 16.2801 0H2.57055C1.8888 0 1.23497 0.270825 0.752896 0.752896C0.270825 1.23497 0 1.8888 0 2.57055V16.2801C0 16.9619 0.270825 17.6157 0.752896 18.0978C1.23497 18.5799 1.8888 18.8507 2.57055 18.8507H12.0644C12.222 19.9533 12.6836 20.9903 13.3973 21.8455C14.1111 22.7006 15.0488 23.3401 16.1055 23.6923C17.1622 24.0445 18.2961 24.0955 19.3802 23.8395C20.4643 23.5836 21.4556 23.0309 22.2432 22.2432C23.0309 21.4556 23.5836 20.4643 23.8395 19.3802C24.0955 18.2961 24.0445 17.1622 23.6923 16.1055C23.3401 15.0488 22.7006 14.1111 21.8455 13.3973C20.9903 12.6836 19.9533 12.222 18.8507 12.0644ZM1.7137 16.2801V2.57055C1.7137 2.3433 1.80397 2.12536 1.96467 1.96467C2.12536 1.80397 2.3433 1.7137 2.57055 1.7137H16.2801C16.5074 1.7137 16.7253 1.80397 16.886 1.96467C17.0467 2.12536 17.137 2.3433 17.137 2.57055V12.0644C15.8578 12.2504 14.6729 12.8447 13.7588 13.7588C12.8447 14.6729 12.2504 15.8578 12.0644 17.137H2.57055C2.3433 17.137 2.12536 17.0467 1.96467 16.886C1.80397 16.7253 1.7137 16.5074 1.7137 16.2801ZM17.9938 22.2781C17.1465 22.2781 16.3182 22.0268 15.6136 21.5561C14.9091 21.0853 14.36 20.4162 14.0357 19.6334C13.7114 18.8505 13.6266 17.9891 13.7919 17.158C13.9572 16.327 14.3653 15.5636 14.9644 14.9644C15.5636 14.3653 16.327 13.9572 17.158 13.7919C17.9891 13.6266 18.8505 13.7114 19.6334 14.0357C20.4162 14.36 21.0853 14.9091 21.5561 15.6136C22.0268 16.3182 22.2781 17.1465 22.2781 17.9938C22.2781 19.1301 21.8267 20.2198 21.0233 21.0233C20.2198 21.8267 19.1301 22.2781 17.9938 22.2781ZM13.2383 10.1879C13.3787 10.116 13.4965 10.0068 13.5787 9.87224C13.661 9.73769 13.7045 9.58305 13.7045 9.42535C13.7045 9.26765 13.661 9.11301 13.5787 8.97845C13.4965 8.8439 13.3787 8.73466 13.2383 8.66275L6.38353 5.23535C6.25309 5.16962 6.10802 5.13833 5.96208 5.14444C5.81615 5.15056 5.6742 5.19387 5.54972 5.27028C5.42523 5.34669 5.32235 5.45365 5.25083 5.58101C5.17931 5.70836 5.14154 5.85189 5.1411 5.99795V12.8527C5.14081 12.9984 5.17763 13.1417 5.24809 13.2691C5.31856 13.3965 5.42034 13.5039 5.54382 13.5811C5.68018 13.6656 5.83752 13.7101 5.99795 13.7096C6.13208 13.7088 6.26415 13.6765 6.38353 13.6153L13.2383 10.1879ZM6.8548 7.38604L10.9334 9.42535L6.8548 11.4646V7.38604ZM20.3159 17.8139C20.3962 17.8936 20.46 17.9883 20.5035 18.0927C20.547 18.1972 20.5694 18.3092 20.5694 18.4223C20.5694 18.5354 20.547 18.6474 20.5035 18.7518C20.46 18.8562 20.3962 18.951 20.3159 19.0306L18.6022 20.7443C18.5226 20.8246 18.4278 20.8884 18.3234 20.9319C18.219 20.9754 18.107 20.9978 17.9938 20.9978C17.8807 20.9978 17.7687 20.9754 17.6643 20.9319C17.5599 20.8884 17.4651 20.8246 17.3855 20.7443L15.6718 19.0306C15.5104 18.8693 15.4198 18.6504 15.4198 18.4223C15.4198 18.1941 15.5104 17.9753 15.6718 17.8139C15.8331 17.6526 16.052 17.5619 16.2801 17.5619C16.5083 17.5619 16.7272 17.6526 16.8885 17.8139L17.137 18.071V15.8517C17.137 15.6245 17.2273 15.4065 17.388 15.2458C17.5487 15.0851 17.7666 14.9949 17.9938 14.9949C18.2211 14.9949 18.439 15.0851 18.5997 15.2458C18.7604 15.4065 18.8507 15.6245 18.8507 15.8517V18.071L19.0992 17.8139C19.1788 17.7336 19.2736 17.6698 19.378 17.6263C19.4824 17.5828 19.5944 17.5605 19.7075 17.5605C19.8207 17.5605 19.9327 17.5828 20.0371 17.6263C20.1415 17.6698 20.2363 17.7336 20.3159 17.8139Z" fill="#8F8F8F"/>
</svg>
