<svg width="24" height="24" viewBox="0 0 24 24" fill="none" xmlns="http://www.w3.org/2000/svg">
<path d="M12.9231 0.923077C12.9231 0.413275 12.5098 0 12 0C11.4902 0 11.0769 0.413275 11.0769 0.923077V16.6898C10.6798 16.2868 10.2077 15.6936 9.52065 14.8271L7.80023 12.6573C7.48349 12.2578 6.90289 12.1907 6.50343 12.5075C6.10396 12.8242 6.03689 13.4048 6.35363 13.8043L8.109 16.0182C8.76523 16.8458 9.30673 17.5288 9.7914 18.0154C10.2888 18.5146 10.8408 18.9285 11.5463 19.0409C11.6965 19.0649 11.8481 19.0769 12 19.0769C12.1519 19.0769 12.3035 19.0649 12.4538 19.0409C13.1592 18.9285 13.7112 18.5146 14.2086 18.0154C14.6933 17.5288 15.2348 16.8458 15.891 16.0182L17.6464 13.8043C17.9631 13.4048 17.896 12.8242 17.4966 12.5075C17.0971 12.1907 16.5165 12.2578 16.1998 12.6573L14.4793 14.8271C13.7923 15.6936 13.3202 16.2868 12.9231 16.6898V0.923077Z" fill="#8F8F8F"/>
<path d="M22.5847 10.2148C22.2785 9.80723 21.6998 9.72499 21.2922 10.0312C20.8846 10.3373 20.8024 10.916 21.1085 11.3236C21.7651 12.1977 22.1538 13.2829 22.1538 14.4615V15.6923C22.1538 16.871 22.151 17.3528 22.0894 17.7413C21.7349 19.9795 19.9795 21.7349 17.7413 22.0894C17.3528 22.151 16.871 22.1538 15.6923 22.1538H8.3077C7.12903 22.1538 6.64717 22.151 6.25866 22.0894C4.02045 21.7349 2.26506 19.9795 1.91056 17.7413C1.84903 17.3528 1.84616 16.871 1.84616 15.6923V14.4615C1.84616 13.2829 2.23487 12.1977 2.89146 11.3236C3.19764 10.916 3.1154 10.3373 2.70778 10.0312C2.30016 9.72499 1.72152 9.80723 1.41534 10.2148C0.526858 11.3977 1.0253e-05 12.8694 1.0253e-05 14.4615L5.04443e-06 15.7918C-7.81453e-05 16.8404 -0.000128764 17.4792 0.0871389 18.0301C0.566752 21.0583 2.94169 23.4333 5.96985 23.9129C6.52084 24.0001 7.1596 24.0001 8.20825 24H15.7918C16.8404 24.0001 17.4792 24.0001 18.0301 23.9129C21.0583 23.4333 23.4333 21.0583 23.9129 18.0301C24.0001 17.4792 24.0001 16.8404 24 15.7917L24 14.4615C24 12.8694 23.4731 11.3977 22.5847 10.2148Z" fill="#8F8F8F"/>
</svg>
