<svg width="30" height="26" viewBox="0 0 30 26" fill="none" xmlns="http://www.w3.org/2000/svg">
<path d="M27.4038 0.0195312H2.59617C1.16461 0.0195312 0 1.18414 0 2.61564V18.7695C0 20.201 1.16461 21.3656 2.59617 21.3656H11.1058L14.3077 25.6349C14.4711 25.8528 14.7276 25.9811 15 25.9811C15.2724 25.9811 15.5289 25.8528 15.6923 25.6349L18.8942 21.3656H27.4038C28.8353 21.3656 30 20.201 30 18.7695V2.61564C30 1.18414 28.8354 0.0195312 27.4038 0.0195312ZM28.2693 18.7695C28.2693 19.2467 27.8811 19.6349 27.4039 19.6349H18.4615C18.1891 19.6349 17.9327 19.7632 17.7693 19.9811L15 23.6734L12.2307 19.9811C12.0673 19.7632 11.8109 19.6349 11.5385 19.6349H2.59617C2.11898 19.6349 1.7308 19.2467 1.7308 18.7695V2.61564C1.73074 2.13846 2.11898 1.75027 2.59617 1.75027H27.4039C27.8811 1.75027 28.2693 2.13846 28.2693 2.61564V18.7695Z" fill="black"/>
<path d="M17.8585 10.4754C18.758 9.68201 19.3269 8.52209 19.3269 7.23121C19.3269 4.84533 17.3859 2.9043 15 2.9043C12.6141 2.9043 10.6731 4.84533 10.6731 7.23121C10.6731 8.52209 11.242 9.68195 12.1414 10.4754C9.91001 11.5453 8.36536 13.8265 8.36536 16.462C8.36536 16.94 8.75284 17.3274 9.23073 17.3274H20.7692C21.2471 17.3274 21.6346 16.9399 21.6346 16.462C21.6346 13.8266 20.09 11.5453 17.8585 10.4754ZM15 4.6351C16.4315 4.6351 17.5962 5.79971 17.5962 7.23127C17.5962 8.66283 16.4315 9.82738 15 9.82738C13.5685 9.82738 12.4038 8.66277 12.4038 7.23121C12.4038 5.79965 13.5685 4.6351 15 4.6351ZM10.1726 15.5966C10.5825 13.304 12.5913 11.5582 15 11.5582C17.4087 11.5582 19.4174 13.304 19.8274 15.5966H10.1726Z" fill="black"/>
</svg>
