<svg width="24" height="24" viewBox="0 0 24 24" fill="none" xmlns="http://www.w3.org/2000/svg">
<g clip-path="url(#clip0_1163_22629)">
<path d="M21.6522 0H2.34783C1.05319 0 0 1.05319 0 2.34783V5.73914H24V2.34783C24 1.05319 22.9468 0 21.6522 0ZM3.91303 3.65217C3.48084 3.65217 3.13041 3.30178 3.13041 2.86955C3.13041 2.43731 3.4808 2.08692 3.91303 2.08692C4.34527 2.08692 4.69566 2.43731 4.69566 2.86955C4.69566 3.30178 4.34527 3.65217 3.91303 3.65217ZM7.04348 3.65217C6.6113 3.65217 6.26086 3.30178 6.26086 2.86955C6.26086 2.43731 6.61125 2.08692 7.04348 2.08692C7.47572 2.08692 7.82611 2.43731 7.82611 2.86955C7.82611 3.30178 7.47567 3.65217 7.04348 3.65217ZM10.1739 3.65217C9.7417 3.65217 9.39127 3.30178 9.39127 2.86955C9.39127 2.43731 9.74166 2.08692 10.1739 2.08692C10.6061 2.08692 10.9565 2.43731 10.9565 2.86955C10.9565 3.30178 10.6061 3.65217 10.1739 3.65217ZM20.087 3.65217H13.3043C12.8723 3.65217 12.5217 3.30187 12.5217 2.86955C12.5217 2.43722 12.8723 2.08692 13.3043 2.08692H20.087C20.519 2.08692 20.8696 2.43722 20.8696 2.86955C20.8696 3.30187 20.519 3.65217 20.087 3.65217Z" fill="#8F8F8F"/>
<path d="M0 7.30469V21.6525C0 22.9472 1.05319 24.0003 2.34783 24.0003H21.6522C22.9468 24.0003 24 22.9472 24 21.6525V7.30469H0ZM10.9458 21.1308C10.5136 21.1308 10.1632 20.7804 10.1632 20.3482C10.1632 19.916 10.5136 19.5655 10.9458 19.5655C11.378 19.5655 11.7285 19.9159 11.7285 20.3482C11.7285 20.7804 11.378 21.1308 10.9458 21.1308ZM15.6415 21.1308C15.2093 21.1308 14.8589 20.7804 14.8589 20.3482C14.8589 19.916 15.2092 19.5655 15.6415 19.5655C16.0737 19.5655 16.4241 19.9159 16.4241 20.3482C16.4241 20.7804 16.0737 21.1308 15.6415 21.1308ZM18.7215 13.5488L17.1562 18.2444C17.0513 18.5596 16.7563 18.7723 16.4241 18.7723H10.1648C10.1642 18.7723 10.1637 18.7726 10.1632 18.7726C10.0096 18.7726 9.84952 18.7247 9.71372 18.6275C9.53873 18.5023 9.46824 18.3561 9.43111 18.2445L7.51992 12.5114H5.46759C5.04112 12.5114 4.6957 12.1657 4.6957 11.7395C4.6957 11.3133 5.04112 10.9676 5.46759 10.9676H8.07628C8.40848 10.9676 8.70347 11.1803 8.80842 11.4955L9.15422 12.5328H17.9893C18.2374 12.5328 18.4703 12.652 18.6155 12.8533C18.7606 13.0546 18.7999 13.3134 18.7215 13.5488Z" fill="#8F8F8F"/>
</g>
<defs>
<clipPath id="clip0_1163_22629">
<rect width="24" height="24" fill="white"/>
</clipPath>
</defs>
</svg>
