<svg width="24" height="24" viewBox="0 0 24 24" fill="none" xmlns="http://www.w3.org/2000/svg">
<path d="M18 2.99924H5.99998C5.59247 2.9411 5.17703 2.97862 4.78653 3.10882C4.39604 3.23903 4.04121 3.45834 3.75014 3.74941C3.45907 4.04048 3.23976 4.3953 3.10955 4.7858C2.97935 5.1763 2.94184 5.59174 2.99998 5.99924V20.9992L5.99998 17.9992H18C18.4075 18.0574 18.8229 18.0199 19.2134 17.8897C19.6039 17.7595 19.9587 17.5401 20.2498 17.2491C20.5409 16.958 20.7602 16.6032 20.8904 16.2127C21.0206 15.8222 21.0581 15.4067 21 14.9992V5.99924C21.0581 5.59174 21.0206 5.1763 20.8904 4.7858C20.7602 4.3953 20.5409 4.04048 20.2498 3.74941C19.9587 3.45834 19.6039 3.23903 19.2134 3.10882C18.8229 2.97862 18.4075 2.9411 18 2.99924ZM15.5 13.3742C15.529 13.578 15.5103 13.7857 15.4452 13.981C15.3801 14.1762 15.2704 14.3536 15.1249 14.4992C14.9794 14.6447 14.8019 14.7544 14.6067 14.8195C14.4115 14.8846 14.2037 14.9033 14 14.8742H9.99998C9.79623 14.9033 9.5885 14.8846 9.39325 14.8195C9.19801 14.7544 9.02059 14.6447 8.87506 14.4992C8.72953 14.3536 8.61987 14.1762 8.55477 13.981C8.48966 13.7857 8.47091 13.578 8.49998 13.3742V11.1242C8.456 10.8044 8.53464 10.4797 8.72013 10.2154C8.90561 9.95105 9.1842 9.76667 9.49998 9.69924V8.24924C9.49998 7.5862 9.76337 6.95032 10.2322 6.48148C10.7011 6.01264 11.3369 5.74924 12 5.74924C12.663 5.74924 13.2989 6.01264 13.7677 6.48148C14.2366 6.95032 14.5 7.5862 14.5 8.24924V9.69924C14.8165 9.7667 15.0958 9.95166 15.2813 10.2169C15.4669 10.482 15.545 10.8077 15.5 11.1282V13.3742ZM13 8.24924V9.62424H11V8.24924C11 7.98403 11.1053 7.72967 11.2929 7.54214C11.4804 7.3546 11.7348 7.24924 12 7.24924C12.2652 7.24924 12.5195 7.3546 12.7071 7.54214C12.8946 7.72967 13 7.98403 13 8.24924Z" fill="#8F8F8F"/>
</svg>
