<svg width="24" height="24" viewBox="0 0 24 24" fill="none" xmlns="http://www.w3.org/2000/svg">
<g clip-path="url(#clip0_1046_13657)">
<path d="M21.4141 18.8285C20.9561 18.8285 20.5259 18.9486 20.1525 19.1583L17.2286 16.2344C16.9326 16.5994 16.5992 16.9328 16.2342 17.2287L19.1581 20.1527C18.9483 20.5262 18.8281 20.9564 18.8281 21.4144C18.8281 22.8403 19.9882 24.0003 21.4141 24.0003C22.8399 24.0003 24 22.8403 24 21.4144C24 19.9885 22.8399 18.8285 21.4141 18.8285Z" fill="#8F8F8F"/>
<path d="M2.58595 5.17186C3.04387 5.17186 3.47409 5.05172 3.84755 4.842L6.77142 7.76597C7.06739 7.40095 7.40077 7.06758 7.76578 6.77161L4.84195 3.84769C5.05167 3.47419 5.17186 3.04397 5.17186 2.58595C5.17186 1.16006 4.01184 0 2.58595 0C1.16006 0 0 1.16006 0 2.58595C0 4.01184 1.16006 5.17186 2.58595 5.17186Z" fill="#8F8F8F"/>
<path d="M17.2285 7.76597L18.8513 6.14306C19.3732 6.48098 19.9943 6.67814 20.661 6.67814C22.5021 6.67814 24 5.18025 24 3.33909C24 1.49794 22.5021 0 20.661 0C18.8198 0 17.3219 1.49789 17.3219 3.33905C17.3219 4.0057 17.5191 4.62684 17.857 5.14866L16.2342 6.77156C16.5992 7.06753 16.9326 7.40091 17.2285 7.76597Z" fill="#8F8F8F"/>
<path d="M12 12.8039C12.8595 12.8039 13.5563 12.1072 13.5563 11.2477C13.5563 10.3882 12.8595 9.69141 12 9.69141C11.1405 9.69141 10.4438 10.3882 10.4438 11.2477C10.4438 12.1072 11.1405 12.8039 12 12.8039Z" fill="#8F8F8F"/>
<path d="M12.0008 14.2109C10.0913 14.2109 9.26077 15.7181 9.0556 16.4324C9.8994 16.995 10.912 17.3234 12 17.3234C13.088 17.3234 14.1006 16.9949 14.9444 16.4324C14.7409 15.7237 13.9169 14.2109 12.0008 14.2109Z" fill="#8F8F8F"/>
<path d="M12 6.67969C9.06547 6.67969 6.67813 9.06708 6.67813 12.0015C6.67813 13.3058 7.14997 14.5016 7.93152 15.4281C8.12427 15.0036 8.66137 13.9894 9.89385 13.3294C9.36482 12.794 9.03749 12.0588 9.03749 11.2485C9.03749 9.61491 10.3665 8.28595 12 8.28595C13.6335 8.28595 14.9625 9.61495 14.9625 11.2485C14.9625 12.0588 14.6352 12.794 14.1061 13.3294C15.3389 13.9895 15.8759 15.0041 16.0685 15.4281C16.85 14.5016 17.3218 13.3058 17.3218 12.0015C17.3218 9.06703 14.9345 6.67969 12 6.67969Z" fill="#8F8F8F"/>
<path d="M6.77147 16.2344L5.14861 17.8573C4.6268 17.5194 4.0057 17.3222 3.33905 17.3222C1.49789 17.3222 0 18.8201 0 20.6613C0 22.5025 1.49789 24.0003 3.33905 24.0003C5.1802 24.0003 6.67809 22.5025 6.67809 20.6613C6.67809 19.9946 6.48094 19.3735 6.14297 18.8516L7.76578 17.2288C7.40077 16.9328 7.06744 16.5994 6.77147 16.2344Z" fill="#8F8F8F"/>
</g>
<defs>
<clipPath id="clip0_1046_13657">
<rect width="24" height="24" fill="white"/>
</clipPath>
</defs>
</svg>
