<svg width="24" height="24" viewBox="0 0 24 24" fill="none" xmlns="http://www.w3.org/2000/svg">
<path d="M17.2 11.6016C14.1072 11.6016 11.6 14.1088 11.6 17.2016C11.6 20.2944 14.1072 22.8016 17.2 22.8016C20.2928 22.8016 22.8 20.2944 22.8 17.2016C22.8 14.1088 20.2928 11.6016 17.2 11.6016ZM17.2 13.2016C18.0152 13.2016 18.7724 13.4468 19.4048 13.8656L13.864 19.4064C13.4452 18.774 13.2 18.0168 13.2 17.2016C13.2 14.9924 14.9908 13.2016 17.2 13.2016ZM17.2 21.2016C16.3848 21.2016 15.6276 20.9564 14.9952 20.5376L20.536 14.9968C20.9548 15.6292 21.2 16.3864 21.2 17.2016C21.2 19.4108 19.4092 21.2016 17.2 21.2016Z" fill="#8F8F8F"/>
<path d="M10.4 17.2016C10.4 15.1416 11.3196 13.2996 12.7664 12.0528C11.9032 11.7644 10.974 11.6016 10 11.6016C5.5816 11.6016 2 14.7832 2 19.2016V21.6016H12.0204C11.0116 20.4152 10.4 18.8808 10.4 17.2016Z" fill="#8F8F8F"/>
<path d="M9.99998 10.4016C12.43 10.4016 14.4 8.4316 14.4 6.00156C14.4 3.57151 12.43 1.60156 9.99998 1.60156C7.56994 1.60156 5.59998 3.57151 5.59998 6.00156C5.59998 8.4316 7.56994 10.4016 9.99998 10.4016Z" fill="#8F8F8F"/>
</svg>
