<svg width="24" height="24" viewBox="0 0 24 24" fill="none" xmlns="http://www.w3.org/2000/svg">
<g clip-path="url(#clip0_1082_11936)">
<path d="M10.8792 6.62423C10.9429 6.67818 11.0235 6.70752 11.1064 6.70752C11.1163 6.70752 11.1264 6.7071 11.1364 6.70626C11.2295 6.69829 11.3158 6.65353 11.3758 6.58181L13.6188 3.90553C13.7435 3.7567 13.724 3.53498 13.5752 3.41029C13.4264 3.28551 13.2047 3.30506 13.0799 3.45393L11.0639 5.85932L10.1417 5.07829C9.99355 4.95276 9.77164 4.97118 9.64621 5.11935C9.52072 5.26753 9.53914 5.48938 9.68731 5.61482L10.8792 6.62423Z" fill="black"/>
<path d="M11.7688 9.83314C12.9687 9.83314 14.1686 9.37658 15.0821 8.46346C15.9666 7.57935 16.4537 6.40349 16.4537 5.15253C16.4537 3.90163 15.9667 2.72549 15.0821 1.84058C14.1229 0.8818 12.7978 0.385582 11.447 0.480176C10.0902 0.574816 8.84382 1.24968 8.02745 2.33174C7.91054 2.48675 7.94139 2.70716 8.09636 2.82411C8.25146 2.94111 8.47182 2.91022 8.58878 2.75521C9.28257 1.83561 10.3422 1.26205 11.496 1.18161C12.6436 1.10178 13.7699 1.523 14.5849 2.33779C15.3367 3.08975 15.7506 4.08941 15.7506 5.15253C15.7506 6.21561 15.3367 7.21489 14.5851 7.96621C13.0322 9.51847 10.5055 9.51838 8.95262 7.96621C7.93473 6.94869 7.54553 5.45507 7.93693 4.06808C7.98967 3.88124 7.88096 3.68699 7.69407 3.63425C7.50751 3.58157 7.31298 3.69027 7.26025 3.87711C6.79975 5.50883 7.25776 7.26622 8.45556 8.46346C9.36901 9.37663 10.5689 9.83314 11.7688 9.83314Z" fill="black"/>
<path d="M22.5703 17.9022C22.4536 17.8357 22.3331 17.7672 22.2094 17.6932L21.2902 17.1419C21.7177 16.6877 22.0378 16.136 22.1639 15.5833C22.2023 15.4164 22.222 15.2524 22.222 15.0963V12.7694C22.222 11.711 21.4256 10.7557 20.1923 10.3361C19.1142 9.96956 18.0441 10.1397 17.468 10.7547C16.8773 10.8588 16.0491 11.3271 16.0772 13.1407C16.0777 13.1566 16.0777 13.1697 16.0777 13.18V15.0963C16.0777 15.2524 16.0973 15.4164 16.1358 15.5819C16.2614 16.135 16.5811 16.6877 17.0095 17.1424L16.1058 17.6842C16.0992 17.6875 16.0927 17.6917 16.0861 17.6955C15.9642 17.7686 15.8447 17.8366 15.7294 17.9022C15.3839 18.0986 15.0473 18.2894 14.7877 18.5566L14.1398 18.168C14.5678 17.7133 14.888 17.1616 15.0141 16.6094C15.0516 16.4449 15.0708 16.2808 15.0708 16.1219V15.0878C15.0708 15.0876 15.0708 15.0874 15.0708 15.0871V13.7948C15.0708 12.7368 14.2748 11.7821 13.0428 11.3625C11.9648 10.9954 10.8942 11.1652 10.3181 11.78C9.72712 11.8838 8.89861 12.352 8.9273 14.1654C8.92758 14.1818 8.92781 14.1952 8.92781 14.2053V14.6514V15.2864V16.1219C8.92781 16.2733 8.94656 16.4364 8.98453 16.6094C9.11062 17.1616 9.43078 17.7133 9.85922 18.168L9.21234 18.5566C8.95219 18.2894 8.61562 18.0982 8.26969 17.9017C8.15297 17.8352 8.0325 17.7672 7.90922 17.6932L7.89984 17.6875C7.89891 17.687 7.89801 17.6864 7.89708 17.6859L6.98981 17.1423C7.41783 16.6879 7.73789 16.1362 7.86398 15.5834C7.90172 15.42 7.92084 15.2562 7.92084 15.0965V14.0605V13.666V12.7695C7.92084 11.7113 7.12472 10.7564 5.89256 10.3367C4.81439 9.96942 3.74334 10.1394 3.16683 10.7547C2.57625 10.8585 1.74858 11.3268 1.77731 13.14C1.77759 13.1564 1.77783 13.1698 1.77783 13.1799V13.6248V14.2597V15.0965C1.77783 15.2562 1.79695 15.42 1.83445 15.5824C1.96069 16.1357 2.2808 16.6876 2.70872 17.1421L1.78908 17.6931C1.66598 17.7669 1.54566 17.8353 1.42922 17.9015C0.694266 18.3191 0 18.7136 0 19.8634V21.9287C0 21.9987 0 22.2119 0.153891 22.363C0.282656 22.4895 0.439969 22.5033 0.559406 22.5033C0.577125 22.5033 0.594 22.503 0.609797 22.5027C0.626531 22.5024 0.644062 22.5021 0.662437 22.5021H4.13006C4.1303 22.5021 4.13053 22.5021 4.13077 22.5021C4.131 22.5021 4.13123 22.5021 4.13147 22.5021H4.84898H4.84917H5.56458C5.56476 22.5021 5.56495 22.5021 5.56514 22.5021C5.56533 22.5021 5.56552 22.5021 5.5657 22.5021H7.14975V22.9539C7.14975 23.0242 7.14975 23.238 7.30444 23.3894C7.43334 23.516 7.59037 23.53 7.70991 23.53C7.72772 23.53 7.74459 23.5296 7.76053 23.5296C7.77694 23.5291 7.79428 23.5286 7.81256 23.5286H8.21756C8.41162 23.5286 8.56912 23.3711 8.56912 23.1771C8.56912 22.983 8.41162 22.8255 8.21756 22.8255H7.85287V22.5021V21.7989V20.8886C7.85287 20.1775 8.16319 19.9732 8.92772 19.5396C8.93944 19.533 8.95116 19.526 8.96334 19.5194C9.01209 19.4917 9.06131 19.4632 9.11194 19.4341L9.69834 19.8138L10.3026 20.2052C10.3077 20.208 10.3129 20.2113 10.318 20.2141C10.3602 20.2385 10.3972 20.2642 10.4333 20.2886C10.5069 20.3388 10.6476 20.4349 10.8177 20.4349C10.888 20.4349 10.9635 20.4185 11.0413 20.3758L11.0896 20.5652L10.4043 22.0497C10.4038 22.0507 10.4033 22.0521 10.4029 22.053C10.3443 22.1739 10.3537 22.3075 10.4263 22.4177L10.6658 22.8255H9.84131C9.64725 22.8255 9.48975 22.983 9.48975 23.1771C9.48975 23.3711 9.64725 23.5286 9.84131 23.5286H11.2799H11.2808H16.1863C16.2046 23.5286 16.2219 23.5291 16.2383 23.5296C16.2543 23.5296 16.2712 23.53 16.289 23.53C16.409 23.53 16.5665 23.516 16.6958 23.3894C16.8501 23.238 16.8501 23.0242 16.8501 22.9539V22.5021H19.8651H19.866H23.3376C23.3554 22.5021 23.3732 22.5025 23.3896 22.5025C23.4055 22.503 23.4224 22.5035 23.4402 22.5035C23.5597 22.5035 23.7168 22.4894 23.8457 22.3628C23.9999 22.2114 23.9999 21.9986 23.9999 21.9288V19.8635C24 18.7141 23.3058 18.3194 22.5703 17.9022ZM7.06378 18.006L6.17001 18.584C6.13312 18.6058 6.10031 18.627 6.0712 18.6465L5.87906 18.443C5.87583 18.4393 5.87231 18.4358 5.86894 18.4322L5.54864 18.093C5.58319 18.0814 5.61816 18.069 5.65373 18.0557C5.9257 17.9544 6.1898 17.8084 6.43612 17.6299L7.06378 18.006ZM3.37739 11.4355C3.47527 11.4269 3.56508 11.3777 3.62503 11.2999C3.98189 10.8369 4.82109 10.7145 5.66592 11.0022C6.38175 11.2461 7.21772 11.8552 7.21772 12.7695V13.666V13.709H7.06969C6.72319 13.709 6.49941 13.5158 6.16298 13.2007C5.78428 12.8461 5.313 12.4047 4.49456 12.4047H3.86475C3.09994 12.4047 2.9722 13.0262 2.89594 13.3975C2.80819 13.8245 2.76661 13.9082 2.48681 13.9082H2.48095V13.6249V13.18C2.48095 13.1671 2.48072 13.1499 2.48034 13.1289C2.46347 12.0591 2.7652 11.4894 3.37739 11.4355ZM2.51981 15.4251C2.49403 15.3136 2.481 15.203 2.481 15.0965V14.6113H2.48686C3.36436 14.6113 3.50766 13.9137 3.58467 13.539C3.67331 13.1077 3.71006 13.1077 3.8648 13.1077H4.49466C5.03522 13.1077 5.33517 13.3886 5.68242 13.7139C6.03183 14.0411 6.42783 14.412 7.06978 14.412H7.21781V15.0965C7.21781 15.203 7.20478 15.3136 7.17877 15.426C6.99239 16.2431 6.23128 17.0903 5.40792 17.397C5.1967 17.476 5.01923 17.5128 4.84945 17.5128C4.67967 17.5128 4.5022 17.476 4.29052 17.3968C3.46753 17.0903 2.70637 16.2431 2.51981 15.4251ZM5.22605 18.7755L5.11186 19.2222H4.58442L4.47098 18.7773L4.84936 18.3765L5.22605 18.7755ZM3.26255 17.63C3.50878 17.8084 3.77273 17.9543 4.04452 18.0556C4.08023 18.069 4.11539 18.0814 4.15008 18.093L3.62766 18.6464C3.59841 18.6269 3.56541 18.6057 3.52833 18.5838L2.63494 18.006L3.26255 17.63ZM3.27178 21.3854L3.51539 21.7989H0.703125V19.8634C0.703125 19.1512 1.01302 18.9467 1.77666 18.5128C1.83698 18.4785 1.89839 18.4436 1.96102 18.4075L3.15291 19.1783C3.1575 19.1813 3.16209 19.1841 3.16678 19.1869C3.20892 19.2114 3.24605 19.2369 3.28195 19.2615C3.36197 19.3163 3.50086 19.4115 3.66853 19.4115C3.73861 19.4115 3.81375 19.3946 3.8917 19.3515L3.9397 19.5397L3.25467 21.024C3.19584 21.1413 3.20236 21.2745 3.27178 21.3854ZM5.36461 21.7989H4.84955C4.8495 21.7989 4.84945 21.7989 4.84936 21.7989H4.33144L3.96141 21.1707L4.53619 19.9254H5.15995L5.73473 21.1707L5.36461 21.7989ZM7.14984 20.8886V21.7989H6.18066L6.42431 21.3854C6.49364 21.2747 6.5002 21.1417 6.44147 21.0242L5.75639 19.5399L5.80486 19.3503C5.88361 19.3944 5.95955 19.4116 6.03037 19.4116C6.1987 19.4116 6.3382 19.3158 6.4185 19.2607C6.45412 19.2362 6.49092 19.2109 6.53259 19.1865C6.53705 19.1839 6.54141 19.1812 6.54572 19.1784L7.73766 18.4076C7.80033 18.4437 7.86169 18.4786 7.92183 18.5131C8.19792 18.6701 8.41448 18.7967 8.57901 18.9289C7.84406 19.346 7.14984 19.7407 7.14984 20.8886ZM21.3637 18.0063L20.4717 18.5838C20.4342 18.6058 20.4009 18.6274 20.3714 18.6471L20.1792 18.4432C20.1755 18.4389 20.1708 18.4342 20.1666 18.43L19.8487 18.093C19.8834 18.0817 19.9181 18.0691 19.9537 18.056C20.2256 17.9542 20.4895 17.8085 20.7361 17.6299L21.3637 18.0063ZM17.6784 11.4353C17.7764 11.4269 17.8664 11.3777 17.9264 11.2999C18.2827 10.8372 19.1212 10.7144 19.9659 11.0017C20.6822 11.246 21.5189 11.8549 21.5189 12.7694V13.7088H21.3698C21.0234 13.7088 20.7998 13.5161 20.4637 13.2011C20.085 12.8463 19.6139 12.4047 18.7945 12.4047H18.1645C17.3995 12.4047 17.272 13.0263 17.1961 13.398C17.1084 13.8246 17.0672 13.908 16.7883 13.908H16.7808V13.18C16.7808 13.1674 16.7808 13.15 16.7803 13.1294C16.7639 12.0592 17.0658 11.4892 17.6784 11.4353ZM16.8211 15.4253C16.7944 15.31 16.7808 15.1994 16.7808 15.0963V14.6111H16.7883C17.6648 14.6111 17.8078 13.9136 17.8847 13.5391C17.9733 13.1078 18.0098 13.1078 18.1645 13.1078H18.7945C19.3359 13.1078 19.6359 13.3886 19.9828 13.7139C20.332 14.0411 20.7277 14.4119 21.3698 14.4119H21.5189V15.0963C21.5189 15.1994 21.5053 15.31 21.4786 15.4263C21.2925 16.2433 20.5312 17.0903 19.7072 17.3974C19.4977 17.4761 19.3205 17.5127 19.1494 17.5127C18.9792 17.5127 18.8025 17.4761 18.5916 17.3969C17.7675 17.0899 17.0062 16.2428 16.8211 15.4253ZM19.5262 18.776L19.4128 19.2222H18.8845L18.7711 18.7774L19.1494 18.3766L19.5262 18.776ZM17.5631 17.6303C17.8092 17.8085 18.0731 17.9542 18.345 18.0555C18.3806 18.0686 18.4158 18.0813 18.4505 18.093L17.9278 18.6461C17.8983 18.6269 17.8655 18.6058 17.8284 18.5838L16.9359 18.0058L17.5631 17.6303ZM14.2144 19.0324L13.3223 19.6103C13.2848 19.6319 13.2516 19.6535 13.222 19.6727L12.6989 19.1196C12.7336 19.1078 12.7683 19.0957 12.8039 19.0825C13.0762 18.9808 13.3402 18.8346 13.5867 18.6555L14.2144 19.0324ZM10.5286 12.4609C10.6265 12.4523 10.7164 12.4031 10.7763 12.3253C11.1328 11.8627 11.9714 11.7405 12.8161 12.0282C13.5319 12.2719 14.3677 12.8808 14.3677 13.7949V14.6906C14.3677 14.6909 14.3677 14.6911 14.3677 14.6913V14.7356H14.2197C13.8734 14.7356 13.6499 14.5426 13.3138 14.2277C12.9352 13.8729 12.4639 13.4313 11.6446 13.4313H11.0148C10.2497 13.4313 10.1222 14.0531 10.046 14.4246C9.9585 14.8512 9.91706 14.9348 9.6382 14.9348H9.63098V14.6514V14.2053C9.63098 14.1924 9.63075 14.1752 9.63037 14.1543C9.61341 13.0845 9.91561 12.5148 10.5286 12.4609ZM9.67078 16.4557C9.64453 16.3352 9.63094 16.2232 9.63094 16.1219V15.638H9.63815C10.5149 15.638 10.6579 14.9406 10.7348 14.5658C10.8232 14.1344 10.86 14.1344 11.0148 14.1344H11.6446C12.186 14.1344 12.4859 14.4154 12.8331 14.7407C13.1822 15.0679 13.5779 15.4387 14.2197 15.4387H14.3677V16.1219C14.3677 16.2283 14.3546 16.3394 14.3288 16.4523C14.1422 17.2684 13.381 18.1159 12.5588 18.4234C12.345 18.5026 12.1674 18.5397 11.9996 18.5397C11.8327 18.5397 11.6546 18.5026 11.4408 18.4234C10.6177 18.116 9.85641 17.2685 9.67078 16.4557ZM12.3764 19.8016L12.263 20.2478H11.7342L11.6212 19.803L11.9995 19.4027L12.3764 19.8016ZM10.777 19.6722C10.748 19.653 10.7152 19.6319 10.6777 19.6103L9.78562 19.0324L10.4123 18.6555C10.6594 18.8346 10.9237 18.9808 11.1961 19.083C11.2312 19.0957 11.2659 19.1078 11.3002 19.1191L10.777 19.6722ZM12.5147 22.8255H11.4816L11.1117 22.196L11.6859 20.951H12.3112L12.885 22.1969L12.5147 22.8255ZM16.147 22.8255H13.3308L13.5745 22.4121C13.6425 22.3024 13.65 22.1702 13.5928 22.053C13.5923 22.0521 13.5919 22.0507 13.5914 22.0497L12.9075 20.5652L12.9558 20.3767C13.0341 20.4203 13.11 20.4377 13.1803 20.4377C13.3477 20.4377 13.4864 20.343 13.5666 20.2886C13.6027 20.2638 13.6397 20.2385 13.6819 20.2141C13.687 20.2113 13.6922 20.208 13.6973 20.2052L14.888 19.4341C14.9377 19.4632 14.9873 19.4913 15.0356 19.5189C15.0483 19.526 15.0609 19.5335 15.0736 19.5405C15.8372 19.9741 16.147 20.1785 16.147 20.8886V22.8255ZM17.5762 21.3911L17.8162 21.7989H16.8502V20.8886C16.8502 19.7407 16.1559 19.3464 15.4209 18.9288C15.4209 18.9288 15.4205 18.9288 15.4205 18.9283C15.5845 18.7966 15.8011 18.6696 16.0767 18.5135C16.1372 18.4788 16.1991 18.4441 16.2619 18.4075L17.453 19.1782C17.4572 19.1814 17.4619 19.1842 17.4666 19.1871C17.5087 19.2114 17.5458 19.2367 17.5819 19.2611C17.6559 19.3117 17.7975 19.4088 17.9691 19.4088C18.0389 19.4088 18.1139 19.3924 18.1912 19.3502L18.2395 19.5396L17.5547 21.0241C17.5542 21.0246 17.5542 21.0246 17.5542 21.025C17.4942 21.146 17.5027 21.28 17.5762 21.3911ZM19.6645 21.7989H18.6319L18.262 21.1699L18.8362 19.9253H19.4611L20.0353 21.1694L19.6645 21.7989ZM23.2969 21.7989H20.4806L20.7239 21.3855C20.7895 21.2814 20.7998 21.1591 20.752 21.0457C20.7492 21.0386 20.7459 21.0311 20.7427 21.0241L20.0573 19.5396L20.1056 19.3507C20.1839 19.3942 20.2598 19.4116 20.3306 19.4116C20.4984 19.4116 20.6381 19.316 20.7183 19.2611C20.7539 19.2367 20.7909 19.2114 20.8331 19.1871C20.8378 19.1842 20.8425 19.1814 20.8472 19.1782L22.0378 18.4075C22.1006 18.4441 22.1625 18.4788 22.223 18.5135C22.987 18.9471 23.2969 19.1514 23.2969 19.8635V21.7989Z" fill="black"/>
</g>
<defs>
<clipPath id="clip0_1082_11936">
<rect width="24" height="24" fill="white"/>
</clipPath>
</defs>
</svg>
