<svg width="18" height="18" viewBox="0 0 18 18" fill="none" xmlns="http://www.w3.org/2000/svg">
<g clip-path="url(#clip0_1000_12756)">
<path d="M9.42859 5.57031V9.856L13.0971 12.0332L13.7143 10.9917L10.7143 9.21314V5.57031H9.42859Z" fill="#8F8F8F"/>
<path d="M10.2814 1.28516C6.01714 1.28516 2.57143 4.73943 2.57143 8.99944H0L3.33856 12.338L3.39854 12.4623L6.85716 8.99944H4.28573C4.28573 5.6866 6.97287 2.99946 10.2857 2.99946C13.5986 2.99946 16.2857 5.6866 16.2857 8.99944C16.2857 12.3123 13.5986 14.9994 10.2857 14.9994C8.62714 14.9994 7.13142 14.3223 6.04716 13.238L4.83429 14.4509C6.22716 15.848 8.15143 16.7137 10.2814 16.7137C14.5457 16.7137 18 13.2595 18 8.99944C18 4.73943 14.5457 1.28516 10.2814 1.28516Z" fill="#8F8F8F"/>
</g>
<defs>
<clipPath id="clip0_1000_12756">
<rect width="18" height="18" fill="white"/>
</clipPath>
</defs>
</svg>
