<svg width="18" height="18" viewBox="0 0 18 18" fill="none" xmlns="http://www.w3.org/2000/svg">
<path d="M9.53404 5.8221C9.98462 5.37246 10.2328 4.77391 10.2328 4.13672C10.2328 2.82519 9.16576 1.75819 7.85423 1.75819C6.5427 1.75819 5.47571 2.82519 5.47571 4.13672C5.47571 4.7742 5.72484 5.37338 6.1772 5.82389C6.28727 5.9335 6.28763 6.11158 6.17802 6.22163C6.12307 6.27682 6.05091 6.30442 5.97874 6.30442C5.90695 6.30442 5.83516 6.27711 5.78028 6.22246C5.22113 5.66562 4.9132 4.92489 4.9132 4.13672C4.9132 2.51504 6.23254 1.1957 7.85423 1.1957C9.47591 1.1957 10.7953 2.51503 10.7953 4.13672C10.7953 4.92437 10.4885 5.66433 9.93136 6.22026C9.82145 6.32999 9.64333 6.32978 9.53362 6.21985C9.4239 6.1099 9.42409 5.93183 9.53404 5.8221ZM13.8112 8.74129C13.4562 8.53574 13.0167 8.53417 12.6642 8.73721C12.6589 8.74022 12.654 8.74366 12.6489 8.74675C12.5866 8.05772 12.0255 7.6976 11.4704 7.69713C11.47 7.69713 11.4697 7.69713 11.4693 7.69713C11.1405 7.69713 10.8096 7.82341 10.5813 8.06957C10.5442 8.02579 10.5064 7.98769 10.47 7.95555C10.2548 7.76538 9.96807 7.66051 9.66266 7.66026C9.66229 7.66026 9.66193 7.66026 9.66155 7.66026C9.43683 7.66026 9.22226 7.71711 9.03875 7.8228L9.04134 4.13771C9.04134 3.48423 8.51059 2.95259 7.85878 2.95259C7.85797 2.95259 7.85718 2.95259 7.85636 2.95259C7.54196 2.95259 7.2455 3.07568 7.02142 3.29932C6.7968 3.52349 6.6731 3.82051 6.6731 4.13551L6.66872 10.224L6.05726 9.41875C5.68757 8.93172 5.11752 8.67218 4.56944 8.74145C4.15761 8.79351 3.82761 9.02478 3.68672 9.36006C3.59386 9.58104 3.50744 10.0431 3.97189 10.6547C4.92691 11.9132 5.24865 12.8297 5.53253 13.6383C5.76479 14.2999 5.96537 14.8713 6.45564 15.4323C6.88429 15.9225 7.09006 16.4746 7.08467 17.1208L7.08069 17.7077C7.07964 17.863 7.2047 17.9898 7.36004 17.9909H7.36198C7.51642 17.9909 7.64214 17.8662 7.64319 17.7115L7.64716 17.125C7.65365 16.3463 7.39523 15.6522 6.87913 15.0621C6.46024 14.5827 6.28506 14.0837 6.06327 13.452C5.78041 12.6462 5.4284 11.6435 4.41991 10.3146C4.20233 10.0281 4.12611 9.76646 4.2053 9.57798C4.2674 9.43018 4.42992 9.32606 4.63999 9.29951C4.9136 9.26499 5.31208 9.36738 5.60924 9.75889L6.72537 11.2288C6.79838 11.3249 6.92452 11.3637 7.03901 11.3253C7.15343 11.2868 7.23054 11.1796 7.23062 11.0589L7.2356 4.13573C7.2356 3.971 7.30064 3.81536 7.41876 3.69748C7.53664 3.57984 7.692 3.51511 7.85695 3.51511H7.85822C8.20042 3.51511 8.47884 3.79441 8.47884 4.13752L8.47484 9.81781C8.47474 9.97315 8.60057 10.0992 8.7559 10.0993H8.75609C8.91132 10.0993 9.03724 9.97347 9.03734 9.81822L9.03801 8.86367C9.03881 8.85509 9.03934 8.84644 9.03935 8.83766C9.03952 8.6409 9.1026 8.48567 9.22689 8.37623C9.33766 8.27868 9.49607 8.22277 9.66158 8.22277H9.6622C9.82805 8.22291 9.98675 8.27916 10.0976 8.37711C10.2218 8.48685 10.2848 8.64232 10.2846 8.83941V9.81802C10.2846 9.97335 10.4105 10.0993 10.5658 10.0993C10.7212 10.0993 10.8471 9.97335 10.8471 9.81802V8.87453C10.8475 8.38909 11.2382 8.25964 11.4694 8.25964H11.4699C11.6358 8.25978 11.7945 8.31603 11.9053 8.41398C12.0296 8.52372 12.0925 8.6792 12.0923 8.87628V9.81802H12.0923C12.0923 9.97325 12.2181 10.0991 12.3733 10.0993H12.3735C12.5288 10.0993 12.6547 9.97349 12.6548 9.81824C12.655 9.54308 12.758 9.33227 12.9449 9.22465C13.1211 9.12315 13.3505 9.12453 13.5293 9.22807C13.72 9.33848 13.8247 9.54854 13.8243 9.8198L13.8223 12.5416C13.8223 13.4671 13.4867 14.3612 12.8775 15.0588C12.3606 15.6487 12.1018 16.3435 12.1082 17.1236L12.1122 17.7115C12.1133 17.8662 12.239 17.9909 12.3934 17.9909H12.3954C12.5507 17.9898 12.6758 17.863 12.6747 17.7077L12.6707 17.1193C12.6653 16.472 12.8714 15.9193 13.3009 15.4292C13.9999 14.6287 14.3848 13.6032 14.3848 12.5418L14.3868 9.82045C14.3875 9.3469 14.1777 8.95357 13.8112 8.74129ZM5.14064 7.14649C5.21288 7.14649 5.2851 7.11884 5.34006 7.06356C5.4496 6.95344 5.4491 6.77536 5.33896 6.66582C4.66049 5.99105 4.28683 5.09321 4.28683 4.13771C4.28683 2.17065 5.88716 0.570312 7.85423 0.570312C9.8213 0.570312 11.4216 2.17064 11.4216 4.13771C11.4216 5.09201 11.0493 5.98887 10.3732 6.66311C10.2632 6.77278 10.263 6.95087 10.3727 7.06085C10.4824 7.17085 10.6604 7.17109 10.7704 7.0614C11.5531 6.28087 11.9841 5.24254 11.9841 4.13771C11.9841 1.86049 10.1315 0.0078125 7.85423 0.0078125C5.577 0.0078125 3.72433 1.86049 3.72433 4.13771C3.72433 5.24405 4.15689 6.28353 4.94232 7.06466C4.99718 7.11923 5.06892 7.14649 5.14064 7.14649Z" fill="#8F8F8F"/>
<path d="M12.1122 17.7121L12.1083 17.1241C12.1018 16.3441 12.3606 15.6492 12.8776 15.0593C13.4867 14.3617 13.8223 13.4676 13.8223 12.5421L13.8243 9.82032C13.8247 9.54906 13.72 9.339 13.5293 9.22859C13.3505 9.12506 13.1211 9.12367 12.9449 9.22517C12.7581 9.33278 12.655 9.5436 12.6548 9.81876C12.6547 9.97401 12.5288 10.0998 12.3736 10.0998C12.3735 10.0998 12.3734 10.0998 12.3733 10.0998C12.2181 10.0997 12.0923 9.97377 12.0923 9.81854H12.0923V8.8768C12.0925 8.67972 12.0296 8.52424 11.9053 8.4145C11.7945 8.31655 11.6358 8.2603 11.4699 8.26016C11.4698 8.26016 11.4696 8.26016 11.4694 8.26016C11.2382 8.26016 10.8475 8.38961 10.8471 8.87505V9.81854C10.8471 9.97387 10.7212 10.0998 10.5658 10.0998C10.4105 10.0998 10.2846 9.97387 10.2846 9.81854V8.83993C10.2848 8.64284 10.2218 8.48737 10.0976 8.37763C9.98676 8.27968 9.82805 8.22343 9.66221 8.22329C9.662 8.22329 9.6618 8.22329 9.66159 8.22329C9.49608 8.22329 9.33767 8.2792 9.22689 8.37675C9.10261 8.48619 9.03953 8.64142 9.03935 8.83818C9.03935 8.84696 9.03881 8.85562 9.03801 8.86419L9.03735 9.81874C9.03724 9.97399 8.91133 10.0998 8.7561 10.0998C8.75603 10.0998 8.75598 10.0998 8.75591 10.0998C8.60057 10.0997 8.47474 9.97367 8.47485 9.81833L8.47885 4.13803C8.47885 3.79493 8.20043 3.51562 7.85822 3.51562C7.85781 3.51562 7.85738 3.51562 7.85695 3.51562C7.692 3.51562 7.53665 3.58036 7.41877 3.698C7.30065 3.81588 7.23561 3.97152 7.23561 4.13625L7.23063 11.0594C7.23054 11.1801 7.15343 11.2873 7.03902 11.3258C6.92452 11.3642 6.79839 11.3254 6.72538 11.2293L5.60925 9.75941C5.31209 9.3679 4.91361 9.26551 4.64 9.30003C4.42992 9.32658 4.26741 9.4307 4.2053 9.5785C4.12612 9.76698 4.20233 10.0286 4.41991 10.3151C5.42841 11.644 5.78042 12.6468 6.06328 13.4525C6.28507 14.0842 6.46025 14.5832 6.87913 15.0626C7.39523 15.6527 7.65365 16.3468 7.64716 17.1255L7.6432 17.712C7.64215 17.8667 7.51642 17.9914 7.36198 17.9914H12.3934C12.239 17.9914 12.1133 17.8667 12.1122 17.7121Z" fill="#8F8F8F"/>
<path d="M12.092 10.3167H12.092C12.327 10.3167 12.5281 10.1725 12.6123 9.96787C12.5627 10.0479 12.4744 10.1013 12.3733 10.1013C12.218 10.1013 12.092 9.9754 12.092 9.82004L12.0923 8.87836C12.0925 8.68127 12.0296 8.5258 11.9053 8.41606C11.7945 8.31811 11.6358 8.26186 11.4699 8.26172C11.4697 8.26172 11.4696 8.26172 11.4694 8.26172C11.388 8.26172 11.287 8.27786 11.1901 8.31979C11.2471 8.3447 11.2994 8.37687 11.3437 8.41606C11.468 8.5258 11.5309 8.68127 11.5307 8.87836L11.5294 9.7541C11.5294 10.0648 11.7813 10.3167 12.092 10.3167Z" fill="#8F8F8F"/>
<path d="M10.5658 10.0992H10.5658C10.4104 10.0992 10.2845 9.97321 10.2845 9.81785L10.2846 8.8393C10.2847 8.64221 10.2218 8.48674 10.0976 8.377C9.98672 8.27905 9.82802 8.22279 9.66218 8.22266C9.66197 8.22266 9.66177 8.22266 9.66156 8.22266C9.56244 8.22266 9.46612 8.24307 9.3808 8.28011C9.43846 8.30511 9.49125 8.33746 9.536 8.377C9.66023 8.48674 9.72315 8.64221 9.72298 8.8393L9.72189 9.75191C9.72189 10.0626 9.97378 10.3145 10.2845 10.3145H10.2845C10.5195 10.3145 10.7206 10.1703 10.8048 9.96568C10.7552 10.0457 10.6669 10.0992 10.5658 10.0992Z" fill="#8F8F8F"/>
<path d="M8.7561 10.0998C8.60074 10.0998 8.4748 9.97384 8.4748 9.81848L8.47885 4.13803C8.47885 3.79493 8.20044 3.51562 7.85823 3.51562C7.85782 3.51562 7.85739 3.51562 7.85696 3.51562C7.75803 3.51562 7.66274 3.53935 7.57672 3.58337C7.77845 3.68627 7.91728 3.89602 7.91728 4.13803L7.91219 9.75254C7.91219 10.0633 8.16408 10.3151 8.4748 10.3151H8.4748C8.7098 10.3151 8.91093 10.171 8.9951 9.96631C8.94551 10.0463 8.85716 10.0998 8.7561 10.0998Z" fill="#8F8F8F"/>
<path d="M13.5293 9.22693C13.3532 9.12499 13.1282 9.1223 12.9531 9.21914C12.958 9.22176 12.9629 9.22416 12.9677 9.22693C13.1583 9.33734 13.2631 9.5474 13.2627 9.81866L13.2607 12.5404C13.2607 13.4659 12.9251 14.3601 12.3159 15.0577C11.799 15.6476 11.5401 16.3424 11.5466 17.1224L11.5506 17.7104C11.5517 17.8651 11.6774 17.9897 11.8318 17.9897H12.3934C12.239 17.9897 12.1132 17.8651 12.1122 17.7104L12.1082 17.1224C12.1017 16.3424 12.3605 15.6476 12.8775 15.0577C13.4866 14.3601 13.8223 13.4659 13.8223 12.5404L13.8243 9.81866C13.8247 9.5474 13.7199 9.33734 13.5293 9.22693Z" fill="#8F8F8F"/>
<path d="M7.039 11.325C6.9245 11.3634 6.79836 11.3246 6.72536 11.2285L5.60923 9.7586C5.31207 9.3671 4.91359 9.2647 4.63998 9.29922C4.58014 9.30678 4.52435 9.32084 4.47345 9.3402C4.66957 9.40256 4.87556 9.53187 5.04765 9.7586L6.31656 11.4468C6.48098 11.6744 6.79877 11.7256 7.02637 11.5612H7.02637C7.1881 11.4444 7.26054 11.2501 7.23003 11.0658C7.22693 11.1835 7.1511 11.2873 7.039 11.325Z" fill="#8F8F8F"/>
</svg>
