<svg width="24" height="24" viewBox="0 0 24 24" fill="none" xmlns="http://www.w3.org/2000/svg">
<g clip-path="url(#clip0_217_3180)">
<path d="M11.9923 23.5781C11.3459 23.5781 10.7472 23.2864 10.3487 22.777L7.95152 19.7369L3.74944 19.7343C1.68219 19.7343 0 18.0522 0 15.9843V3.74999C0 1.68219 1.68219 0 3.74999 0H20.25C22.3178 0 24 1.68219 24 3.74999V11.2969C24 11.8147 23.5803 12.2344 23.0625 12.2344C22.5446 12.2344 22.125 11.8147 22.125 11.2969V3.74999C22.125 2.71618 21.2838 1.875 20.25 1.875H3.74999C2.71618 1.875 1.875 2.71618 1.875 3.74999V15.9843C1.875 17.0182 2.71618 17.8593 3.74999 17.8593L8.40709 17.8621C8.69401 17.8623 8.96501 17.9939 9.14262 18.2191L11.8235 21.6189C11.8782 21.689 11.945 21.7031 11.9925 21.7031H11.9934C12.0406 21.7029 12.108 21.6884 12.1604 21.6205C12.162 21.6183 12.1637 21.6161 12.1653 21.6141L14.8244 18.2188C15.0022 17.9919 15.2743 17.8593 15.5625 17.8593H20.25C21.284 17.8593 22.125 17.0182 22.125 15.9843C22.125 15.4665 22.5446 15.0468 23.0625 15.0468C23.5803 15.0468 24 15.4665 24 15.9843C24 18.0522 22.3178 19.7343 20.25 19.7343H16.0191L13.6435 22.7675C13.2473 23.2802 12.6489 23.5755 12.0007 23.5781C11.998 23.5781 11.995 23.5781 11.9923 23.5781ZM12.9375 14.2968V9.23436C12.9375 8.71654 12.5178 8.29686 12 8.29686C11.4822 8.29686 11.0625 8.71654 11.0625 9.23436V14.2968C11.0625 14.8147 11.4822 15.2343 12 15.2343C12.5178 15.2343 12.9375 14.8147 12.9375 14.2968ZM12 5.06249C11.4822 5.06249 11.0625 5.48217 11.0625 5.99999C11.0625 6.51781 11.4822 6.93749 12 6.93749C12.5178 6.93749 12.9375 6.51781 12.9375 5.99999C12.9375 5.48217 12.5178 5.06249 12 5.06249Z" fill="black"/>
</g>
<defs>
<clipPath id="clip0_217_3180">
<rect width="24" height="24" fill="white"/>
</clipPath>
</defs>
</svg>
