<svg width="24" height="24" viewBox="0 0 24 24" fill="none" xmlns="http://www.w3.org/2000/svg">
<path d="M20.25 4.3125H18.75V3.5625C18.75 2.73525 18.0772 2.0625 17.25 2.0625H15.75C14.9227 2.0625 14.25 2.73525 14.25 3.5625V4.3125H9.75V3.5625C9.75 2.73525 9.07725 2.0625 8.25 2.0625H6.75C5.92275 2.0625 5.25 2.73525 5.25 3.5625V4.3125H3.75C2.50931 4.3125 1.5 5.32181 1.5 6.5625V19.3125C1.5 20.5532 2.50931 21.5625 3.75 21.5625H20.25C21.4907 21.5625 22.5 20.5532 22.5 19.3125V6.5625C22.5 5.32181 21.4907 4.3125 20.25 4.3125ZM15.75 3.5625H17.25V6.5625H15.75V3.5625ZM6.75 3.5625H8.25V6.5625H6.75V3.5625ZM21 19.3125C21 19.7259 20.6634 20.0625 20.25 20.0625H3.75C3.33656 20.0625 3 19.7259 3 19.3125V11.0625H21V19.3125ZM21 9.5625H3V6.5625C3 6.14906 3.33656 5.8125 3.75 5.8125H5.25V6.5625C5.25 7.38975 5.92275 8.0625 6.75 8.0625H8.25C9.07725 8.0625 9.75 7.38975 9.75 6.5625V5.8125H14.25V6.5625C14.25 7.38975 14.9227 8.0625 15.75 8.0625H17.25C18.0772 8.0625 18.75 7.38975 18.75 6.5625V5.8125H20.25C20.6634 5.8125 21 6.14906 21 6.5625V9.5625ZM5.25 14.0625C5.25 13.8636 5.32902 13.6728 5.46967 13.5322C5.61032 13.3915 5.80109 13.3125 6 13.3125H7.5C7.69891 13.3125 7.88968 13.3915 8.03033 13.5322C8.17098 13.6728 8.25 13.8636 8.25 14.0625C8.25 14.2614 8.17098 14.4522 8.03033 14.5928C7.88968 14.7335 7.69891 14.8125 7.5 14.8125H6C5.80109 14.8125 5.61032 14.7335 5.46967 14.5928C5.32902 14.4522 5.25 14.2614 5.25 14.0625ZM5.25 17.0625C5.25 16.8636 5.32902 16.6728 5.46967 16.5322C5.61032 16.3915 5.80109 16.3125 6 16.3125H7.5C7.69891 16.3125 7.88968 16.3915 8.03033 16.5322C8.17098 16.6728 8.25 16.8636 8.25 17.0625C8.25 17.2614 8.17098 17.4522 8.03033 17.5928C7.88968 17.7335 7.69891 17.8125 7.5 17.8125H6C5.80109 17.8125 5.61032 17.7335 5.46967 17.5928C5.32902 17.4522 5.25 17.2614 5.25 17.0625ZM10.5 14.0625C10.5 13.8636 10.579 13.6728 10.7197 13.5322C10.8603 13.3915 11.0511 13.3125 11.25 13.3125H12.75C12.9489 13.3125 13.1397 13.3915 13.2803 13.5322C13.421 13.6728 13.5 13.8636 13.5 14.0625C13.5 14.2614 13.421 14.4522 13.2803 14.5928C13.1397 14.7335 12.9489 14.8125 12.75 14.8125H11.25C11.0511 14.8125 10.8603 14.7335 10.7197 14.5928C10.579 14.4522 10.5 14.2614 10.5 14.0625ZM10.5 17.0625C10.5 16.8636 10.579 16.6728 10.7197 16.5322C10.8603 16.3915 11.0511 16.3125 11.25 16.3125H12.75C12.9489 16.3125 13.1397 16.3915 13.2803 16.5322C13.421 16.6728 13.5 16.8636 13.5 17.0625C13.5 17.2614 13.421 17.4522 13.2803 17.5928C13.1397 17.7335 12.9489 17.8125 12.75 17.8125H11.25C11.0511 17.8125 10.8603 17.7335 10.7197 17.5928C10.579 17.4522 10.5 17.2614 10.5 17.0625ZM15.75 14.0625C15.75 13.8636 15.829 13.6728 15.9697 13.5322C16.1103 13.3915 16.3011 13.3125 16.5 13.3125H18C18.1989 13.3125 18.3897 13.3915 18.5303 13.5322C18.671 13.6728 18.75 13.8636 18.75 14.0625C18.75 14.2614 18.671 14.4522 18.5303 14.5928C18.3897 14.7335 18.1989 14.8125 18 14.8125H16.5C16.3011 14.8125 16.1103 14.7335 15.9697 14.5928C15.829 14.4522 15.75 14.2614 15.75 14.0625ZM15.75 17.0625C15.75 16.8636 15.829 16.6728 15.9697 16.5322C16.1103 16.3915 16.3011 16.3125 16.5 16.3125H18C18.1989 16.3125 18.3897 16.3915 18.5303 16.5322C18.671 16.6728 18.75 16.8636 18.75 17.0625C18.75 17.2614 18.671 17.4522 18.5303 17.5928C18.3897 17.7335 18.1989 17.8125 18 17.8125H16.5C16.3011 17.8125 16.1103 17.7335 15.9697 17.5928C15.829 17.4522 15.75 17.2614 15.75 17.0625Z" fill="#8F8F8F"/>
</svg>
