<svg width="24" height="24" viewBox="0 0 24 24" fill="none" xmlns="http://www.w3.org/2000/svg">
<g clip-path="url(#clip0_997_12453)">
<path d="M4.87219 16.0295H11.2969V11.2052L10.0383 9.94656C9.7636 9.67187 9.7636 9.22703 10.0383 8.95234C10.3125 8.67766 10.7578 8.67766 11.0325 8.95234L12 9.91984L12.9675 8.95234C13.2422 8.67766 13.6875 8.67766 13.9617 8.95234C14.2364 9.22703 14.2364 9.67187 13.9617 9.94656L12.7031 11.2052V16.0295H19.1278V12.183C19.1278 8.2525 15.9305 5.05469 12 5.05469C8.06954 5.05469 4.87219 8.2525 4.87219 12.183V16.0295Z" fill="#8F8F8F"/>
<path d="M4.87219 17.4375V18.8438H19.1278V17.4375C18.6844 17.4375 5.38168 17.4375 4.87219 17.4375Z" fill="#8F8F8F"/>
<path d="M12 3.65016C12.3881 3.65016 12.7031 3.33562 12.7031 2.94703V0.703125C12.7031 0.315 12.3881 0 12 0C11.6119 0 11.2969 0.315 11.2969 0.703125V2.94703C11.2969 3.33562 11.6119 3.65016 12 3.65016Z" fill="#8F8F8F"/>
<path d="M5.28812 5.01749C5.56271 5.29213 6.00793 5.29209 6.28248 5.01749C6.55707 4.7429 6.55707 4.29773 6.28248 4.02313L4.69576 2.43641C4.42121 2.16182 3.97599 2.16182 3.7014 2.43641C3.4268 2.71101 3.4268 3.15618 3.7014 3.43077L5.28812 5.01749Z" fill="#8F8F8F"/>
<path d="M18.7119 5.01749L20.2987 3.43077C20.5732 3.15618 20.5732 2.71101 20.2987 2.43641C20.0241 2.16182 19.5789 2.16182 19.3043 2.43641L17.7176 4.02313C17.443 4.29773 17.443 4.7429 17.7176 5.01749C17.9921 5.29213 18.4374 5.29209 18.7119 5.01749Z" fill="#8F8F8F"/>
<path d="M4.119 9.50781C4.119 9.1195 3.80419 8.80469 3.41587 8.80469H1.17188C0.783562 8.80469 0.46875 9.1195 0.46875 9.50781C0.46875 9.89613 0.783562 10.2109 1.17188 10.2109H3.41587C3.80419 10.2109 4.119 9.89613 4.119 9.50781Z" fill="#8F8F8F"/>
<path d="M22.8281 8.80469H20.5841C20.1958 8.80469 19.881 9.1195 19.881 9.50781C19.881 9.89613 20.1958 10.2109 20.5841 10.2109H22.8281C23.2164 10.2109 23.5312 9.89613 23.5312 9.50781C23.5312 9.1195 23.2164 8.80469 22.8281 8.80469Z" fill="#8F8F8F"/>
<path d="M19.5441 20.25H4.45593C3.30656 20.25 2.37187 21.1852 2.37187 22.3345V23.2969C2.37187 23.685 2.6864 24 3.075 24H20.925C21.3136 24 21.6281 23.685 21.6281 23.2969V22.3345C21.6281 21.1852 20.6934 20.25 19.5441 20.25Z" fill="#8F8F8F"/>
</g>
<defs>
<clipPath id="clip0_997_12453">
<rect width="24" height="24" fill="white"/>
</clipPath>
</defs>
</svg>
