<svg width="24" height="19" viewBox="0 0 24 19" fill="none" xmlns="http://www.w3.org/2000/svg">
<path d="M24 6.61228V8.20452H3.8316V6.61228C3.8316 6.02845 4.30928 5.55078 4.8931 5.55078H22.9385C23.5224 5.55078 24 6.02845 24 6.61228Z" fill="#8F8F8F"/>
<path d="M3.8316 11.3906V18.2903H22.9385C23.5224 18.2903 24 17.8127 24 17.2289V11.3906H3.8316ZM17.1003 16.4327H13.9158C13.7672 16.4327 13.6504 16.316 13.6504 16.1674C13.6504 16.0187 13.7672 15.902 13.9158 15.902H17.1003C17.2489 15.902 17.3657 16.0187 17.3657 16.1674C17.3657 16.316 17.2489 16.4327 17.1003 16.4327ZM17.1003 14.3097H13.9158C13.7672 14.3097 13.6504 14.193 13.6504 14.0444C13.6504 13.8958 13.7672 13.779 13.9158 13.779H17.1003C17.2489 13.779 17.3657 13.8958 17.3657 14.0444C17.3657 14.193 17.2489 14.3097 17.1003 14.3097ZM21.877 16.1674C21.877 16.4593 21.6382 16.6981 21.3463 16.6981H18.6925C18.4006 16.6981 18.1618 16.4593 18.1618 16.1674V14.0444C18.1618 13.7525 18.4006 13.5136 18.6925 13.5136H21.3463C21.6382 13.5136 21.877 13.7525 21.877 14.0444V16.1674Z" fill="#8F8F8F"/>
<path d="M3.8316 8.73438H24V10.8574H3.8316V8.73438Z" fill="#8F8F8F"/>
<path d="M20.6138 5.02045H4.89307C4.01734 5.02045 3.30083 5.73696 3.30083 6.6127V16.7341L0.0579594 7.23898C-0.13311 6.687 0.164109 6.08195 0.716087 5.89088L17.7956 0.0579593C18.3475 -0.13311 18.9526 0.164109 19.1437 0.716087L20.6138 5.02045Z" fill="#8F8F8F"/>
<path d="M18.6925 14.043H21.3462V16.166H18.6925V14.043Z" fill="#8F8F8F"/>
</svg>
