<svg width="20" height="20" viewBox="0 0 20 20" fill="none" xmlns="http://www.w3.org/2000/svg">
<path fill-rule="evenodd" clip-rule="evenodd" d="M8.33289 10.0034C9.52122 10.0034 10.1346 10.4951 10.6771 10.9276C11.1737 11.3259 11.6046 11.6701 12.4996 11.6701C14.1179 11.6701 16.0646 10.5592 16.6662 10.1909V2.82505C15.7562 3.33839 14.0437 4.17005 12.4996 4.17005C11.3112 4.17005 10.6979 3.67839 10.1562 3.24589C9.65872 2.84755 9.22789 2.50339 8.33289 2.50339C6.71455 2.50339 4.76789 3.61422 4.16622 3.98255V11.3484C5.07622 10.8351 6.78872 10.0034 8.33289 10.0034M3.74955 17.5034C3.51955 17.5034 3.33289 17.3167 3.33289 17.0867V3.75339C3.33289 3.61422 3.40289 3.48422 3.51872 3.40672C3.62539 3.33589 6.14872 1.66992 8.33289 1.66992C9.52122 1.66992 10.1346 2.16172 10.6771 2.59422C11.1737 2.99255 11.6046 3.33672 12.4996 3.33672C14.4296 3.33672 16.8279 1.75589 16.8521 1.74005C16.9812 1.65422 17.1437 1.64672 17.2796 1.72005C17.4146 1.79172 17.4996 1.93255 17.4996 2.08672V10.4201C17.4996 10.5592 17.4296 10.6892 17.3137 10.7667C17.2071 10.8376 14.6837 12.5034 12.4996 12.5034C11.3112 12.5034 10.6979 12.0117 10.1562 11.5792C9.65872 11.1809 9.22789 10.8367 8.33289 10.8367C6.71455 10.8367 4.76789 11.9476 4.16622 12.3159V17.0867C4.16622 17.3167 3.97955 17.5034 3.74955 17.5034" fill="black"/>
</svg>
