<svg width="24" height="24" viewBox="0 0 24 24" fill="none" xmlns="http://www.w3.org/2000/svg">
<path d="M0.125591 23.6978C0.256747 23.8867 0.472324 23.9999 0.703043 23.9999H23.2966C23.5273 23.9999 23.7429 23.8867 23.874 23.6978C24.0058 23.5083 24.0361 23.2666 23.9551 23.0504C23.6811 22.3177 23.1689 21.675 22.9608 21.4333C22.8276 21.2775 22.6326 21.1875 22.4273 21.1875H1.57234C1.36703 21.1875 1.17203 21.2775 1.03881 21.4333C0.830777 21.675 0.318528 22.3177 0.0445441 23.0504C-0.0364557 23.2666 -0.0062683 23.5083 0.125591 23.6978Z" fill="#8F8F8F"/>
<path d="M2.8125 11.2969H7.07812V19.7812H2.8125V11.2969Z" fill="#8F8F8F"/>
<path d="M9.89062 11.2969H14.1094V19.7812H9.89062V11.2969Z" fill="#8F8F8F"/>
<path d="M16.9218 11.2969H21.1874V19.7812H16.9218V11.2969Z" fill="#8F8F8F"/>
<path d="M1.52189 9.68357C1.65389 9.81609 1.83759 9.89062 2.01928 9.89062C2.01937 9.89062 2.01951 9.89053 2.01961 9.89053C2.0197 9.89053 2.01984 9.89062 2.01993 9.89015H21.98C21.9801 9.89062 21.9803 9.89053 21.9803 9.89053C21.9804 9.89053 21.9806 9.89062 21.9807 9.89062C22.1624 9.89062 22.3461 9.81613 22.4781 9.68357C22.6211 9.54051 23.6903 8.427 23.9999 7.07812H0C0.309609 8.427 1.37878 9.54051 1.52189 9.68357Z" fill="#8F8F8F"/>
<path d="M23.5525 5.67186L12.3145 0.0741445C12.1167 -0.0247148 11.8833 -0.0247148 11.6855 0.0741445L0.44751 5.67186H23.5525Z" fill="#8F8F8F"/>
</svg>
