<svg width="24" height="24" viewBox="0 0 24 24" fill="none" xmlns="http://www.w3.org/2000/svg">
<path d="M8.23481 11.1971C10.6988 11.1971 12.7035 9.19249 12.7035 6.72853C12.4787 0.808436 3.98998 0.81003 3.7662 6.72858C3.7662 9.19249 5.7708 11.1971 8.23481 11.1971Z" fill="#8F8F8F"/>
<path d="M10.644 19.5291V15.7635C10.644 14.3795 11.2011 13.1032 12.1188 12.1704C6.78484 9.2065 -0.0829883 13.2952 0.00063424 19.4291C0.000540492 19.429 0.000540492 21.7884 0.000540492 21.7884C0.000540492 22.9908 0.973074 23.9977 2.20983 23.9977H12.7095C11.4464 22.9193 10.644 21.3162 10.644 19.5291Z" fill="#8F8F8F"/>
<path d="M20.9876 12.1164V2.96241C20.9876 2.7759 20.9135 2.59708 20.7816 2.46527L18.5223 0.205963C18.3904 0.0741072 18.2116 0 18.0252 0C17.8387 0 17.6599 0.0740603 17.528 0.205963L15.2687 2.46527C14.9941 2.73981 14.9941 3.18502 15.2687 3.4596L15.9011 4.09207L15.2686 4.72458C14.9941 4.99917 14.9941 5.44432 15.2686 5.71891L15.9011 6.35138L15.2687 6.9838C14.9941 7.25833 14.9941 7.70349 15.2687 7.97813L15.9012 8.61064L15.2688 9.2431C15.1369 9.37491 15.0628 9.55378 15.0628 9.74025V12.1163C13.3491 12.4458 12.0504 13.9567 12.0504 15.7651V19.5306C12.0504 21.9946 14.055 23.9992 16.519 23.9992H19.5314C21.9954 23.9992 24 21.9946 24 19.5306V15.7651C24 13.9567 22.7013 12.4459 20.9876 12.1164ZM18.0252 20.3338C17.167 20.3338 16.469 19.6356 16.469 18.7775C16.5472 16.7158 19.5035 16.7164 19.5814 18.7775C19.5814 19.6356 18.8832 20.3338 18.0252 20.3338Z" fill="#8F8F8F"/>
</svg>
