<svg width="18" height="18" viewBox="0 0 18 18" fill="none" xmlns="http://www.w3.org/2000/svg">
<path d="M5.21644 1.6875C4.89183 1.68746 4.59421 1.68743 4.3521 1.71998C4.08549 1.75582 3.8037 1.84016 3.57193 2.07193C3.34016 2.3037 3.25582 2.58549 3.21998 2.8521C3.18743 3.09421 3.18746 3.39183 3.1875 3.71644L3.1875 15.75C3.1875 16.0607 3.43934 16.3125 3.75 16.3125C4.06066 16.3125 4.3125 16.0607 4.3125 15.75L4.3125 11.0625H12.8985C13.9556 11.0625 14.8125 10.2056 14.8125 9.14846C14.8125 8.51817 14.5022 7.92828 13.9828 7.57121L13.7719 7.42619C13.0346 6.91932 13.0346 5.83069 13.7719 5.32382L13.9828 5.1788C14.5022 4.82173 14.8125 4.23184 14.8125 3.60155C14.8125 2.54445 13.9556 1.68751 12.8985 1.68751L5.21644 1.6875Z" fill="#8F8F8F"/>
</svg>
