<svg width="138" height="92" viewBox="0 0 138 92" fill="none" xmlns="http://www.w3.org/2000/svg">
<path d="M47.621 0.409271C45.0469 1.2575 42.9835 3.42047 42.1868 6.07117C41.7986 7.38591 41.7986 8.00087 41.9008 30.5848C41.9621 43.3294 42.0846 54.3351 42.1868 55.0773C42.8201 59.7849 47.4167 63.3687 51.809 62.5629C53.4842 62.266 54.8325 61.5662 61.5946 57.4523C64.6794 55.5862 67.56 53.9534 67.989 53.8262C69.6029 53.3809 71.6254 54.3775 72.4017 56.0103C72.7694 56.8162 72.8307 57.3251 72.8307 59.6153C72.8307 62.5417 72.9737 62.9234 73.9543 62.6689L74.4651 62.5417V59.7849C74.4651 56.7737 74.1995 55.565 73.3006 54.2927C72.0953 52.6599 69.6029 51.6844 67.7438 52.1509C66.6815 52.4054 66.0073 52.7871 58.3464 57.4311C52.9735 60.6756 51.6864 61.2269 49.9908 60.9512C47.3758 60.5483 45.4759 59.17 44.3932 56.8586L43.719 55.4378L43.5556 32.7478C43.4738 20.2789 43.433 9.33683 43.4738 8.44619C43.576 6.36805 44.2502 4.84124 45.6802 3.50529C47.621 1.70282 50.3177 1.19388 52.6057 2.16934C53.2186 2.44501 57.141 4.71401 61.2882 7.23748C65.4558 9.73973 70.0523 12.5177 71.5028 13.3871C72.9737 14.2565 77.1413 16.78 80.7982 18.9642C84.455 21.1696 88.3979 23.5234 89.5623 24.2444C92.0751 25.7288 92.9944 26.6194 93.7912 28.3158C94.3019 29.3973 94.3836 29.8214 94.3836 31.3694C94.3836 34.7199 93.3213 36.1619 88.7656 38.9398C82.2895 42.9053 81.4315 43.4354 78.9595 44.941C74.5059 47.6341 74.4446 47.6978 74.5059 48.3127C74.5468 48.7156 74.6898 48.8853 75.078 48.9277C75.5887 48.9913 75.8543 48.8429 83.2497 44.3049C85.1087 43.1598 88.0097 41.3997 89.6849 40.3818C91.5235 39.2579 93.117 38.1128 93.689 37.5191C96.876 34.1474 96.8351 28.5491 93.6073 25.1562C92.8106 24.3292 91.2579 23.2689 87.5398 21.0635C84.7819 19.4095 80.4304 16.8012 77.8359 15.2532C75.2618 13.7052 72.6264 12.136 72.0136 11.7543C69.419 10.2063 62.9021 6.26202 59.8581 4.43834C58.0604 3.35685 55.9561 2.08451 55.2003 1.61799C52.5036 -0.0148392 50.0521 -0.396538 47.621 0.409271Z" fill="black"/>
<path d="M53.6674 22.8848C52.7685 23.4574 52.6051 24.03 52.6051 26.511V28.6104H50.93C48.7033 28.6104 47.8453 28.886 47.1916 29.7555C46.5174 30.6673 46.497 32.1093 47.1303 32.9575C47.784 33.8269 48.6828 34.1238 50.7665 34.1238H52.6051V36.0323C52.6051 37.0714 52.6051 37.9832 52.6051 38.0468C52.5847 38.3649 53.2792 39.4464 53.7491 39.8281C54.1372 40.1462 54.5866 40.2734 55.3221 40.2734C56.2209 40.2734 56.4048 40.1886 57.0176 39.51L57.7122 38.7678V36.4352V34.1238H59.6733C62.5741 34.1238 63.6364 33.3816 63.6773 31.3459C63.6977 29.4798 62.4107 28.6104 59.612 28.6104H57.7122V26.511C57.7122 24.6873 57.6509 24.348 57.2423 23.7119C56.4048 22.4183 54.9339 22.079 53.6674 22.8848Z" fill="#676767"/>
<path d="M75.9763 28.0902C74.0765 29.2777 73.6066 31.6316 74.9141 33.6249C76.3032 35.7666 79.633 35.6606 80.8791 33.4552C81.4511 32.4162 81.6146 30.6773 81.1856 29.8291C80.1642 27.7509 77.774 26.9663 75.9763 28.0902Z" fill="#CD323D"/>
<path d="M86.2728 27.8331C85.0267 28.4268 84.0665 29.9536 84.0665 31.3744C84.0665 32.2438 84.659 33.6646 85.2105 34.1735C85.8029 34.7249 87.0286 35.1914 87.8458 35.1914C90.8079 35.1914 92.4626 31.438 90.5832 28.957C89.6639 27.7482 87.6415 27.2181 86.2728 27.8331Z" fill="#CD323D"/>
<path d="M6.1898 75.0631C3.84054 75.678 1.57299 77.6289 0.551566 79.8979C0.0408568 81.0006 0 81.3399 0 83.6513C0 86.0688 0.0408568 86.2596 0.63328 87.5744C2.10412 90.7552 4.86195 92.2184 8.84549 91.9639C10.2755 91.8791 10.8066 91.7307 12.0936 91.0733C14.259 89.9494 14.402 89.6737 14.402 86.1324C14.402 83.4181 14.3816 83.2908 13.8913 82.8031C13.4214 82.2942 13.3193 82.273 10.4185 82.273C7.72193 82.273 7.4155 82.3154 7.04779 82.6971C6.63922 83.1212 6.51665 84.0754 6.80265 84.5207C7.1295 85.0509 7.92621 85.2417 9.68305 85.2417H11.542V86.7049V88.1681L10.5819 88.6346C9.23363 89.292 7.02736 89.292 5.71995 88.6346C3.14597 87.3411 2.08369 83.821 3.43197 80.9582C4.9641 77.7138 8.47778 76.8443 11.2356 79.0073C12.1753 79.7495 12.9516 79.7495 13.5849 79.0497C14.545 77.9894 13.7279 76.6535 11.4399 75.572C10.0916 74.9146 7.61978 74.6814 6.1898 75.0631Z" fill="black"/>
<path d="M76.2629 75.1764C75.9564 75.346 75.65 75.7065 75.5887 75.961C75.5274 76.2154 75.4866 79.7144 75.5274 83.701L75.5887 90.9957L76.079 91.3986C76.7736 91.9712 77.6111 91.9076 78.1218 91.2502C78.4895 90.7625 78.5508 90.3808 78.5508 88.8116V86.9243L81.1657 86.903C84.0052 86.903 84.9245 86.6486 86.2319 85.5671C88.8467 83.4041 88.5607 77.9331 85.7212 75.9822C84.4751 75.1339 82.9225 74.8371 79.6744 74.8583C77.5498 74.8583 76.6714 74.9431 76.2629 75.1764ZM83.0859 78.0179C83.4945 78.1451 84.1074 78.5693 84.4342 78.951C85.6191 80.3717 85.4352 82.2802 84.0052 83.4041C83.3106 83.9555 83.2289 83.9767 80.8797 83.9131L78.4487 83.8494L78.3874 81.1139C78.367 79.5871 78.3874 78.23 78.4283 78.0815C78.5713 77.7422 81.9419 77.6998 83.0859 78.0179Z" fill="#CD323D"/>
<path d="M25.8837 75.3517C25.2504 75.7121 18.4682 89.411 18.4477 90.3652C18.4273 90.8317 18.5907 91.171 18.9789 91.5315C20.0003 92.4434 20.9196 92.0193 21.6754 90.3016L22.2474 89.0505H26.5987H30.9499L31.5628 90.3016C32.2573 91.7224 32.5433 91.9768 33.4217 91.8496C34.0346 91.7648 34.8313 90.9378 34.8313 90.4076C34.8313 89.8139 27.9061 75.7121 27.4362 75.3941C26.8847 74.9912 26.5169 74.97 25.8837 75.3517ZM27.9674 82.8796C28.6006 84.3216 29.0909 85.5303 29.0705 85.5515C28.9275 85.6788 24.0451 85.8484 23.943 85.7424C23.8817 85.6788 24.4333 84.3428 25.1891 82.7736C25.9245 81.2256 26.5987 80.0169 26.6804 80.1017C26.7621 80.1865 27.3341 81.4377 27.9674 82.8796Z" fill="black"/>
<path d="M38.9383 75.6114C38.5297 76.1628 38.5093 76.4172 38.5093 83.3727C38.5093 91.6429 38.5297 91.7913 40.0618 91.8125C40.45 91.8125 40.8585 91.6216 41.1241 91.3248C41.5531 90.8582 41.5735 90.6674 41.5735 86.087V81.3581L43.4529 84.0725C44.4744 85.5568 45.5162 86.8716 45.7818 86.9776C46.7011 87.4229 47.1913 87.02 49.275 84.2421L51.277 81.5702L51.3996 82.5032C51.4609 83.0122 51.5222 85.1115 51.5426 87.1473C51.6039 91.3672 51.7264 91.8125 52.8909 91.8125C53.3198 91.8125 53.708 91.6429 53.9531 91.3672C54.3208 90.9431 54.3413 90.5402 54.28 83.4575L54.2187 76.0143L53.708 75.5266C52.6049 74.5087 52.1759 74.848 49.0299 79.386C47.6816 81.3157 46.5172 82.9061 46.4559 82.9061C46.3946 82.9061 45.2915 81.443 44.0249 79.6617C42.7584 77.9016 41.4305 76.1204 41.1037 75.7387C40.307 74.8904 39.5307 74.8268 38.9383 75.6114Z" fill="black"/>
<path d="M113.648 75.2933C113.178 75.569 106.334 89.7344 106.334 90.4341C106.334 91.1763 107.008 91.8125 107.825 91.8125C108.622 91.8125 108.949 91.4944 109.684 89.9464L110.216 88.8437H114.506H118.796L119.327 89.9464C120.042 91.452 120.389 91.8125 121.084 91.8125C121.758 91.8125 122.677 90.9855 122.677 90.3917C122.677 90.0736 118.489 81.2521 116.385 77.1806C115.364 75.1661 114.649 74.6784 113.648 75.2933ZM114.996 80.828C115.261 81.443 115.854 82.7789 116.324 83.7968L117.141 85.6629H114.383H111.646L112.32 84.2209C112.708 83.4363 113.321 82.1003 113.688 81.2521C114.056 80.4251 114.403 79.7253 114.424 79.7253C114.465 79.7253 114.71 80.2342 114.996 80.828Z" fill="#CD323D"/>
<path d="M124.558 75.1999C124.415 75.2635 124.169 75.5816 123.986 75.9209C123.597 76.7055 123.516 76.5358 126.784 81.3707L129.42 85.2301L129.542 88.2201C129.665 90.892 129.726 91.2313 130.114 91.507C130.706 91.9311 131.605 91.8675 132.075 91.3798C132.443 90.9981 132.484 90.68 132.484 88.0929V85.2089L135.242 80.989C136.753 78.6776 137.999 76.6207 137.999 76.4298C137.999 75.8785 137.06 75.0515 136.406 75.0515C135.65 75.0515 135.385 75.3695 132.994 79.1229C131.912 80.8618 130.992 82.2614 130.952 82.2614C130.911 82.2614 129.889 80.7558 128.684 78.9109C127.479 77.0872 126.335 75.4756 126.171 75.3271C125.845 75.0515 125.027 74.9878 124.558 75.1999Z" fill="#CD323D"/>
<path d="M59.7353 75.7387C59.3063 76.2264 59.3063 76.2476 59.4289 83.6271C59.5311 90.1161 59.5923 91.0915 59.8988 91.4308C60.2052 91.7913 60.6342 91.8125 65.3123 91.8125C70.113 91.8125 70.399 91.7913 70.7871 91.3884C71.3182 90.837 71.3182 89.904 70.7871 89.3102C70.3785 88.8649 70.2151 88.8437 66.5176 88.8437H62.677L62.534 87.5502C62.2889 85.0267 61.9416 85.2812 65.6596 85.1964C68.5195 85.1327 68.969 85.0903 69.3367 84.7298C69.8474 84.2633 69.9087 83.1818 69.4797 82.5669C69.2141 82.2064 68.8464 82.1427 65.8434 82.0579L62.5136 81.9519L62.4523 80.0858L62.391 78.2409H66.1703C69.8474 78.2409 69.9495 78.2197 70.256 77.7744C70.7462 77.0746 70.6645 75.9931 70.1334 75.6114C69.7452 75.3358 68.8873 75.2721 64.9241 75.2721C60.2665 75.2721 60.1643 75.2721 59.7353 75.7387Z" fill="black"/>
<path d="M92.9329 75.56C92.5652 75.8569 92.5448 76.175 92.5652 83.4485L92.6061 91.0401L93.0759 91.443C93.5049 91.8035 93.9135 91.8247 98.0809 91.7611C102.371 91.6975 102.657 91.6763 102.943 91.2734C103.413 90.616 103.351 89.5557 102.82 89.174C102.453 88.8983 101.697 88.8347 98.8367 88.8347H95.3026V82.6003C95.3026 76.6203 95.2822 76.3658 94.8736 75.8145C94.4038 75.1995 93.5662 75.0723 92.9329 75.56Z" fill="#CD323D"/>
</svg>
