<svg width="24" height="22" viewBox="0 0 24 22" fill="none" xmlns="http://www.w3.org/2000/svg">
<path d="M3.85781 0.125002C3.675 0.171877 3.44531 0.251564 3.34219 0.303125C2.39531 0.790627 1.78594 1.775 1.78125 2.82969C1.78125 3.51406 1.89844 3.81406 2.70469 5.20625L3.22031 6.09219L2.85938 6.56563C1.95938 7.76094 1.27031 9.23281 0.91875 10.6953C0.721875 11.5391 0.651563 12.0922 0.623438 13.0953C0.6 13.9672 0.590625 14.0469 0.510938 14.0469C0.389063 14.0469 0.135938 14.2766 0.065625 14.4547C0.0140625 14.5766 0 15.2375 0 17.9938C0 21.2797 0.0046875 21.3828 0.09375 21.5703C0.154688 21.6922 0.253125 21.8 0.370313 21.8656L0.553125 21.9688H10.6828H20.8172L20.9391 21.8469C21.0328 21.7531 21.0516 21.7016 21.0281 21.5797C21.0094 21.5 20.9672 21.3969 20.925 21.3594C20.8641 21.2984 19.7016 21.2891 10.7812 21.275L0.703125 21.2656V17.9844V14.7031H1.40625C2.04844 14.7031 2.11875 14.6938 2.20312 14.6094C2.34375 14.4688 2.32969 14.2203 2.175 14.0984C2.07188 14.0188 1.98281 14 1.67344 14H1.29844L1.32656 13.0953C1.35938 12.0734 1.43438 11.525 1.66406 10.6484C1.92656 9.64531 2.325 8.69375 2.83125 7.85938C3.17344 7.30156 3.55781 6.77188 3.60938 6.80469C3.62813 6.81875 3.76875 7.04375 3.91875 7.30625C4.06875 7.57344 4.24219 7.83594 4.29844 7.89219C4.46719 8.06563 4.82812 8.01875 4.95938 7.80781C5.22188 7.39063 7.14375 4.025 7.17656 3.92188C7.22813 3.77656 7.63125 3.57031 8.42344 3.28438L8.85938 3.125L9 3.40625C9.07969 3.56563 9.21094 3.88438 9.29063 4.12344C9.42188 4.50313 9.44063 4.61563 9.44531 5.07031C9.44531 5.73125 9.39844 5.82969 8.7 6.54688C8.11875 7.14219 7.98281 7.3625 7.82813 7.97188C7.71563 8.42188 7.70625 9.13438 7.80469 9.61719C7.9125 10.1281 8.19844 10.6578 8.53125 10.9672C9.06563 11.4641 9.67031 11.5719 10.7578 11.3563C11.3953 11.2297 11.8078 11.2016 11.9484 11.2813C12.0703 11.3422 12.1875 11.6656 12.1875 11.9188C12.1875 12.2234 12.0281 12.9594 11.8453 13.5078L11.6859 13.9766L7.58906 14C5.33438 14.0141 3.45938 14.0422 3.4125 14.0609C3.21094 14.1641 3.21094 14.5438 3.41719 14.6516C3.48281 14.6891 6.52031 14.7031 13.4016 14.7031H23.2969V17.9844V21.2656H22.7578C22.2422 21.2656 22.2094 21.2703 22.1016 21.3828C21.9516 21.5281 21.9469 21.7297 22.0922 21.8656C22.1953 21.9594 22.2469 21.9688 22.8234 21.9688C23.5641 21.9688 23.7469 21.9031 23.9062 21.5703C23.9953 21.3828 24 21.2797 24 17.9938C24 15.2375 23.9859 14.5766 23.9344 14.4547C23.8594 14.2719 23.6063 14.0469 23.4797 14.0469C23.3953 14.0469 23.3906 14.0047 23.3906 13.3531C23.3906 11.8109 23.0625 10.2219 22.4719 8.87188L22.2703 8.40781L22.4062 8.25313C23.0203 7.55 23.4563 6.51406 23.5219 5.59531C23.5922 4.64375 23.4563 3.90781 23.0672 3.10156C22.0406 0.996876 19.6594 -0.029686 17.4141 0.673439C16.6453 0.9125 15.9797 1.33906 15.3656 1.99063L15.0141 2.36563L14.6438 2.27656C13.8234 2.07969 12.9984 1.98594 12.0469 1.98594C11.5453 1.98594 10.9313 2.00938 10.6875 2.04219C9.66094 2.17344 8.57812 2.45 7.73906 2.79688L7.40625 2.93281V2.75938C7.40625 2.44531 7.27031 1.93438 7.09688 1.57813C6.86719 1.11406 6.3 0.5375 5.85469 0.321877C5.24531 0.0265636 4.50938 -0.0484371 3.85781 0.125002ZM5.19844 0.823439C5.59219 0.945314 5.85469 1.10938 6.12188 1.40469C6.66563 2 6.83906 2.82969 6.56719 3.54219C6.47344 3.79063 4.63594 7.01563 4.58906 7.01563C4.575 7.01563 4.41563 6.75781 4.23281 6.43906C4.05469 6.125 3.62344 5.38438 3.28125 4.78906C2.93438 4.19844 2.61563 3.58906 2.56875 3.43906C2.40469 2.91406 2.48906 2.24844 2.77969 1.75625C3.02344 1.33438 3.61406 0.893751 4.06406 0.785938C4.37813 0.710939 4.89375 0.729689 5.19844 0.823439ZM19.8516 1.27344C20.5969 1.475 21.4688 2.0375 21.9375 2.61875C22.8047 3.69688 23.0672 5.13125 22.6406 6.41094C22.1859 7.78438 21.0516 8.79688 19.6594 9.0875C18.7969 9.26563 17.8453 9.14844 17.0906 8.76406C16.0031 8.22031 15.2625 7.31563 14.9484 6.14844C14.8688 5.85781 14.8453 5.6375 14.8453 5.16406C14.8453 4.69063 14.8688 4.47031 14.9484 4.17969C15.3469 2.68906 16.5188 1.56406 18.0234 1.23125C18.4359 1.1375 19.4391 1.16094 19.8516 1.27344ZM13.3266 2.75469C13.7203 2.80156 14.5734 2.96563 14.6063 2.99844C14.6156 3.00781 14.5688 3.15313 14.5031 3.31719C14.1141 4.26406 14.0297 5.15938 14.2359 6.17188C14.2969 6.49063 14.2969 6.56563 14.2266 7.01094C14.1281 7.61094 14.1516 9.03594 14.2688 9.44844C14.4422 10.0719 14.7891 10.5219 15.3094 10.7984C15.6703 10.9906 16.0219 11.075 16.7859 11.1688C17.5547 11.2578 17.7891 11.3047 17.9813 11.4266C18.2484 11.5906 18.2859 11.6938 18.3281 12.4438C18.3516 12.8234 18.4031 13.3016 18.4406 13.5078C18.4828 13.7141 18.5156 13.9109 18.5156 13.9391C18.5156 13.9859 17.8734 14 15.4734 14H12.4266L12.5156 13.7422C12.7453 13.0813 12.8625 12.4813 12.8625 11.9609C12.8672 11.4875 12.8578 11.4219 12.7359 11.1781C12.4172 10.5313 11.9438 10.4094 10.7109 10.6531C9.73125 10.8453 9.26719 10.7703 8.90625 10.3625C8.38125 9.7625 8.27344 8.45938 8.67656 7.65781C8.73281 7.55 9.01875 7.21719 9.30938 6.91719C10.0547 6.15313 10.2094 5.7875 10.1578 4.90625C10.125 4.39063 10.0172 3.96406 9.75469 3.36875L9.57188 2.94219L9.81094 2.89531C10.9734 2.66563 12.1969 2.61406 13.3266 2.75469ZM15.5906 8.56719C17.1469 10.0484 19.4438 10.3016 21.2859 9.18594C21.6234 8.98438 21.7266 8.94219 21.7547 8.99375C21.7781 9.02656 21.8766 9.26563 21.9797 9.52344C22.4531 10.7469 22.6875 12.0172 22.6875 13.3531V14H20.9766H19.2703L19.2234 13.8219C19.125 13.4375 19.0734 13.0531 19.0266 12.3594C18.9891 11.7313 18.9656 11.6 18.8672 11.3891C18.5859 10.8172 18.1266 10.6063 16.8516 10.4656C16.0266 10.3719 15.6844 10.2594 15.3844 9.99219C15 9.64531 14.8594 9.17656 14.8594 8.21563V7.70938L15.0656 7.98125C15.1781 8.13594 15.4125 8.39844 15.5906 8.56719Z" fill="#8F8F8F"/>
<path d="M4.12497 1.75235C3.75466 1.94923 3.59529 2.19298 3.57185 2.60548C3.55779 2.84454 3.57185 2.9711 3.63747 3.10235C3.93747 3.73517 4.72966 3.91329 5.24997 3.46798C5.71872 3.06485 5.75154 2.36642 5.3156 1.93985C5.12341 1.74767 4.9406 1.66329 4.64529 1.63985C4.42029 1.6211 4.34529 1.63517 4.12497 1.75235ZM4.79997 2.42735C4.88904 2.49767 4.92185 2.56798 4.92185 2.68048C4.92185 2.84923 4.7531 3.03204 4.59372 3.03204C4.43435 3.03204 4.2656 2.84923 4.2656 2.67579C4.2656 2.36642 4.55154 2.23048 4.79997 2.42735Z" fill="#8F8F8F"/>
<path d="M18.5625 2.375C18.5016 2.43594 18.4688 2.52969 18.4688 2.64687C18.4688 2.82031 18.4547 2.83437 18.2297 2.94219C17.4938 3.28437 17.2969 4.32031 17.8594 4.83125C18.0657 5.01406 18.3891 5.19219 18.8344 5.36094C19.4203 5.58125 19.5469 5.70312 19.5469 6.05937C19.5469 6.68281 18.8157 6.97812 18.1032 6.64062C17.9391 6.56094 17.7703 6.5 17.7282 6.5C17.6157 6.50469 17.4938 6.60781 17.4469 6.73906C17.3438 7.01094 17.611 7.25937 18.1782 7.41875L18.4688 7.49844V7.68125C18.4688 7.91094 18.6 8.04688 18.8157 8.04688C19.0266 8.04688 19.1719 7.87344 19.1719 7.625C19.1719 7.46094 19.186 7.44687 19.3875 7.36719C19.6875 7.25469 20.0297 6.89375 20.1563 6.56094C20.236 6.34531 20.2547 6.21875 20.2407 5.95625C20.2032 5.34687 19.9219 5.02344 19.186 4.7375C18.6563 4.53594 18.3422 4.3625 18.2813 4.25C18.1594 4.02031 18.2907 3.66875 18.5391 3.56562C18.7875 3.4625 19.0172 3.48594 19.3407 3.64531C19.6078 3.77187 19.65 3.78125 19.7672 3.725C19.9172 3.65469 19.9969 3.47187 19.9547 3.30312C19.9172 3.16719 19.6407 2.97031 19.3688 2.88594C19.1907 2.83437 19.1719 2.81562 19.1719 2.67969C19.1719 2.45937 19.0125 2.28125 18.8157 2.28125C18.7172 2.28125 18.6188 2.31875 18.5625 2.375Z" fill="#8F8F8F"/>
<path d="M5.48906 15.7171C5.39062 15.839 5.39062 15.8859 5.39062 18.0046C5.39531 20.3155 5.39062 20.278 5.62969 20.3718C5.77031 20.4234 6.01875 20.3343 6.06563 20.2124C6.07969 20.1702 6.09375 19.1671 6.09375 17.9905C6.09375 15.8859 6.09375 15.839 5.99531 15.7171C5.925 15.628 5.85469 15.5952 5.74219 15.5952C5.62969 15.5952 5.55938 15.628 5.48906 15.7171Z" fill="#8F8F8F"/>
<path d="M7.03127 15.6879C6.92814 15.791 6.91877 16.0582 6.93752 18.9926C6.94689 20.3332 6.94689 20.3426 7.23283 20.3942C7.31721 20.4082 7.77189 20.4035 8.25002 20.3848C9.08908 20.3473 9.12658 20.3426 9.37033 20.2114C10.2094 19.752 10.3735 18.6223 9.70314 17.9332L9.48283 17.7035L9.61877 17.4364C9.80627 17.0614 9.80158 16.7004 9.60471 16.302C9.45002 15.9973 9.29064 15.8426 8.95314 15.6926C8.76564 15.6082 8.64377 15.5942 7.93596 15.5942C7.18596 15.5942 7.11564 15.6035 7.03127 15.6879ZM8.86408 16.4801C9.02346 16.6395 9.04689 16.6864 9.04689 16.8832C9.04689 17.0801 9.02346 17.127 8.86408 17.2864L8.68127 17.4692H8.16096H7.64064V16.8832V16.2973H8.16096H8.68127L8.86408 16.4801ZM8.98127 18.2614C9.38908 18.4442 9.53908 18.927 9.31408 19.3114C9.13596 19.6114 8.99533 19.6629 8.25939 19.6817L7.64064 19.6957V18.9317V18.1723H8.21721C8.67189 18.1723 8.82658 18.191 8.98127 18.2614Z" fill="#8F8F8F"/>
<path d="M12.2719 15.681C12.1828 15.7513 11.9625 16.2857 11.3438 17.9123C10.5656 19.956 10.5328 20.0592 10.5984 20.1763C10.7016 20.3638 10.8609 20.4248 11.0344 20.3545C11.1563 20.3076 11.2031 20.2326 11.3297 19.9232C11.4094 19.7217 11.4891 19.5154 11.4984 19.4685C11.5219 19.3982 11.6109 19.3888 12.5297 19.3888H13.5375L13.6875 19.806C13.8563 20.2748 13.95 20.3873 14.1609 20.3826C14.3531 20.3779 14.4844 20.2513 14.4844 20.0732C14.4844 19.8576 12.9703 15.8779 12.8297 15.7185C12.6891 15.5638 12.4453 15.5451 12.2719 15.681ZM12.9141 17.7529L13.2563 18.6623L12.5531 18.6763C12.1641 18.681 11.8406 18.681 11.8266 18.6717C11.8172 18.6623 11.9578 18.2779 12.1313 17.8138C12.3094 17.3545 12.4688 16.9326 12.4875 16.8857C12.5016 16.8388 12.5297 16.8107 12.5438 16.8201C12.5578 16.8342 12.7219 17.256 12.9141 17.7529Z" fill="#8F8F8F"/>
<path d="M15.15 15.6884L15.0469 15.7868V18.004C15.0469 20.0899 15.0516 20.2259 15.1312 20.2962C15.2578 20.4087 15.5297 20.3993 15.6375 20.2774C15.7219 20.1837 15.7266 20.0712 15.75 18.6602L15.7734 17.1368L16.8328 18.679C17.4187 19.5227 17.925 20.2399 17.9578 20.268C18.1312 20.4087 18.4359 20.3384 18.5437 20.1321C18.6141 19.9915 18.6187 19.7899 18.5906 17.8915C18.5578 15.8618 18.5531 15.8009 18.4594 15.6977C18.3234 15.5571 18.1219 15.5618 17.9672 15.7165L17.8453 15.8384L17.8781 17.3946C17.9062 18.7587 17.9016 18.9368 17.8406 18.8759C17.8031 18.8384 17.2922 18.1071 16.7062 17.2587C16.1203 16.4055 15.6094 15.6884 15.5672 15.6555C15.4547 15.5665 15.2625 15.5852 15.15 15.6884Z" fill="#8F8F8F"/>
</svg>
