<svg width="24" height="24" viewBox="0 0 24 24" fill="none" xmlns="http://www.w3.org/2000/svg">
<g clip-path="url(#clip0_920_15095)">
<path d="M15.4734 7.63316C13.1393 4.19931 10.022 2.37426 8.38946 3.4925C8.20969 3.61909 8.05348 3.77619 7.92792 3.95667C7.92792 3.96986 4.14858 11.6182 4.14858 11.6182L2.03869 13.0477C1.71479 13.2675 1.43738 13.5491 1.22232 13.8762C1.00725 14.2033 0.858737 14.5696 0.785262 14.9541C0.711787 15.3386 0.714789 15.7338 0.794097 16.1172C0.873406 16.5005 1.02747 16.8645 1.24748 17.1883L1.34242 17.3281C1.78714 17.9759 2.46932 18.4223 3.24101 18.5704C4.01269 18.7185 4.81166 18.5564 5.46462 18.1193L8.85363 23.1118C9.35209 23.7263 10.3095 24.3382 11.491 23.6182C11.7003 23.4825 11.8789 23.3044 12.0151 23.0954C12.1514 22.8865 12.2424 22.6513 12.2822 22.405C12.3299 22.1601 12.3286 21.9081 12.2784 21.6636C12.2281 21.4192 12.1299 21.1871 11.9895 20.9809L9.00396 16.5765C9.00396 16.5765 16.0615 16.0147 16.0879 16.0041C16.3083 15.958 16.5172 15.8684 16.7024 15.7404C17.5411 15.1707 17.8418 13.976 17.5517 12.3751C17.2906 10.9008 16.5495 9.2314 15.4734 7.63316ZM2.10989 16.8085L2.01495 16.6688C1.86315 16.4453 1.75692 16.1941 1.70233 15.9295C1.64775 15.6649 1.64588 15.3922 1.69683 15.1269C1.74779 14.8615 1.85056 14.6089 1.99928 14.3834C2.148 14.1578 2.33974 13.9638 2.56352 13.8125L4.38594 12.5729L6.79121 16.1149L4.9688 17.3545C4.74527 17.5065 4.49398 17.6129 4.2293 17.6677C3.96461 17.7226 3.69171 17.7247 3.42621 17.674C3.1607 17.6233 2.90779 17.5208 2.68193 17.3723C2.45606 17.2238 2.26168 17.0322 2.10989 16.8085ZM11.2299 21.5004C11.374 21.7149 11.4272 21.9778 11.3778 22.2314C11.3283 22.4851 11.1803 22.7087 10.9662 22.8534C10.7513 22.9977 10.488 23.0509 10.2339 23.0015C9.97982 22.952 9.75568 22.804 9.61055 22.5896L6.23209 17.6129L7.59033 16.6899L7.94902 16.6608L11.2299 21.5004ZM7.66418 15.7562L5.04264 11.8951L7.54286 6.79711C7.7855 8.2292 8.49495 9.9303 9.62902 11.5997C10.7631 13.2692 12.0818 14.5562 13.3213 15.3105L7.66418 15.7562ZM15.4444 15.1417C14.1837 15.06 12.1319 13.6384 10.3939 11.0776C8.65583 8.51667 8.09143 6.09294 8.47913 4.88766C8.54914 4.66143 8.68885 4.4631 8.87831 4.32101C9.06777 4.17891 9.29728 4.10032 9.53407 4.09645C10.7842 4.09645 12.9125 5.5259 14.7007 8.16063C15.7081 9.64283 16.4413 11.1936 16.6418 12.5492C17.0347 15.1417 15.4444 15.1417 15.4444 15.1417Z" fill="black"/>
<path d="M12.1768 7.73001C11.8537 7.66657 11.5212 7.66818 11.1988 7.73475C10.8764 7.80131 10.5705 7.9315 10.299 8.1177C10.2489 8.15233 10.2062 8.19649 10.1732 8.24764C10.1402 8.29879 10.1176 8.35593 10.1067 8.41581C10.0958 8.47569 10.0968 8.53713 10.1097 8.59662C10.1225 8.65611 10.147 8.71249 10.1816 8.76253C10.2162 8.81258 10.2604 8.85532 10.3115 8.8883C10.3627 8.92128 10.4198 8.94387 10.4797 8.95477C10.5396 8.96566 10.601 8.96466 10.6605 8.95181C10.72 8.93897 10.7764 8.91453 10.8264 8.8799C10.9984 8.76318 11.1917 8.68147 11.3952 8.63945C11.5987 8.59742 11.8086 8.59589 12.0127 8.63496C12.2168 8.67402 12.4112 8.7529 12.5849 8.86711C12.7585 8.98131 12.908 9.1286 13.0247 9.30056C13.1414 9.47252 13.2231 9.66578 13.2651 9.86932C13.3072 10.0729 13.3087 10.2827 13.2696 10.4868C13.2306 10.6909 13.1517 10.8854 13.0375 11.059C12.9233 11.2326 12.776 11.3821 12.604 11.4988C12.5229 11.5548 12.4619 11.6353 12.4298 11.7284C12.3978 11.8216 12.3964 11.9226 12.4259 12.0166C12.4554 12.1107 12.5141 12.1928 12.5937 12.251C12.6732 12.3092 12.7692 12.3404 12.8678 12.3401C12.9618 12.3419 13.054 12.3142 13.1315 12.261C13.5417 11.9831 13.8602 11.5897 14.0467 11.1307C14.2331 10.6716 14.2791 10.1676 14.1789 9.68235C14.0786 9.19712 13.8366 8.75258 13.4834 8.40502C13.1303 8.05747 12.682 7.82254 12.1952 7.73001H12.1768Z" fill="black"/>
<path d="M16.0431 4.42376H16.088C16.2021 4.42371 16.3122 4.38136 16.397 4.30489C16.4817 4.22841 16.5351 4.12324 16.5469 4.00969L16.9029 0.549472C16.911 0.488286 16.9068 0.426096 16.8904 0.366583C16.8741 0.307069 16.8459 0.25144 16.8077 0.202987C16.7695 0.154534 16.7219 0.114241 16.6678 0.084493C16.6137 0.0547446 16.5543 0.0361447 16.4929 0.0297937C16.4315 0.0234428 16.3694 0.0294698 16.3104 0.0475183C16.2514 0.0655667 16.1966 0.0952699 16.1492 0.134871C16.1019 0.174471 16.063 0.223165 16.0348 0.27807C16.0066 0.332976 15.9897 0.392978 15.9851 0.454527L15.6317 3.91738C15.6192 4.03908 15.6555 4.16078 15.7326 4.25573C15.8098 4.35068 15.9214 4.41112 16.0431 4.42376Z" fill="black"/>
<path d="M22.0088 3.71149C21.9411 3.60934 21.8357 3.53814 21.7156 3.51343C21.5955 3.48873 21.4706 3.51252 21.368 3.57962L18.153 5.68951C18.0695 5.74463 18.0062 5.82538 17.9726 5.91961C17.939 6.01383 17.9369 6.11642 17.9667 6.21193C17.9964 6.30744 18.0564 6.3907 18.1376 6.44917C18.2188 6.50763 18.3167 6.53814 18.4168 6.5361C18.5101 6.53825 18.6019 6.51254 18.6805 6.46226L21.8954 4.35237C21.9952 4.28219 22.0631 4.1754 22.0843 4.05532C22.1056 3.93524 22.0784 3.81162 22.0088 3.71149Z" fill="black"/>
<path d="M22.9925 9.34388L19.2527 8.67135C19.1321 8.64967 19.0077 8.6768 18.9071 8.74679C18.8064 8.81678 18.7377 8.92388 18.716 9.04454C18.6943 9.1652 18.7215 9.28953 18.7915 9.39018C18.8615 9.49083 18.9686 9.55956 19.0892 9.58124L22.8264 10.2538H22.9081C23.0257 10.2572 23.1402 10.2156 23.2281 10.1375C23.3161 10.0593 23.3709 9.95056 23.3813 9.83338C23.3918 9.7162 23.3571 9.59945 23.2843 9.507C23.2115 9.41455 23.1062 9.35337 22.9899 9.33597L22.9925 9.34388Z" fill="black"/>
</g>
<defs>
<clipPath id="clip0_920_15095">
<rect width="24" height="24" fill="white"/>
</clipPath>
</defs>
</svg>
