<svg width="18" height="18" viewBox="0 0 18 18" fill="none" xmlns="http://www.w3.org/2000/svg">
<path d="M8.99993 10.3144C9.39445 10.3144 9.77399 10.2503 10.1287 10.1319C11.543 9.65979 12.5624 8.3249 12.5624 6.7519C12.5624 4.78439 10.9674 3.1894 8.99993 3.1894C8.98456 3.1894 8.96921 3.1895 8.95389 3.1897C8.72401 3.19261 8.49938 3.21729 8.28197 3.26178C6.65858 3.59396 5.43741 5.03032 5.43741 6.75191C5.43741 8.71942 7.03242 10.3144 8.99993 10.3144Z" fill="#8F8F8F"/>
<path fill-rule="evenodd" clip-rule="evenodd" d="M8.78609 0.774837C8.92856 0.767763 9.0713 0.767763 9.21378 0.774837C9.7638 0.802144 10.2702 0.961962 10.8347 1.22392C11.3842 1.47894 12.0228 1.84762 12.8307 2.31406L12.8764 2.34046C13.6843 2.80689 14.3229 3.17558 14.8185 3.52399C15.3276 3.88187 15.7192 4.2405 16.0179 4.70317C16.0952 4.82302 16.1666 4.94664 16.2317 5.07357C16.4831 5.56355 16.5978 6.08199 16.6532 6.70184C16.7072 7.30526 16.7071 8.04261 16.7071 8.97545V9.02831C16.7071 9.96115 16.7072 10.6986 16.6532 11.302C16.5978 11.9218 16.4831 12.4403 16.2317 12.9302C16.1666 13.0572 16.0952 13.1808 16.0179 13.3006C15.6539 13.8645 15.1504 14.2753 14.4655 14.7167C14.031 14.9967 13.5014 15.3025 12.8648 15.6701L12.8307 15.6897C12.0228 16.1562 11.3842 16.5249 10.8347 16.7799C10.2702 17.0418 9.7638 17.2017 9.21378 17.229C9.0713 17.236 8.92856 17.236 8.78609 17.229C8.23607 17.2017 7.72969 17.0418 7.1652 16.7799C6.61565 16.5249 5.97708 16.1562 5.16919 15.6897L5.13559 15.6703C4.50491 15.3062 3.9793 15.0028 3.54727 14.725C2.85576 14.2805 2.34821 13.8679 1.98201 13.3006C1.90464 13.1808 1.83327 13.0572 1.76816 12.9302C1.5168 12.4403 1.40202 11.9218 1.34663 11.302C1.29272 10.6985 1.29272 9.96118 1.29272 9.02832V8.97549C1.29272 8.04263 1.29272 7.30527 1.34663 6.70184C1.40202 6.08199 1.5168 5.56355 1.76816 5.07357C1.83327 4.94664 1.90464 4.82303 1.98201 4.70317C2.28067 4.2405 2.67226 3.88187 3.18137 3.52399C3.67699 3.17558 4.31557 2.8069 5.12345 2.34047L5.16921 2.31406C5.97708 1.84762 6.61566 1.47894 7.1652 1.22392C7.72969 0.961962 8.23607 0.802144 8.78609 0.774837ZM9.15799 1.89845C9.05269 1.89322 8.94718 1.89322 8.84187 1.89845C8.48725 1.91606 8.12768 2.01751 7.63876 2.24439C7.14007 2.47581 6.54462 2.819 5.70883 3.30154C4.87304 3.78409 4.27811 4.12817 3.82835 4.44434C3.38739 4.75431 3.11975 5.01499 2.92719 5.31329C2.87001 5.40188 2.81726 5.49325 2.76913 5.58706C2.60707 5.90298 2.51514 6.2651 2.46717 6.80196C2.41824 7.34955 2.41772 8.03681 2.41772 9.0019C2.41772 9.967 2.41824 10.6543 2.46717 11.2018C2.51514 11.7387 2.60707 12.1008 2.76913 12.4167C2.81726 12.5106 2.87001 12.6019 2.92719 12.6905C3.0808 12.9285 3.28148 13.1418 3.57971 13.3755C4.17052 12.2261 5.36782 11.4394 6.74993 11.4394H11.2499C12.6321 11.4394 13.8294 12.2262 14.4202 13.3755C14.7184 13.1418 14.9191 12.9284 15.0727 12.6905C15.1299 12.6019 15.1826 12.5106 15.2307 12.4167C15.3928 12.1008 15.4847 11.7387 15.5327 11.2018C15.5816 10.6543 15.5821 9.967 15.5821 9.0019C15.5821 8.03681 15.5816 7.34955 15.5327 6.80196C15.4847 6.2651 15.3928 5.90298 15.2307 5.58706C15.1826 5.49325 15.1299 5.40188 15.0727 5.31329C14.8801 5.01499 14.6125 4.75431 14.1715 4.44434C13.7218 4.12817 13.1268 3.78409 12.291 3.30154C11.4552 2.819 10.8598 2.47581 10.3611 2.24439C9.87219 2.01751 9.51261 1.91606 9.15799 1.89845Z" fill="#8F8F8F"/>
</svg>
