<svg width="18" height="18" viewBox="0 0 18 18" fill="none" xmlns="http://www.w3.org/2000/svg">
<g clip-path="url(#clip0_945_12171)">
<path d="M16.0607 7.34375H9.2825C8.21312 7.34375 7.34314 8.21373 7.34314 9.28311V12.9657L5.58698 14.2201C5.44841 14.319 5.36615 14.4788 5.36615 14.6491C5.36615 14.8195 5.44841 14.9794 5.58698 15.0783L7.36429 16.3477C7.50313 17.2818 8.31049 18.0008 9.2825 18.0008H16.0607C17.13 18.0008 18 17.1308 18 16.0613V9.28311C18 8.21373 17.13 7.34375 16.0607 7.34375ZM13.7815 14.7538C13.6573 14.7538 13.5613 14.7143 13.5331 14.6069L13.3183 13.8556H12.0247L11.8102 14.6069C11.7819 14.7143 11.6859 14.7538 11.5616 14.7538C11.3639 14.7538 11.0984 14.6296 11.0984 14.4489C11.0984 14.4375 11.104 14.415 11.1097 14.3923L12.1999 10.8393C12.2507 10.6699 12.4597 10.5906 12.6688 10.5906C12.8834 10.5906 13.0924 10.6699 13.1432 10.8393L14.2335 14.3923C14.2391 14.415 14.2448 14.4319 14.2448 14.4489C14.2448 14.6238 13.9793 14.7538 13.7815 14.7538Z" fill="#8F8F8F"/>
<path d="M12.1772 13.277H13.1602L12.6686 11.543L12.1772 13.277Z" fill="#8F8F8F"/>
<path d="M6.28844 9.28235C6.28844 8.57428 6.53604 7.92334 6.94844 7.41014C6.3468 7.41014 5.78856 7.22186 5.32837 6.90202C4.86818 7.222 4.30994 7.41014 3.70816 7.41014C3.54405 7.41014 3.41084 7.27693 3.41084 7.11269C3.41084 6.94844 3.54405 6.81537 3.70816 6.81537C4.12962 6.81537 4.52403 6.69864 4.86172 6.49649C4.45441 6.0569 4.18359 5.48932 4.11809 4.86118H3.7083C3.54405 4.86118 3.41084 4.7281 3.41084 4.56386C3.41084 4.39961 3.54405 4.2664 3.7083 4.2664H5.03119V3.54433C5.03119 3.37994 5.16426 3.24687 5.32851 3.24687C5.49275 3.24687 5.62582 3.37994 5.62582 3.54433V4.2664H6.94872C7.11296 4.2664 7.24617 4.39961 7.24617 4.56386C7.24617 4.7281 7.11296 4.86118 6.94872 4.86118H6.53893C6.47342 5.48932 6.20261 6.0569 5.79529 6.49649C6.13284 6.69891 6.52739 6.81537 6.94872 6.81537C7.10568 6.81537 7.23395 6.93704 7.24507 7.09126C7.77997 6.59358 8.49614 6.2883 9.28262 6.2883H10.657V5.03503L12.4132 3.78067C12.5516 3.68179 12.6339 3.52194 12.6339 3.35165C12.6339 3.18123 12.5516 3.02138 12.4132 2.9225L10.6359 1.65303C10.4969 0.718918 9.68953 0 8.71751 0H1.9395C0.86998 0 0 0.86998 0 1.93936V8.71765C0 9.78703 0.86998 10.657 1.9395 10.657H6.28844V9.28235Z" fill="#8F8F8F"/>
<path d="M5.32838 6.12294C5.65385 5.78525 5.87482 5.34676 5.9395 4.85938H4.71741C4.78209 5.34676 5.00319 5.78525 5.32838 6.12294Z" fill="#8F8F8F"/>
</g>
<defs>
<clipPath id="clip0_945_12171">
<rect width="18" height="18" fill="white"/>
</clipPath>
</defs>
</svg>
