<svg width="18" height="18" viewBox="0 0 18 18" fill="none" xmlns="http://www.w3.org/2000/svg">
<path fill-rule="evenodd" clip-rule="evenodd" d="M16.5 9C16.5 13.1421 13.1421 16.5 9 16.5C4.85786 16.5 1.5 13.1421 1.5 9C1.5 4.85786 4.85786 1.5 9 1.5C13.1421 1.5 16.5 4.85786 16.5 9ZM9 7.6875C9.31066 7.6875 9.5625 7.93934 9.5625 8.25V12.75C9.5625 13.0607 9.31066 13.3125 9 13.3125C8.68934 13.3125 8.4375 13.0607 8.4375 12.75V8.25C8.4375 7.93934 8.68934 7.6875 9 7.6875ZM9 6.75C9.41421 6.75 9.75 6.41421 9.75 6C9.75 5.58579 9.41421 5.25 9 5.25C8.58579 5.25 8.25 5.58579 8.25 6C8.25 6.41421 8.58579 6.75 9 6.75Z" fill="#8F8F8F"/>
</svg>
