<svg width="18" height="18" viewBox="0 0 18 18" fill="none" xmlns="http://www.w3.org/2000/svg">
<path d="M8.06253 7.5C8.06253 6.98223 8.48226 6.5625 9.00003 6.5625C9.5178 6.5625 9.93753 6.98223 9.93753 7.5C9.93753 8.01777 9.5178 8.4375 9.00003 8.4375C8.48226 8.4375 8.06253 8.01777 8.06253 7.5Z" fill="#8F8F8F"/>
<path fill-rule="evenodd" clip-rule="evenodd" d="M5.0785 3.03125C5.0785 1.8749 6.0159 0.9375 7.17225 0.9375H11.0468C12.0823 0.9375 12.9218 1.77697 12.9218 2.8125C12.9218 3.22671 13.2575 3.5625 13.6718 3.5625H14.1138C15.3024 3.5625 16.3478 4.48499 16.2994 5.74921C16.2373 7.37 15.9225 9.96983 14.66 12.2706C14.3178 12.8943 13.8607 13.5069 13.3667 14.0777L13.3295 14.1207C12.6187 14.942 12.0261 15.6267 11.389 16.0934C10.7037 16.5955 9.97235 16.8455 9.00013 16.8455C8.02791 16.8455 7.29652 16.5955 6.61126 16.0934C5.97415 15.6267 5.38154 14.942 4.67078 14.1207L4.63359 14.0777C4.13951 13.5069 3.68247 12.8943 3.34025 12.2706C2.11839 10.0439 1.7834 7.69312 1.70725 6.18486C1.64312 4.91454 2.69606 4 3.8781 4H4.10975C4.64478 4 5.0785 3.56628 5.0785 3.03125ZM9.00003 5.4375C7.86094 5.4375 6.93753 6.36091 6.93753 7.5C6.93753 8.44408 7.57184 9.24002 8.43753 9.48486V12C8.43753 12.3107 8.68937 12.5625 9.00003 12.5625C9.31069 12.5625 9.56253 12.3107 9.56253 12V9.48486C10.4282 9.24001 11.0625 8.44408 11.0625 7.5C11.0625 6.36091 10.1391 5.4375 9.00003 5.4375Z" fill="#8F8F8F"/>
</svg>
