<svg width="18" height="18" viewBox="0 0 18 18" fill="none" xmlns="http://www.w3.org/2000/svg">
<path fill-rule="evenodd" clip-rule="evenodd" d="M16.0913 3.54754C16.5 4.3497 16.5 5.3998 16.5 7.5V8.38816C16.5 9.65502 16.5 10.2884 16.3485 10.8051C15.9891 12.0307 15.0307 12.9891 13.8051 13.3485C13.2884 13.5 12.655 13.5 11.3882 13.5H10.9766L10.9277 13.5001C10.1626 13.505 9.41718 13.7438 8.79168 14.1846L8.75191 14.2129L6.79386 15.6115C6.12262 16.091 5.24057 15.3986 5.54693 14.6327C5.76394 14.0902 5.36438 13.5 4.78006 13.5H4.32874C2.76647 13.5 1.5 12.2335 1.5 10.6713V7.5C1.5 5.3998 1.5 4.3497 1.90873 3.54754C2.26825 2.84193 2.84193 2.26825 3.54754 1.90873C4.3497 1.5 5.3998 1.5 7.5 1.5H10.5C12.6002 1.5 13.6503 1.5 14.4525 1.90873C15.1581 2.26825 15.7317 2.84193 16.0913 3.54754ZM9.60025 4.92972C10.2279 4.5316 11.2415 4.15512 12.1168 5.04777C14.1947 7.16676 10.6313 11.25 9.00001 11.25C7.3687 11.25 3.80532 7.16676 5.8832 5.04777C6.75852 4.15513 7.77211 4.5316 8.39973 4.92972C8.75437 5.15468 9.24562 5.15468 9.60025 4.92972Z" fill="#8F8F8F"/>
</svg>
