<svg width="18" height="18" viewBox="0 0 18 18" fill="none" xmlns="http://www.w3.org/2000/svg">
<path d="M8.0625 9.75C8.0625 9.23223 8.48223 8.8125 9 8.8125C9.51777 8.8125 9.9375 9.23223 9.9375 9.75C9.9375 10.2678 9.51777 10.6875 9 10.6875C8.48223 10.6875 8.0625 10.2678 8.0625 9.75Z" fill="#8F8F8F"/>
<path fill-rule="evenodd" clip-rule="evenodd" d="M9 0.9375C6.61827 0.9375 4.6875 2.86827 4.6875 5.25V6.08529C4.6875 6.13539 4.69405 6.18397 4.70634 6.2302C3.62927 6.62597 2.78975 7.49489 2.43354 8.59119C2.25 9.15606 2.25 9.85404 2.25 11.25C2.25 12.646 2.25 13.3439 2.43354 13.9088C2.80448 15.0505 3.69954 15.9455 4.84119 16.3165C5.40606 16.5 6.10403 16.5 7.49998 16.5H10.5C11.8959 16.5 12.5939 16.5 13.1588 16.3165C14.3005 15.9455 15.1955 15.0505 15.5665 13.9088C15.75 13.3439 15.75 12.646 15.75 11.25C15.75 9.85404 15.75 9.15606 15.5665 8.59119C15.2103 7.49489 14.3707 6.62597 13.2937 6.2302C13.3059 6.18397 13.3125 6.13539 13.3125 6.08529V5.25C13.3125 2.86827 11.3817 0.9375 9 0.9375ZM10.5 6C11.224 6 11.7602 6 12.1875 6.0256V5.25C12.1875 3.48959 10.7604 2.0625 9 2.0625C7.23959 2.0625 5.8125 3.48959 5.8125 5.25V6.0256C6.2398 6 6.77603 6 7.5 6H10.5ZM6.9375 9.75C6.9375 8.61091 7.86091 7.6875 9 7.6875C10.1391 7.6875 11.0625 8.61091 11.0625 9.75C11.0625 10.6941 10.4282 11.49 9.5625 11.7349V14.25C9.5625 14.5607 9.31066 14.8125 9 14.8125C8.68934 14.8125 8.4375 14.5607 8.4375 14.25V11.7349C7.57181 11.49 6.9375 10.6941 6.9375 9.75Z" fill="#8F8F8F"/>
</svg>
