<svg width="130" height="203" viewBox="0 0 130 203" fill="none" xmlns="http://www.w3.org/2000/svg">
<g filter="url(#filter0_d_1263_21861)">
<rect x="20" y="16" width="90" height="163" rx="5" fill="black"/>
</g>
<rect x="21" y="99" width="29" height="39" fill="#9F64CE"/>
<rect x="51" y="99" width="29" height="39" fill="#EE1C24"/>
<rect x="81" y="99" width="28" height="39" fill="#00BEF7"/>
<path d="M21 139H50V178H26C23.2386 178 21 175.761 21 173V139Z" fill="#D9D9D9"/>
<rect x="51" y="139" width="29" height="39" fill="#8F8F8F"/>
<path d="M81 139H109V173C109 175.761 106.761 178 104 178H81V139Z" fill="black"/>
<circle cx="65.5" cy="42.5" r="12.5" fill="white" fill-opacity="0.5"/>
<rect x="43" y="62" width="44" height="5" rx="2" fill="white" fill-opacity="0.5"/>
<rect x="53" y="72" width="24" height="5" rx="2" fill="white" fill-opacity="0.5"/>
<path d="M61.842 40.83V45H61.158V42.144L59.886 45H59.412L58.134 42.144V45H57.45V40.83H58.188L59.652 44.1L61.11 40.83H61.842ZM62.925 41.382V42.606H64.365V43.164H62.925V44.442H64.545V45H62.241V40.824H64.545V41.382H62.925ZM69.2795 40.83V45H68.5955V42.144L67.3235 45H66.8495L65.5715 42.144V45H64.8875V40.83H65.6255L67.0895 44.1L68.5475 40.83H69.2795ZM71.5805 45.042C71.1925 45.042 70.8345 44.952 70.5065 44.772C70.1825 44.588 69.9245 44.334 69.7325 44.01C69.5445 43.682 69.4505 43.314 69.4505 42.906C69.4505 42.498 69.5445 42.132 69.7325 41.808C69.9245 41.484 70.1825 41.232 70.5065 41.052C70.8345 40.868 71.1925 40.776 71.5805 40.776C71.9725 40.776 72.3305 40.868 72.6545 41.052C72.9825 41.232 73.2405 41.484 73.4285 41.808C73.6165 42.132 73.7105 42.498 73.7105 42.906C73.7105 43.314 73.6165 43.682 73.4285 44.01C73.2405 44.334 72.9825 44.588 72.6545 44.772C72.3305 44.952 71.9725 45.042 71.5805 45.042ZM71.5805 44.448C71.8565 44.448 72.1025 44.386 72.3185 44.262C72.5345 44.134 72.7025 43.954 72.8225 43.722C72.9465 43.486 73.0085 43.214 73.0085 42.906C73.0085 42.598 72.9465 42.328 72.8225 42.096C72.7025 41.864 72.5345 41.686 72.3185 41.562C72.1025 41.438 71.8565 41.376 71.5805 41.376C71.3045 41.376 71.0585 41.438 70.8425 41.562C70.6265 41.686 70.4565 41.864 70.3325 42.096C70.2125 42.328 70.1525 42.598 70.1525 42.906C70.1525 43.214 70.2125 43.486 70.3325 43.722C70.4565 43.954 70.6265 44.134 70.8425 44.262C71.0585 44.386 71.3045 44.448 71.5805 44.448Z" fill="white"/>
<defs>
<filter id="filter0_d_1263_21861" x="0" y="0" width="130" height="203" filterUnits="userSpaceOnUse" color-interpolation-filters="sRGB">
<feFlood flood-opacity="0" result="BackgroundImageFix"/>
<feColorMatrix in="SourceAlpha" type="matrix" values="0 0 0 0 0 0 0 0 0 0 0 0 0 0 0 0 0 0 127 0" result="hardAlpha"/>
<feOffset dy="4"/>
<feGaussianBlur stdDeviation="10"/>
<feComposite in2="hardAlpha" operator="out"/>
<feColorMatrix type="matrix" values="0 0 0 0 0 0 0 0 0 0 0 0 0 0 0 0 0 0 0.07 0"/>
<feBlend mode="normal" in2="BackgroundImageFix" result="effect1_dropShadow_1263_21861"/>
<feBlend mode="normal" in="SourceGraphic" in2="effect1_dropShadow_1263_21861" result="shape"/>
</filter>
</defs>
</svg>
