<svg width="24" height="24" viewBox="0 0 24 24" fill="none" xmlns="http://www.w3.org/2000/svg">
<path d="M6 21.5001H18C18.3283 21.5001 18.6534 21.4354 18.9567 21.3098C19.26 21.1841 19.5356 21 19.7678 20.7678C19.9999 20.5357 20.1841 20.2601 20.3097 19.9568C20.4353 19.6535 20.5 19.3284 20.5 19.0001V11.2301C20.8138 10.9494 21.0651 10.6057 21.2374 10.2215C21.4097 9.83732 21.4991 9.42115 21.5 9.00008V8.50008C21.5019 8.44728 21.4934 8.39462 21.475 8.34508L19.975 4.16008C19.8005 3.671 19.4781 3.24838 19.0525 2.95091C18.6269 2.65343 18.1192 2.49586 17.6 2.50008H6.4C5.88681 2.49993 5.38601 2.65771 4.96559 2.952C4.54518 3.2463 4.22551 3.66284 4.05 4.14508L2.55 8.33008C2.52099 8.38236 2.50391 8.44042 2.5 8.50008V9.00008C2.50085 9.42115 2.59033 9.83732 2.76262 10.2215C2.93491 10.6057 3.18615 10.9494 3.5 11.2301V19.0001C3.5 19.6631 3.76339 20.299 4.23223 20.7678C4.70107 21.2367 5.33696 21.5001 6 21.5001ZM14.5 20.5001H9.5V16.0001C9.5 15.8675 9.55268 15.7403 9.64645 15.6465C9.74022 15.5528 9.86739 15.5001 10 15.5001H14C14.1326 15.5001 14.2598 15.5528 14.3536 15.6465C14.4473 15.7403 14.5 15.8675 14.5 16.0001V20.5001ZM18.5 11.0001H17.5C16.9696 11.0001 16.4609 10.7894 16.0858 10.4143C15.7107 10.0392 15.5 9.53052 15.5 9.00008H20.5C20.5 9.53052 20.2893 10.0392 19.9142 10.4143C19.5391 10.7894 19.0304 11.0001 18.5 11.0001ZM17.6 3.50008C17.9078 3.503 18.2072 3.60052 18.4576 3.77941C18.7081 3.95831 18.8974 4.20991 19 4.50008L20.275 8.00008H15.415L14.6 3.50008H17.6ZM10.415 3.50008H13.585L14.4 8.00008H9.6L10.415 3.50008ZM14.5 9.00008C14.5 9.53052 14.2893 10.0392 13.9142 10.4143C13.5391 10.7894 13.0304 11.0001 12.5 11.0001H11.5C10.9696 11.0001 10.4609 10.7894 10.0858 10.4143C9.71071 10.0392 9.5 9.53052 9.5 9.00008H14.5ZM11.5 12.0001H12.5C12.9954 11.9997 13.4829 11.8767 13.9192 11.642C14.3554 11.4073 14.7267 11.0682 15 10.6551C15.2733 11.0682 15.6446 11.4073 16.0808 11.642C16.5171 11.8767 17.0046 11.9997 17.5 12.0001H18.5C18.8409 11.999 19.179 11.9398 19.5 11.8251V19.0001C19.5 19.3979 19.342 19.7794 19.0607 20.0607C18.7794 20.342 18.3978 20.5001 18 20.5001H15.5V16.0001C15.5 15.6023 15.342 15.2207 15.0607 14.9394C14.7794 14.6581 14.3978 14.5001 14 14.5001H10C9.60218 14.5001 9.22064 14.6581 8.93934 14.9394C8.65804 15.2207 8.5 15.6023 8.5 16.0001V20.5001H6C5.60218 20.5001 5.22064 20.342 4.93934 20.0607C4.65804 19.7794 4.5 19.3979 4.5 19.0001V11.8251C4.82097 11.9398 5.15915 11.999 5.5 12.0001H6.5C6.99536 11.9997 7.48292 11.8767 7.91916 11.642C8.3554 11.4073 8.72673 11.0682 9 10.6551C9.27327 11.0682 9.64461 11.4073 10.0808 11.642C10.5171 11.8767 11.0046 11.9997 11.5 12.0001ZM5 4.50008C5.10258 4.20991 5.29193 3.95831 5.54238 3.77941C5.79283 3.60052 6.09224 3.503 6.4 3.50008H9.4L8.585 8.00008H3.715L5 4.50008ZM8.5 9.00008C8.5 9.53052 8.28929 10.0392 7.91421 10.4143C7.53914 10.7894 7.03043 11.0001 6.5 11.0001H5.5C4.96957 11.0001 4.46086 10.7894 4.08579 10.4143C3.71071 10.0392 3.5 9.53052 3.5 9.00008H8.5Z" fill="black"/>
</svg>
