<svg width="24" height="22" viewBox="0 0 24 22" fill="none" xmlns="http://www.w3.org/2000/svg">
<path d="M22.9091 5.4715H19.5948L20.6891 1.39038C20.8451 0.808907 20.5003 0.210052 19.9178 0.0540461C19.3353 -0.10196 18.7363 0.24381 18.5815 0.825286L17.3368 5.4715H9.58907L10.6833 1.39038C10.8393 0.808907 10.4945 0.210052 9.91207 0.0540461C9.32939 -0.100761 8.73173 0.24381 8.57673 0.825286L7.33088 5.4715H3.27273C2.67048 5.4715 2.18188 5.9591 2.18188 6.56235C2.18188 7.1658 2.67048 7.65339 3.27273 7.65339H6.74501L4.98979 14.1988H1.09084C0.488792 14.1988 0 14.6864 0 15.2897C0 15.8929 0.488792 16.3805 1.09084 16.3805H4.40512L3.31088 20.4616C3.15487 21.0431 3.49965 21.642 4.08212 21.798C4.176 21.8232 4.27089 21.8351 4.36357 21.8351C4.84477 21.8351 5.28662 21.5143 5.41646 21.0267L6.66331 16.3805H14.4109L13.3166 20.4616C13.1608 21.0431 13.5054 21.642 14.0881 21.798C14.1818 21.8232 14.2766 21.8351 14.3705 21.8351C14.8517 21.8351 15.2934 21.5143 15.4232 21.0267L16.6691 16.3805H20.7272C21.3295 16.3805 21.8182 15.8929 21.8182 15.2897C21.8182 14.6864 21.3295 14.1988 20.7272 14.1988H17.2549L19.0101 7.65339H22.9091C23.5113 7.65339 23.9999 7.1658 23.9999 6.56235C23.9999 5.9591 23.5113 5.4715 22.9091 5.4715V5.4715ZM14.9955 14.1988H7.24798L9.0032 7.65339H16.751L14.9955 14.1988Z" fill="#8F8F8F"/>
</svg>
