<svg width="27" height="27" viewBox="0 0 27 27" fill="none" xmlns="http://www.w3.org/2000/svg">
<path d="M10.2766 23.37V19.9301C10.2766 19.052 10.9937 18.3401 11.8782 18.3401H15.1117C15.5365 18.3401 15.9438 18.5076 16.2442 18.8058C16.5446 19.104 16.7133 19.5084 16.7133 19.9301V23.37C16.7106 23.7351 16.8548 24.0861 17.1139 24.3452C17.373 24.6043 17.7256 24.75 18.0933 24.75H20.2993C21.3296 24.7526 22.3186 24.3482 23.0481 23.6259C23.7775 22.9036 24.1875 21.9229 24.1875 20.9001V11.1002C24.1875 10.274 23.8186 9.49032 23.1802 8.96025L15.6758 3.01035C14.3704 1.96713 12.5 2.00081 11.2336 3.09035L3.90039 8.96025C3.23183 9.4747 2.83225 10.2607 2.8125 11.1002V20.8901C2.8125 23.0218 4.5533 24.75 6.7007 24.75H8.85633C9.62013 24.75 10.2409 24.1382 10.2464 23.38L10.2766 23.37Z" fill="black"/>
</svg>
