<svg width="23" height="23" viewBox="0 0 23 23" fill="none" xmlns="http://www.w3.org/2000/svg">
<path fill-rule="evenodd" clip-rule="evenodd" d="M20.8818 6.61636C21.6356 7.20024 22.098 8.06761 22.1767 9.01149L22.188 9.23761V18.3602C22.188 20.7115 20.3306 22.624 18.003 22.7477H15.7642C14.6943 22.7264 13.8292 21.8939 13.7505 20.8476L13.7392 20.689V17.4726C13.7392 17.1227 13.4793 16.8314 13.1317 16.774L13.0305 16.7627H10.0256C9.66671 16.774 9.37421 17.0327 9.32921 17.3702L9.31796 17.4726V20.6789C9.31796 20.7452 9.30558 20.824 9.29546 20.8802L9.28421 20.9039L9.27183 20.9815C9.13796 21.9389 8.35046 22.669 7.37171 22.7376L7.22546 22.7477H5.21171C2.86046 22.7477 0.936708 20.9039 0.812958 18.5852V9.23761C0.823083 8.28024 1.24046 7.39149 1.93796 6.77274L8.94671 1.13649C10.3755 0.00136197 12.378 -0.0436381 13.8506 1.00149L14.0317 1.13649L20.8818 6.61636ZM20.6118 18.5402L20.6242 18.3602V9.24774C20.6118 8.76511 20.4105 8.31399 20.0617 7.97761L19.9155 7.85274L13.053 2.36274C12.198 1.67649 10.983 1.64386 10.083 2.23899L9.91308 2.36274L3.07308 7.87636C2.68046 8.16774 2.44421 8.60649 2.38796 9.06774L2.37558 9.24774V18.3602C2.37558 19.8565 3.54558 21.0827 5.03171 21.1727H7.22546C7.47296 21.1727 7.68671 21.0051 7.71933 20.7689L7.74296 20.5664L7.75421 20.509V17.4726C7.75421 16.2689 8.67671 15.2901 9.85796 15.199H13.0305C14.2331 15.199 15.2118 16.1226 15.303 17.3039V20.689C15.303 20.9252 15.4717 21.1289 15.6967 21.1727H17.7881C19.2956 21.1727 20.5218 20.0151 20.6118 18.5402Z" fill="#200E32"/>
</svg>
