<svg width="14" height="14" viewBox="0 0 14 14" fill="none" xmlns="http://www.w3.org/2000/svg">
<path fill-rule="evenodd" clip-rule="evenodd" d="M3.96633 14H10.033C12.4062 14 14 12.3353 14 9.85829V4.1417C14 1.66468 12.4062 0 10.0337 0H3.96633C1.59383 0 0 1.66468 0 4.1417V9.85829C0 12.3353 1.59383 14 3.96633 14ZM4.54901 6.30128C3.58395 6.30128 2.7998 5.51607 2.7998 4.55128C2.7998 3.5865 3.58395 2.80128 4.54901 2.80128C5.51335 2.80128 6.29821 3.5865 6.29821 4.55128C6.29821 5.51607 5.51335 6.30128 4.54901 6.30128ZM12.4742 9.05409C12.7086 9.65512 12.5868 10.3775 12.3362 10.9728C12.0392 11.6807 11.4704 12.2167 10.7538 12.4508C10.4357 12.5548 10.102 12.6003 9.76908 12.6003H3.86966C3.2826 12.6003 2.76312 12.4595 2.33726 12.1972C2.07048 12.0325 2.02332 11.6525 2.22112 11.4062C2.55195 10.9944 2.87856 10.5812 3.20799 10.1644C3.83587 9.36689 4.25892 9.13572 4.72913 9.33871C4.91989 9.42251 5.11135 9.54821 5.30844 9.68113C5.83355 10.038 6.5635 10.5285 7.52503 9.99609C8.18303 9.62756 8.56467 8.99541 8.89701 8.44493L8.90257 8.43572C8.92612 8.3971 8.94946 8.35848 8.97274 8.31997C9.08443 8.13516 9.19462 7.95283 9.31928 7.78484C9.47555 7.57463 10.0549 6.91725 10.8052 7.38536C11.2832 7.6801 11.6851 8.07886 12.1152 8.50579C12.2792 8.66905 12.396 8.85471 12.4742 9.05409Z" fill="white"/>
</svg>
