<svg width="24" height="24" viewBox="0 0 24 24" fill="none" xmlns="http://www.w3.org/2000/svg">
<path fill-rule="evenodd" clip-rule="evenodd" d="M5.42859 5.14453C4.32402 5.14453 3.42859 6.03996 3.42859 7.14453V16.8588C3.42859 17.9634 4.32402 18.8588 5.42859 18.8588H9.42859L11.2 21.2207C11.6 21.7541 12.4 21.7541 12.8 21.2207L14.5714 18.8588H18.5714C19.676 18.8588 20.5714 17.9634 20.5714 16.8588V7.14453C20.5714 6.03996 19.676 5.14453 18.5714 5.14453H5.42859ZM9.07145 11.1445C8.7953 11.1445 8.57145 11.3684 8.57145 11.6445V12.3588C8.57145 12.635 8.7953 12.8588 9.07145 12.8588H14.9286C15.2047 12.8588 15.4286 12.635 15.4286 12.3588V11.6445C15.4286 11.3684 15.2047 11.1445 14.9286 11.1445H9.07145Z" fill="#8F8F8F"/>
</svg>
