<svg width="30" height="30" viewBox="0 0 30 30" fill="none" xmlns="http://www.w3.org/2000/svg">
<path d="M14.3942 5.63891L15 6.46886L15.6058 5.63891C16.4932 4.42315 17.7278 3.52847 19.1324 3.07764C20.5367 2.62689 22.0429 2.64155 23.4387 3.11965C24.8349 3.59785 26.053 4.51658 26.9179 5.74962C27.783 6.98295 28.25 8.46711 28.25 9.99184C28.25 13.9644 26.2618 17.5399 23.7355 20.4722C21.2147 23.3982 18.2223 25.608 16.3662 26.8341C15.5258 27.3892 14.4757 27.3886 13.6355 26.8325C11.7795 25.6039 8.78666 23.3902 6.26533 20.463C3.73829 17.5291 1.75 13.9554 1.75 9.99184C1.75 8.46711 2.217 6.98295 3.08212 5.74962C3.94705 4.51658 5.16509 3.59785 6.56125 3.11965C7.95714 2.64155 9.46333 2.62689 10.8676 3.07764C12.2722 3.52847 13.5068 4.42315 14.3942 5.63891Z" fill="white" stroke="black" stroke-width="1.5"/>
</svg>
