<svg width="25" height="16" viewBox="0 0 25 16" fill="none" xmlns="http://www.w3.org/2000/svg">
<path d="M3.32549 3.88333C3.06355 3.88333 2.85095 3.6668 2.85095 3.40001V2.91668C2.85095 2.64988 3.06355 2.43335 3.32549 2.43335C3.58744 2.43335 3.80003 2.64988 3.80003 2.91668V3.40001C3.80003 3.6668 3.58744 3.88333 3.32549 3.88333Z" fill="#00BEF7"/>
<path d="M22.084 14.1102C21.9649 14.1102 21.8463 14.0652 21.7542 13.9744L16.2823 8.58091C16.0939 8.39531 16.0892 8.08936 16.2714 7.89748C16.4541 7.7056 16.7545 7.70077 16.9424 7.88636L22.4143 13.2793C22.6027 13.4649 22.6075 13.7709 22.4252 13.9628C22.3322 14.0609 22.2084 14.1102 22.084 14.1102Z" fill="#00BEF7"/>
<path d="M13.6069 9.7755C12.6142 9.7755 11.6214 9.48792 10.7554 8.91228C10.5362 8.76679 10.474 8.46713 10.6173 8.24335C10.7602 8.02005 11.0544 7.95674 11.2741 8.1027C12.6911 9.04422 14.5228 9.04422 15.9402 8.1027C16.1585 7.95625 16.4527 8.01957 16.597 8.24383C16.7403 8.46761 16.6781 8.76728 16.4584 8.91276C15.5924 9.48792 14.5997 9.7755 13.6069 9.7755Z" fill="#00BEF7"/>
<path d="M16.1999 8.99117C16.0447 8.99117 15.8933 8.91383 15.8017 8.77173C15.6584 8.54795 15.7206 8.24829 15.9403 8.10281L23.6298 2.995C23.8485 2.84855 24.1427 2.91186 24.2865 3.13565C24.4298 3.35943 24.3677 3.65909 24.148 3.80457L16.4585 8.91238C16.3788 8.96603 16.2886 8.99117 16.1999 8.99117Z" fill="#00BEF7"/>
<path d="M11.0145 8.99117C10.9253 8.99117 10.8361 8.96603 10.7559 8.91238L3.06596 3.80457C2.84672 3.65909 2.78455 3.35943 2.92786 3.13565C3.0707 2.91186 3.36492 2.84855 3.58463 2.995L11.2741 8.10281C11.4933 8.24829 11.5555 8.54795 11.4122 8.77173C11.3215 8.91383 11.1692 8.99117 11.0145 8.99117Z" fill="#00BEF7"/>
<path d="M4.94423 7.26664H1.11089C0.848947 7.26664 0.636353 7.05011 0.636353 6.78332C0.636353 6.51652 0.848947 6.29999 1.11089 6.29999H4.94423C5.20618 6.29999 5.41877 6.51652 5.41877 6.78332C5.41877 7.05011 5.20618 7.26664 4.94423 7.26664Z" fill="#00BEF7"/>
<path d="M9.30944 10.1665H3.00896C2.74702 10.1665 2.53442 9.95002 2.53442 9.68322C2.53442 9.41642 2.74702 9.19989 3.00896 9.19989H9.30944C9.57138 9.19989 9.78398 9.41642 9.78398 9.68322C9.78398 9.95002 9.57186 10.1665 9.30944 10.1665Z" fill="#00BEF7"/>
<path d="M13.6758 13.0666H4.90728C4.64533 13.0666 4.43274 12.85 4.43274 12.5832C4.43274 12.3164 4.64533 12.0999 4.90728 12.0999H13.6758C13.9383 12.0999 14.1504 12.3164 14.1504 12.5832C14.1504 12.85 13.9378 13.0666 13.6758 13.0666Z" fill="#00BEF7"/>
<path d="M21.9906 15.9665H6.80535C6.5434 15.9665 6.33081 15.75 6.33081 15.4832C6.33081 15.2164 6.5434 14.9999 6.80535 14.9999H21.9906C22.2531 14.9999 22.4652 15.2164 22.4652 15.4832C22.4652 15.75 22.2531 15.9665 21.9906 15.9665Z" fill="#00BEF7"/>
<path d="M23.8888 14.0332C23.6264 14.0332 23.4143 13.8167 23.4143 13.5499V2.91668C23.4143 2.64988 23.6264 2.43335 23.8888 2.43335C24.1513 2.43335 24.3634 2.64988 24.3634 2.91668V13.5499C24.3634 13.8167 24.1513 14.0332 23.8888 14.0332Z" fill="#00BEF7"/>
<path d="M21.9907 1.46666H5.22381C4.96186 1.46666 4.74927 1.25013 4.74927 0.983328C4.74927 0.716531 4.96186 0.5 5.22381 0.5H21.9907C22.2532 0.5 22.4653 0.716531 22.4653 0.983328C22.4653 1.25013 22.2532 1.46666 21.9907 1.46666Z" fill="#00BEF7"/>
<path d="M21.9907 15.9665C21.7282 15.9665 21.5161 15.75 21.5161 15.4832C21.5161 15.2164 21.7282 14.9998 21.9907 14.9998C22.7755 14.9998 23.4143 14.3493 23.4143 13.5499C23.4143 13.2831 23.6264 13.0665 23.8888 13.0665C24.1512 13.0665 24.3634 13.2831 24.3634 13.5499C24.3634 14.8824 23.299 15.9665 21.9907 15.9665Z" fill="#00BEF7"/>
<path d="M23.8888 3.39997C23.6264 3.39997 23.4143 3.18344 23.4143 2.91664C23.4143 2.11722 22.7755 1.46666 21.9907 1.46666C21.7282 1.46666 21.5161 1.25013 21.5161 0.983328C21.5161 0.716531 21.7282 0.5 21.9907 0.5C23.299 0.5 24.3634 1.5841 24.3634 2.91664C24.3634 3.18344 24.1512 3.39997 23.8888 3.39997Z" fill="#00BEF7"/>
<path d="M3.32549 3.39997C3.06355 3.39997 2.85095 3.18344 2.85095 2.91664C2.85095 1.5841 3.91535 0.5 5.22365 0.5C5.4856 0.5 5.69819 0.716531 5.69819 0.983328C5.69819 1.25013 5.4856 1.46666 5.22365 1.46666C4.43876 1.46666 3.80003 2.11722 3.80003 2.91664C3.80003 3.18344 3.58744 3.39997 3.32549 3.39997Z" fill="#00BEF7"/>
</svg>
