<svg width="16" height="24" viewBox="0 0 16 24" fill="none" xmlns="http://www.w3.org/2000/svg">
<path d="M10.9103 3.59386H11.294L11.3932 3.22322L12.1227 0.5H12.3907H12.8907C13.831 0.5 14.5968 1.26582 14.5968 2.20613V21.7938C14.5968 22.7341 13.831 23.5 12.8907 23.5H3.10933C2.16902 23.5 1.4032 22.7341 1.4032 21.7938V2.20613C1.4032 1.26582 2.16902 0.5 3.10933 0.5H3.87736L4.60679 3.22322L4.70606 3.59386H5.08976H10.9103ZM9.82814 21.6873H10.3281V21.1873V19.781V19.281H9.82814H6.17188H5.67188V19.781V21.1873V21.6873H6.17188H9.82814Z" fill="white" stroke="#8F8F8F"/>
<path d="M9.83108 1.68759L10.2831 0H5.71686L6.16892 1.68759H9.83108Z" fill="#8F8F8F"/>
</svg>
