<svg width="20" height="20" viewBox="0 0 20 20" fill="none" xmlns="http://www.w3.org/2000/svg">
<path d="M19.552 17.1414C19.3737 17.615 18.9426 17.921 18.4534 17.921H4.15701C3.99125 17.921 3.83227 17.8551 3.71506 17.7379C3.59785 17.6207 3.53201 17.4617 3.53201 17.296C3.53201 17.1302 3.59785 16.9713 3.71506 16.854C3.83227 16.7368 3.99125 16.671 4.15701 16.671H18.3697L16.9118 15.1154C16.8033 14.9995 16.743 14.8468 16.743 14.6881V7.81727C16.7423 6.87695 16.5125 5.95095 16.0736 5.11934C16.035 5.04678 16.0111 4.96732 16.0032 4.88551C15.9954 4.80371 16.0038 4.72115 16.0279 4.64259C16.052 4.56402 16.0913 4.49097 16.1437 4.42763C16.1961 4.3643 16.2604 4.31191 16.3331 4.27347C16.4057 4.23503 16.4852 4.2113 16.567 4.20362C16.6489 4.19595 16.7314 4.20449 16.8099 4.22875C16.8884 4.25302 16.9614 4.29253 17.0246 4.34503C17.0879 4.39752 17.1401 4.46198 17.1784 4.5347C17.7125 5.5465 17.9921 6.67317 17.993 7.81727V14.4412L19.2985 15.8354C19.4592 16.0073 19.5682 16.221 19.6131 16.4519C19.6579 16.6829 19.6367 16.9219 19.552 17.1414ZM12.3417 18.7527H9.52701C9.36125 18.7527 9.20227 18.8185 9.08506 18.9357C8.96785 19.0529 8.90201 19.2119 8.90201 19.3777C8.90201 19.5434 8.96785 19.7024 9.08506 19.8196C9.20227 19.9368 9.36125 20.0027 9.52701 20.0027H12.3417C12.5075 20.0027 12.6664 19.9368 12.7836 19.8196C12.9008 19.7024 12.9667 19.5434 12.9667 19.3777C12.9667 19.2119 12.9008 19.0529 12.7836 18.9357C12.6664 18.8185 12.5075 18.7527 12.3417 18.7527ZM19.1146 1.06962L1.89751 18.2866C1.78006 18.4027 1.62147 18.4675 1.45637 18.467C1.29126 18.4665 1.13307 18.4007 1.01632 18.284C0.899576 18.1672 0.833767 18.009 0.833266 17.8439C0.832765 17.6788 0.897612 17.5202 1.01365 17.4028L3.87576 14.5407V7.81727C3.88074 5.94675 4.62601 4.15426 5.94867 2.83159C7.27134 1.50893 9.06382 0.763659 10.9343 0.758679C12.7227 0.76416 14.4427 1.44601 15.7491 2.66731L18.2307 0.185749C18.2886 0.127134 18.3575 0.080548 18.4335 0.0486703C18.5095 0.0167927 18.591 0.000252994 18.6734 2.87978e-06C18.7558 -0.000247234 18.8375 0.0157971 18.9136 0.047213C18.9898 0.0786288 19.059 0.124796 19.1173 0.183058C19.1755 0.241321 19.2217 0.310528 19.2531 0.3867C19.2845 0.462871 19.3006 0.544502 19.3003 0.626897C19.3001 0.709292 19.2835 0.790825 19.2517 0.866804C19.2198 0.942783 19.1732 1.01171 19.1146 1.06962ZM5.12576 13.2907L14.8648 3.55165C13.7937 2.56396 12.3913 2.01345 10.9343 2.00868C7.73146 2.00868 5.12576 4.61442 5.12576 7.81727V13.2907Z" fill="black"/>
</svg>
