<svg width="30" height="22" viewBox="0 0 30 22" fill="none" xmlns="http://www.w3.org/2000/svg">
<path d="M26.1888 11.72H16.0926C15.6949 11.72 15.3726 11.3976 15.3726 11C15.3726 10.6024 15.6949 10.28 16.0926 10.28H26.1888C26.5864 10.28 26.9088 10.6024 26.9088 11C26.9088 11.3976 26.5864 11.72 26.1888 11.72Z" fill="black"/>
<path d="M26.1888 15.6518H16.0926C15.6949 15.6518 15.3726 15.3294 15.3726 14.9318C15.3726 14.5342 15.6949 14.2118 16.0926 14.2118H26.1888C26.5864 14.2118 26.9088 14.5342 26.9088 14.9318C26.9088 15.3294 26.5864 15.6518 26.1888 15.6518Z" fill="black"/>
<path d="M26.1888 7.78821H16.0926C15.6949 7.78821 15.3726 7.46583 15.3726 7.06821C15.3726 6.67059 15.6949 6.34821 16.0926 6.34821H26.1888C26.5864 6.34821 26.9088 6.67059 26.9088 7.06821C26.9088 7.46583 26.5864 7.78821 26.1888 7.78821Z" fill="black"/>
<path d="M11.5881 10.5454C12.0045 9.95636 12.2496 9.24158 12.2496 8.47118C12.2496 6.46358 10.5902 4.8302 8.55059 4.8302C6.51095 4.8302 4.85159 6.46352 4.85159 8.47118C4.85159 9.24158 5.09663 9.95636 5.51303 10.5454C4.01681 11.547 3.09131 13.239 3.09131 15.0816V16.4498C3.09131 16.8474 3.41369 17.1698 3.81131 17.1698H13.2899C13.6875 17.1698 14.0099 16.8474 14.0099 16.4498V15.0816C14.0099 13.239 13.0844 11.547 11.5881 10.5454ZM8.55059 6.2702C9.79619 6.2702 10.8096 7.25756 10.8096 8.47118C10.8096 9.6848 9.79619 10.6722 8.55059 10.6722C7.30499 10.6722 6.29159 9.6848 6.29159 8.47118C6.29159 7.25756 7.30499 6.2702 8.55059 6.2702ZM12.5699 15.7298H4.53131V15.0816C4.53131 13.6099 5.33363 12.269 6.60419 11.5655C7.16999 11.9116 7.83683 12.1122 8.55059 12.1122C9.26435 12.1122 9.93119 11.9116 10.497 11.5655C11.7676 12.2689 12.5699 13.6098 12.5699 15.0816V15.7298H12.5699Z" fill="black"/>
<path d="M28.56 21.14H1.44C0.64602 21.14 0 20.494 0 19.7V2.3C0 1.50602 0.64602 0.860001 1.44 0.860001H28.56C29.354 0.860001 30 1.50602 30 2.3V4.02434C30 4.42196 29.6776 4.74434 29.28 4.74434C28.8824 4.74434 28.56 4.42196 28.56 4.02434V2.3H1.44V19.7H28.56V8.07716C28.56 7.67954 28.8824 7.35716 29.28 7.35716C29.6776 7.35716 30 7.67954 30 8.07716V19.7C30 20.494 29.354 21.14 28.56 21.14Z" fill="black"/>
<path d="M29.2801 6.98204C28.8824 6.98204 28.5601 6.65966 28.5601 6.26204V5.85866C28.5601 5.46104 28.8824 5.13866 29.2801 5.13866C29.6777 5.13866 30.0001 5.46104 30.0001 5.85866V6.26204C30.0001 6.65966 29.6777 6.98204 29.2801 6.98204Z" fill="black"/>
</svg>
