<svg width="16" height="16" viewBox="0 0 16 16" fill="none" xmlns="http://www.w3.org/2000/svg">
<path d="M15.5625 5.9375L10.0625 0.4375C9.8125 0.1875 9.4375 0.1875 9.1875 0.4375L7.1875 2.4375C6.875 2.75 7 3.125 7.1875 3.3125L7.625 3.75L5.75 5.625C4.8125 5.4375 2.25 5 0.875 6.375C0.625 6.625 0.625 7 0.875 7.25L4.4375 10.8125L0.5 14.75C0.25 15 0.25 15.375 0.5 15.625C0.75 15.875 1.1875 15.8125 1.375 15.625L5.3125 11.6875L8.875 15.25C9.25 15.5625 9.625 15.4375 9.75 15.25C11.125 13.875 10.6875 11.3125 10.5 10.375L12.375 8.5L12.8125 8.9375C13.0625 9.1875 13.4375 9.1875 13.6875 8.9375L15.6875 6.9375C15.8125 6.5625 15.8125 6.1875 15.5625 5.9375ZM13.125 7.5L12.6875 7.0625C12.4375 6.8125 12.0625 6.8125 11.8125 7.0625L9.25 9.6875C9.0625 9.875 9 10.0625 9.0625 10.3125C9.25 11 9.5625 12.6875 9.0625 13.8125L2.1875 6.9375C3.25 6.4375 5 6.75 5.6875 6.9375C5.875 7 6.125 6.9375 6.3125 6.75L8.875 4.1875C9.25 3.8125 9.0625 3.5 8.875 3.3125L8.4375 2.875L9.625 1.75L14.25 6.375L13.125 7.5Z" fill="black"/>
</svg>
