<svg width="27" height="27" viewBox="0 0 27 27" fill="none" xmlns="http://www.w3.org/2000/svg">
<circle cx="13.0263" cy="8.18779" r="5.37529" stroke="black" stroke-width="1.5" stroke-linecap="round" stroke-linejoin="round"/>
<path fill-rule="evenodd" clip-rule="evenodd" d="M4.50002 21.0395C4.49857 20.6616 4.58308 20.2884 4.74716 19.948C5.26203 18.9182 6.71398 18.3724 7.91878 18.1253C8.78769 17.9399 9.66859 17.816 10.5549 17.7546C12.1959 17.6104 13.8464 17.6104 15.4874 17.7546C16.3737 17.8167 17.2546 17.9406 18.1236 18.1253C19.3284 18.3724 20.7803 18.8667 21.2952 19.948C21.6252 20.6419 21.6252 21.4474 21.2952 22.1413C20.7803 23.2226 19.3284 23.7168 18.1236 23.9537C17.2557 24.1468 16.3745 24.2741 15.4874 24.3347C14.1518 24.4479 12.8099 24.4686 11.4714 24.3965C11.1625 24.3965 10.8639 24.3965 10.5549 24.3347C9.67121 24.2749 8.79336 24.1475 7.92908 23.9537C6.71398 23.7168 5.27233 23.2226 4.74716 22.1413C4.58392 21.797 4.4995 21.4206 4.50002 21.0395Z" stroke="black" stroke-width="1.5" stroke-linecap="round" stroke-linejoin="round"/>
</svg>
