<svg width="15" height="17" viewBox="0 0 15 17" fill="none" xmlns="http://www.w3.org/2000/svg">
<path fill-rule="evenodd" clip-rule="evenodd" d="M5.33291 9.00339C6.52124 9.00339 7.13458 9.49506 7.67708 9.92756C8.17374 10.3259 8.60458 10.6701 9.49958 10.6701C11.1179 10.6701 13.0646 9.55922 13.6662 9.19089V1.82505C12.7562 2.33839 11.0437 3.17005 9.49958 3.17005C8.31124 3.17005 7.69791 2.67839 7.15624 2.24589C6.65874 1.84755 6.22791 1.50339 5.33291 1.50339C3.71458 1.50339 1.76791 2.61422 1.16624 2.98255V10.3484C2.07624 9.83506 3.78874 9.00339 5.33291 9.00339ZM0.749575 16.5034C0.519575 16.5034 0.332909 16.3167 0.332909 16.0867V2.75339C0.332909 2.61422 0.402909 2.48422 0.518742 2.40672C0.625409 2.33589 3.14874 0.669922 5.33291 0.669922C6.52124 0.669922 7.13458 1.16172 7.67708 1.59422C8.17374 1.99255 8.60458 2.33672 9.49958 2.33672C11.4296 2.33672 13.8279 0.755888 13.8521 0.740055C13.9812 0.654221 14.1437 0.646721 14.2796 0.720055C14.4146 0.791721 14.4996 0.932555 14.4996 1.08672V9.42006C14.4996 9.55922 14.4296 9.68922 14.3137 9.76672C14.2071 9.83755 11.6837 11.5034 9.49958 11.5034C8.31124 11.5034 7.69791 11.0117 7.15624 10.5792C6.65874 10.1809 6.22791 9.83672 5.33291 9.83672C3.71458 9.83672 1.76791 10.9476 1.16624 11.3159V16.0867C1.16624 16.3167 0.979575 16.5034 0.749575 16.5034Z" fill="#EE1C24"/>
</svg>
