<svg width="16" height="21" viewBox="0 0 16 21" fill="none" xmlns="http://www.w3.org/2000/svg">
<path fill-rule="evenodd" clip-rule="evenodd" d="M7.83819 0.249986C6.13192 0.249717 5.0907 0.249553 4.22319 0.531428C2.47267 1.10021 1.10024 2.47264 0.531458 4.22316C0.249584 5.09067 0.249748 6.13189 0.250016 7.83816L0.250033 15.4214C0.250026 16.3511 0.250021 17.0942 0.295094 17.6664C0.339507 18.2302 0.433968 18.765 0.720222 19.1894C1.29463 20.041 2.29573 20.5014 3.3161 20.3833C3.82459 20.3245 4.29212 20.0482 4.74912 19.715C5.21291 19.3768 5.7771 18.8932 6.48301 18.2881L6.50882 18.266C7.19961 17.6739 7.39625 17.5218 7.58359 17.4556C7.85305 17.3604 8.14701 17.3604 8.41648 17.4556C8.60382 17.5218 8.80046 17.6739 9.49125 18.266L9.51705 18.2881C10.223 18.8932 10.7872 19.3768 11.2509 19.715C11.7079 20.0482 12.1755 20.3245 12.684 20.3833C13.7043 20.5014 14.7054 20.041 15.2798 19.1894C15.5661 18.765 15.6606 18.2302 15.705 17.6664C15.75 17.0942 15.75 16.3511 15.75 15.4214L15.7501 7.83817C15.7503 6.13189 15.7505 5.09067 15.4686 4.22316C14.8998 2.47264 13.5274 1.10021 11.7769 0.531428C10.9094 0.249553 9.86815 0.249717 8.16187 0.249986H7.83819ZM4.68671 1.95801C5.29842 1.75926 6.08038 1.75 8.00003 1.75C9.91969 1.75 10.7016 1.75926 11.3134 1.95801C12.6072 2.37841 13.6216 3.39282 14.042 4.68668C14.2408 5.29839 14.25 6.08035 14.25 8V15.3874C14.25 16.3589 14.2495 17.0425 14.2096 17.5486C14.1685 18.0701 14.092 18.268 14.0363 18.3506C13.7752 18.7376 13.3202 18.9469 12.8564 18.8933C12.7574 18.8818 12.5573 18.8111 12.1347 18.5029C11.7245 18.2038 11.205 17.7593 10.4674 17.1271L10.3682 17.042C9.82611 16.5764 9.40335 16.2134 8.91621 16.0413C8.32339 15.8318 7.67668 15.8318 7.08385 16.0413C6.59671 16.2134 6.17396 16.5764 5.63185 17.042L5.53263 17.1271C4.79502 17.7593 4.27561 18.2038 3.86538 18.5029C3.44273 18.8111 3.24264 18.8818 3.1437 18.8933C2.6799 18.9469 2.22485 18.7376 1.96376 18.3506C1.90805 18.268 1.83154 18.0701 1.79046 17.5486C1.75059 17.0425 1.75003 16.3588 1.75003 15.3874V8C1.75003 6.08035 1.75929 5.29839 1.95804 4.68668C2.37844 3.39282 3.39285 2.37841 4.68671 1.95801Z" fill="black"/>
</svg>
