<svg width="24" height="24" viewBox="0 0 24 24" fill="none" xmlns="http://www.w3.org/2000/svg">
<path d="M10.75 10C10.75 9.30964 11.3097 8.75 12 8.75C12.6904 8.75 13.25 9.30964 13.25 10C13.25 10.6904 12.6904 11.25 12 11.25C11.3097 11.25 10.75 10.6904 10.75 10Z" fill="#8F8F8F"/>
<path fill-rule="evenodd" clip-rule="evenodd" d="M6.77132 4.04167C6.77132 2.49987 8.0212 1.25 9.56299 1.25H14.729C16.1097 1.25 17.229 2.36929 17.229 3.75C17.229 4.30228 17.6767 4.75 18.229 4.75H18.8183C20.4032 4.75 21.7971 5.97999 21.7325 7.66561C21.6497 9.82667 21.23 13.2931 19.5467 16.3608C19.0904 17.1923 18.481 18.0092 17.8222 18.7703L17.7726 18.8276C16.8249 19.9226 16.0348 20.8356 15.1853 21.4579C14.2716 22.1273 13.2965 22.4607 12.0002 22.4607C10.7039 22.4607 9.72868 22.1273 8.815 21.4579C7.96553 20.8356 7.17537 19.9226 6.2277 18.8276L6.1781 18.7703C5.51934 18.0092 4.90995 17.1923 4.45366 16.3608C2.8245 13.3918 2.37785 10.2575 2.27633 8.24648C2.19082 6.55273 3.59474 5.33333 5.17079 5.33333H5.47966C6.19303 5.33333 6.77132 4.75503 6.77132 4.04167ZM12 7.25C10.4812 7.25 9.25003 8.48122 9.25003 10C9.25003 11.2588 10.0958 12.32 11.25 12.6465V16C11.25 16.4142 11.5858 16.75 12 16.75C12.4142 16.75 12.75 16.4142 12.75 16V12.6465C13.9043 12.32 14.75 11.2588 14.75 10C14.75 8.48122 13.5188 7.25 12 7.25Z" fill="#8F8F8F"/>
</svg>
