<svg width="24" height="24" viewBox="0 0 24 24" fill="none" xmlns="http://www.w3.org/2000/svg">
<path d="M9.75 12.0005C9.75 10.7579 10.7574 9.7505 12 9.7505C13.2426 9.7505 14.25 10.7579 14.25 12.0005C14.25 13.2431 13.2426 14.2505 12 14.2505C10.7574 14.2505 9.75 13.2431 9.75 12.0005Z" fill="black"/>
<path fill-rule="evenodd" clip-rule="evenodd" d="M8.58523 3.23279C9.56564 -0.202595 14.4342 -0.202596 15.4147 3.23279C15.7184 4.29719 16.812 4.92855 17.8857 4.65942C21.351 3.79079 23.7853 8.00712 21.3004 10.5739C20.5305 11.3691 20.5305 12.6319 21.3004 13.4271C23.7853 15.9939 21.351 20.2102 17.8857 19.3416C16.812 19.0725 15.7184 19.7038 15.4147 20.7682C14.4342 24.2036 9.56564 24.2036 8.58523 20.7682C8.28146 19.7038 7.18792 19.0725 6.11423 19.3416C2.6489 20.2102 0.214599 15.9939 2.69952 13.4271C3.46944 12.6319 3.46944 11.3691 2.69952 10.5739C0.214599 8.00712 2.6489 3.79079 6.11423 4.65942C7.18792 4.92855 8.28146 4.29719 8.58523 3.23279ZM12 8.2505C9.92893 8.2505 8.25 9.92944 8.25 12.0005C8.25 14.0716 9.92893 15.7505 12 15.7505C14.0711 15.7505 15.75 14.0716 15.75 12.0005C15.75 9.92944 14.0711 8.2505 12 8.2505Z" fill="black"/>
</svg>
