<svg width="23" height="25" viewBox="0 0 23 25" fill="none" xmlns="http://www.w3.org/2000/svg">
<path d="M6.40338 10.7784C6.07388 11.1079 6.07388 11.6421 6.40338 11.9716L6.85338 12.4216C9.41964 14.9879 13.5804 14.9879 16.1466 12.4216L16.5966 11.9716C16.9261 11.6421 16.9261 11.1079 16.5966 10.7784C16.2671 10.4489 15.7329 10.4489 15.4034 10.7784L14.9534 11.2284C13.0461 13.1356 9.95387 13.1356 8.04663 11.2284L7.59663 10.7784C7.26712 10.4489 6.73289 10.4489 6.40338 10.7784Z" fill="black"/>
<path fill-rule="evenodd" clip-rule="evenodd" d="M11.5 0.40625C8.76608 0.40625 6.51167 2.45932 6.19445 5.10779C5.75152 5.19263 5.34348 5.31526 4.95207 5.49469C3.82095 6.01322 2.86339 6.84698 2.19419 7.89601C1.78914 8.53094 1.5488 9.24121 1.35999 10.1077C1.17501 10.9566 1.02803 12.0149 0.84103 13.3613L0.830673 13.4359C0.590029 15.1685 0.401909 16.5229 0.344771 17.6139C0.286757 18.7216 0.356937 19.6447 0.690163 20.4921C1.2348 21.8773 2.24042 23.0322 3.53745 23.7622C4.33101 24.2088 5.23567 24.4053 6.34082 24.5003C7.42928 24.5938 8.79672 24.5938 10.5459 24.5938H12.4541C14.2033 24.5938 15.5707 24.5938 16.6592 24.5003C17.7643 24.4053 18.669 24.2088 19.4626 23.7622C20.7596 23.0322 21.7652 21.8773 22.3098 20.4921C22.6431 19.6447 22.7133 18.7216 22.6552 17.6139C22.5981 16.5229 22.41 15.1684 22.1693 13.4357L22.159 13.3613C21.972 12.0149 21.825 10.9565 21.64 10.1077C21.4512 9.24121 21.2109 8.53094 20.8058 7.89601C20.1366 6.84698 19.1791 6.01322 18.0479 5.49469C17.6565 5.31526 17.2485 5.19263 16.8056 5.10779C16.4883 2.45932 14.2339 0.40625 11.5 0.40625ZM10.5354 4.90625C9.5206 4.90624 8.66637 4.90624 7.93498 4.93475C8.30546 3.30789 9.76094 2.09375 11.5 2.09375C13.2391 2.09375 14.6945 3.30789 15.065 4.93475C14.3336 4.90624 13.4794 4.90624 12.4646 4.90625H10.5354ZM7.0882 6.68215C7.91878 6.59485 8.99415 6.59375 10.5864 6.59375H12.4136C14.0059 6.59375 15.0812 6.59485 15.9118 6.68215C16.5325 6.74737 16.9707 6.85722 17.3447 7.02868C18.1808 7.41195 18.8885 8.0282 19.3832 8.80357C19.6385 9.20382 19.8239 9.69896 19.9912 10.4669C20.1608 11.2452 20.2995 12.2395 20.4923 13.628C20.7397 15.4092 20.9171 16.692 20.97 17.7021C21.0225 18.7039 20.9456 19.3501 20.7394 19.8746C20.3368 20.8984 19.5935 21.7521 18.6349 22.2916C18.1437 22.5681 17.5143 22.7331 16.5148 22.819C15.507 22.9055 14.2119 22.9062 12.4136 22.9062H10.5864C8.78809 22.9062 7.49302 22.9055 6.48523 22.819C5.48574 22.7331 4.8563 22.5681 4.36514 22.2916C3.40646 21.7521 2.66318 20.8984 2.26062 19.8746C2.05438 19.3501 1.97749 18.7039 2.02996 17.7021C2.08286 16.692 2.2603 15.4092 2.50769 13.628C2.70053 12.2395 2.83921 11.2452 3.0088 10.4669C3.17615 9.69896 3.36153 9.20382 3.61685 8.80357C4.11149 8.0282 4.81925 7.41195 5.65529 7.02868C6.02932 6.85722 6.46756 6.74737 7.0882 6.68215Z" fill="black"/>
</svg>
