<svg width="27" height="27" viewBox="0 0 27 27" fill="none" xmlns="http://www.w3.org/2000/svg">
<path fill-rule="evenodd" clip-rule="evenodd" d="M13.5 1.40625C10.7661 1.40625 8.51167 3.45932 8.19445 6.10779C7.75152 6.19263 7.34348 6.31526 6.95207 6.49469C5.82095 7.01322 4.86339 7.84698 4.19419 8.89601C3.78914 9.53094 3.5488 10.2412 3.35999 11.1077C3.17501 11.9566 3.02803 13.0149 2.84103 14.3613L2.83067 14.4359C2.59003 16.1685 2.40191 17.5229 2.34477 18.6139C2.28676 19.7216 2.35694 20.6447 2.69016 21.4921C3.2348 22.8773 4.24042 24.0322 5.53745 24.7622C6.33101 25.2088 7.23567 25.4053 8.34082 25.5003C9.42928 25.5938 10.7967 25.5938 12.5459 25.5938H14.4541C16.2033 25.5938 17.5707 25.5938 18.6592 25.5003C19.7643 25.4053 20.669 25.2088 21.4626 24.7622C22.7596 24.0322 23.7652 22.8773 24.3098 21.4921C24.6431 20.6447 24.7133 19.7216 24.6552 18.6139C24.5981 17.5229 24.41 16.1684 24.1693 14.4357L24.159 14.3613C23.972 13.0149 23.825 11.9565 23.64 11.1077C23.4512 10.2412 23.2109 9.53094 22.8058 8.89601C22.1366 7.84698 21.1791 7.01322 20.0479 6.49469C19.6565 6.31526 19.2485 6.19263 18.8056 6.10779C18.4883 3.45932 16.2339 1.40625 13.5 1.40625ZM12.5354 5.90625C11.5206 5.90624 10.6664 5.90624 9.93498 5.93475C10.3055 4.30789 11.7609 3.09375 13.5 3.09375C15.2391 3.09375 16.6945 4.30789 17.065 5.93475C16.3336 5.90624 15.4794 5.90624 14.4646 5.90625H12.5354ZM9.59668 11.7784C9.26718 11.4489 8.73294 11.4489 8.40344 11.7784C8.07394 12.1079 8.07394 12.6421 8.40344 12.9716L8.85344 13.4216C11.4197 15.9879 15.5804 15.9879 18.1467 13.4216L18.5967 12.9716C18.9262 12.6421 18.9262 12.1079 18.5967 11.7784C18.2672 11.4489 17.7329 11.4489 17.4034 11.7784L16.9534 12.2284C15.0462 14.1356 11.9539 14.1356 10.0467 12.2284L9.59668 11.7784Z" fill="black"/>
</svg>
