<svg width="25" height="25" viewBox="0 0 25 25" fill="none" xmlns="http://www.w3.org/2000/svg">
<path fill-rule="evenodd" clip-rule="evenodd" d="M2 0.5C0.895431 0.5 0 1.39543 0 2.5V18.5C0 19.6046 0.89543 20.5 2 20.5H8.75L11.7 24.4333C12.1 24.9667 12.9 24.9667 13.3 24.4333L16.25 20.5H23C24.1046 20.5 25 19.6046 25 18.5V2.5C25 1.39543 24.1046 0.5 23 0.5H2ZM8 9.25C7.72386 9.25 7.5 9.47386 7.5 9.75V11.25C7.5 11.5261 7.72386 11.75 8 11.75H17C17.2761 11.75 17.5 11.5261 17.5 11.25V9.75C17.5 9.47386 17.2761 9.25 17 9.25H8Z" fill="white"/>
</svg>
