<svg width="24" height="24" viewBox="0 0 24 24" fill="none" xmlns="http://www.w3.org/2000/svg">
<path d="M12 2H3.99997C3.46973 2.00062 2.96139 2.21153 2.58646 2.58646C2.21153 2.96139 2.00062 3.46973 2 3.99997V20C2.00061 20.5303 2.21152 21.0386 2.58646 21.4136C2.96141 21.7885 3.46977 21.9994 4.00002 22H12C12.5302 21.9994 13.0386 21.7885 13.4135 21.4136C13.7885 21.0386 13.9994 20.5303 14 20V3.99997C13.9994 3.46973 13.7885 2.96138 13.4135 2.58645C13.0386 2.21151 12.5302 2.00061 12 2ZM12 20H3.99997V3.99997H12L12.0013 19.9999L12 20Z" fill="black"/>
<path d="M20 10H16C15.7348 10 15.4804 10.1054 15.2929 10.2929C15.1054 10.4804 15 10.7348 15 11C15 11.2652 15.1054 11.5196 15.2929 11.7071C15.4804 11.8947 15.7348 12 16 12H20V20H16C15.7348 20 15.4804 20.1054 15.2929 20.2929C15.1054 20.4805 15 20.7348 15 21C15 21.2653 15.1054 21.5196 15.2929 21.7072C15.4804 21.8947 15.7348 22 16 22H20C20.5302 21.9994 21.0386 21.7885 21.4135 21.4136C21.7885 21.0386 21.9994 20.5303 22 20V12C21.9994 11.4698 21.7885 10.9614 21.4136 10.5865C21.0386 10.2115 20.5303 10.0006 20 10Z" fill="black"/>
<path d="M16.168 6.05477C16.2777 6.21935 16.4337 6.34771 16.6164 6.4236C16.799 6.49949 17.0001 6.51951 17.1941 6.48113C17.3881 6.44274 17.5664 6.34768 17.7064 6.20795C17.8464 6.06823 17.9418 5.89013 17.9806 5.69617L18.052 5.33889C19.1307 5.67564 20 6.433 20 8.00008C20 8.2653 20.1054 8.51965 20.2929 8.70719C20.4804 8.89473 20.7348 9.00009 21 9.00009C21.2652 9.00009 21.5196 8.89473 21.7071 8.70719C21.8947 8.51965 22 8.2653 22 8.00008C22 5.66046 20.6814 4.00774 18.4438 3.37999L18.4806 3.19619C18.5194 3.00224 18.4998 2.80113 18.4244 2.61831C18.3489 2.43549 18.2208 2.27916 18.0565 2.1691C17.8922 2.05904 17.6989 2.00019 17.5011 2C17.3033 1.99981 17.1099 2.05829 16.9453 2.16803L15.4453 3.16802C15.2246 3.31513 15.0714 3.54387 15.0194 3.80393C14.9674 4.06398 15.0208 4.33405 15.1679 4.55472L16.168 6.05477Z" fill="black"/>
</svg>
