<svg width="18" height="21" viewBox="0 0 18 21" fill="none" xmlns="http://www.w3.org/2000/svg">
<path d="M16.8292 2.625H13.7229V1.1715C13.7226 0.860903 13.5991 0.563126 13.3796 0.343502C13.16 0.123878 12.8624 0.000342435 12.5519 0H5.44806C5.13761 0.000345413 4.83997 0.123882 4.62044 0.343506C4.40091 0.56313 4.27743 0.860905 4.27709 1.1715V2.625H1.1708C0.860371 2.62538 0.562769 2.74894 0.343279 2.96856C0.123789 3.18818 0.000335269 3.48593 0 3.7965V5.62518C4.97014e-06 5.72463 0.0394975 5.82001 0.109791 5.89034C0.180085 5.96066 0.275422 6.00017 0.374832 6.00018H1.48164L2.00633 18.3534C1.91722 19.7541 2.88245 21.0008 4.33569 21H13.6644C14.2612 21.0012 14.8354 20.7711 15.2663 20.358C15.6972 19.9448 15.9513 19.3807 15.9754 18.784L16.5184 6.00015H17.6252C17.7246 6.00015 17.8199 5.96064 17.8902 5.89031C17.9605 5.81999 18 5.72461 18 5.62515V3.7965C17.9997 3.48593 17.8762 3.18818 17.6567 2.96856C17.4372 2.74893 17.1396 2.62538 16.8292 2.625ZM5.02674 1.1715C5.02689 1.05975 5.07133 0.95263 5.15031 0.873615C5.22929 0.7946 5.33637 0.750146 5.44806 0.75H12.5519C12.6636 0.750149 12.7707 0.794605 12.8497 0.873619C12.9287 0.952633 12.9731 1.05976 12.9732 1.1715V2.625H5.02674V1.1715ZM15.2265 18.7522C15.2102 19.1555 15.0384 19.5368 14.7471 19.8161C14.4559 20.0953 14.0678 20.2509 13.6644 20.25H4.33564C3.93221 20.2509 3.54413 20.0953 3.25287 19.8161C2.96161 19.5368 2.78981 19.1555 2.77354 18.7522L2.23197 6.00018H15.768L15.2265 18.7522ZM17.2503 5.25018C16.0099 5.25018 1.99096 5.25018 0.749664 5.25018V3.7965C0.749772 3.68477 0.79417 3.57765 0.87312 3.49864C0.95207 3.41962 1.05912 3.37515 1.1708 3.375C1.1708 3.375 14.5109 3.37495 16.8292 3.375C16.9409 3.37515 17.0479 3.41962 17.1269 3.49863C17.2058 3.57765 17.2502 3.68477 17.2503 3.7965V5.25018Z" fill="black"/>
<path d="M5.66138 18.433C5.71213 18.433 5.76235 18.4227 5.80902 18.4028C5.85568 18.3828 5.89781 18.3536 5.93287 18.3169C5.96792 18.2802 5.99517 18.2368 6.01296 18.1893C6.03075 18.1418 6.03872 18.0911 6.03638 18.0404L5.5744 8.17525C5.56809 8.07709 5.52348 7.98534 5.45018 7.91976C5.37687 7.85418 5.28074 7.82002 5.18249 7.82463C5.08424 7.82924 4.99173 7.87226 4.9249 7.94442C4.85806 8.01658 4.82224 8.11211 4.82515 8.21043L5.28713 18.0756C5.29166 18.1718 5.33305 18.2626 5.40273 18.3292C5.47241 18.3957 5.56503 18.4329 5.66138 18.433Z" fill="black"/>
<path d="M12.3211 18.431C12.4204 18.4356 12.5175 18.4005 12.591 18.3336C12.6646 18.2667 12.7086 18.1733 12.7133 18.074L13.1753 8.2088C13.18 8.10944 13.145 8.0123 13.078 7.93874C13.011 7.86519 12.9176 7.82125 12.8182 7.81659C12.7193 7.81354 12.6231 7.84909 12.5499 7.91572C12.4767 7.98236 12.4323 8.07485 12.426 8.17364L11.9641 18.0388C11.9617 18.088 11.9691 18.1372 11.9858 18.1835C12.0025 18.2299 12.0282 18.2724 12.0613 18.3089C12.0945 18.3453 12.1345 18.3748 12.1791 18.3958C12.2236 18.4167 12.2719 18.4287 12.3211 18.431Z" fill="black"/>
<path d="M9.00005 18.4316C9.0995 18.4316 9.19488 18.3921 9.26521 18.3217C9.33553 18.2514 9.37504 18.156 9.37505 18.0566V8.19141C9.37505 8.09195 9.33554 7.99657 9.26521 7.92624C9.19488 7.85592 9.0995 7.81641 9.00005 7.81641C8.90059 7.81641 8.80521 7.85592 8.73488 7.92624C8.66455 7.99657 8.62505 8.09195 8.62505 8.19141V18.0566C8.62505 18.156 8.66456 18.2514 8.73489 18.3217C8.80521 18.3921 8.90059 18.4316 9.00005 18.4316Z" fill="black"/>
</svg>
