<svg width="24" height="22" viewBox="0 0 24 22" fill="none" xmlns="http://www.w3.org/2000/svg">
<path d="M22.7858 8.86542L19.6276 6.20374V2.42382C19.6276 2.03367 19.3114 1.71743 18.9212 1.71743H16.6826C16.2924 1.71743 15.9761 2.03367 15.9761 2.42382V3.12453L12.6162 0.293265C12.2602 -0.0352548 11.7216 -0.0352548 11.3747 0.293265L1.21421 8.86542C0.940339 9.12092 0.849068 9.51355 0.986031 9.86946C1.12299 10.2165 1.46064 10.4447 1.83508 10.4447H3.30465V21.0432C3.30465 21.5453 3.71554 21.9561 4.21759 21.9561H19.7824C20.2844 21.9561 20.6953 21.5453 20.6953 21.0432V10.4447H22.165C22.5393 10.4447 22.8771 10.2165 23.014 9.86033C23.1509 9.51355 23.0596 9.12092 22.7858 8.86542ZM12.6893 18.6373C12.2967 19.1759 11.4934 19.1759 11.0917 18.6373C9.83194 16.9028 7.51321 13.4886 7.51321 11.7358C7.51321 9.32589 9.47587 7.36305 11.895 7.36305C14.3142 7.36305 16.2769 9.32589 16.2769 11.7358C16.2769 13.4886 13.9581 16.9028 12.6893 18.6373Z" fill="#8F8F8F"/>
</svg>
