<svg width="20" height="24" viewBox="0 0 20 24" fill="none" xmlns="http://www.w3.org/2000/svg">
<path d="M17.0002 0H3.07515C1.94105 0 0.945259 0.932972 0.945259 2.0373V22.6367C0.945259 23.0064 1.04814 23.3144 1.21396 23.5525C1.41225 23.837 1.73155 24.0001 2.07393 24C2.39763 24 2.74227 23.8559 3.06055 23.5841L9.29062 18.2944C9.48303 18.1301 9.75943 18.0359 10.0468 18.0359C10.3341 18.0359 10.6099 18.1301 10.8029 18.2949L17.0121 23.5833C17.3315 23.8559 17.6524 24.0001 17.9755 24.0001C18.522 24.0001 19.0546 23.5786 19.0546 22.6368V2.0373C19.0546 0.932972 18.1343 0 17.0002 0Z" fill="#00BEF7"/>
</svg>
