<svg width="20" height="21" viewBox="0 0 20 21" fill="none" xmlns="http://www.w3.org/2000/svg">
<path fill-rule="evenodd" clip-rule="evenodd" d="M10.8538 0.25C12.3096 0.249995 13.451 0.249991 14.3664 0.329246C15.2988 0.409977 16.0668 0.577186 16.7557 0.953347C17.7231 1.48162 18.5184 2.27685 19.0467 3.24432C19.4228 3.9332 19.59 4.70118 19.6708 5.63362C19.75 6.54902 19.75 7.69034 19.75 9.14612V12.2998C19.75 12.3587 19.75 12.3945 19.7497 12.4257C19.7282 14.4183 18.6939 16.1666 17.1403 17.181C16.2534 17.7601 15.1962 18.1011 14.0621 18.1133C14.031 18.1136 13.9954 18.1136 13.9371 18.1136L13.9253 18.1136L13.9241 18.1136C13.8571 18.114 13.793 18.1413 13.7463 18.1893L13.3854 18.5642C12.7399 19.235 12.2025 19.7932 11.7174 20.1768C11.206 20.5811 10.6625 20.8659 10 20.8659C9.3375 20.8659 8.79398 20.5811 8.28257 20.1768C7.79744 19.7932 7.2601 19.2349 6.61454 18.5642L6.25452 18.1901L6.25371 18.1893C6.20698 18.1413 6.14293 18.114 6.07593 18.1136L6.0747 18.1136L6.06294 18.1136C6.052 18.1136 6.04186 18.1136 6.03239 18.1136C5.99139 18.1136 5.96317 18.1136 5.93795 18.1133C4.80376 18.1011 3.74659 17.7601 2.85969 17.181C1.30611 16.1666 0.27184 14.4183 0.250335 12.4257C0.25 12.3946 0.25 12.359 0.25 12.3005V9.14616C0.249995 7.69035 0.249991 6.54902 0.329246 5.63362C0.409977 4.70118 0.577187 3.9332 0.953347 3.24432C1.48162 2.27685 2.27685 1.48162 3.24432 0.953347C3.9332 0.577186 4.70118 0.409977 5.63362 0.329246C6.54903 0.249991 7.69036 0.249995 9.14616 0.25H10.8538ZM16.3912 15.8777C15.6839 14.7499 14.4295 14 13 14H7C5.5705 14 4.31614 14.7499 3.60882 15.8777C3.6323 15.8937 3.65596 15.9095 3.67978 15.9251C4.3345 16.3526 5.11403 16.6043 5.95413 16.6134C5.97604 16.6136 6.00293 16.6136 6.0687 16.6136L6.08422 16.6137C6.55323 16.6163 7.00157 16.807 7.32868 17.1431L7.33946 17.1543L7.65842 17.4857C8.35043 18.2046 8.81742 18.6875 9.21283 19.0001C9.59116 19.2991 9.8116 19.3659 10 19.3659C10.1884 19.3659 10.4088 19.2991 10.7872 19.0001C11.1826 18.6875 11.6496 18.2046 12.3416 17.4857L12.6605 17.1543L12.6713 17.1431C12.9984 16.807 13.4468 16.6163 13.9158 16.6137L13.9313 16.6136C13.9436 16.6136 13.9546 16.6136 13.9644 16.6136C14.007 16.6136 14.0281 16.6136 14.0459 16.6134C14.886 16.6043 15.6655 16.3526 16.3202 15.9251C16.344 15.9095 16.3677 15.8937 16.3912 15.8777ZM10 2.25C7.37665 2.25 5.25 4.37665 5.25 7C5.25 9.62335 7.37665 11.75 10 11.75C12.6234 11.75 14.75 9.62335 14.75 7C14.75 4.37665 12.6234 2.25 10 2.25Z" fill="#8F8F8F"/>
</svg>
