<svg width="24" height="22" viewBox="0 0 24 22" fill="none" xmlns="http://www.w3.org/2000/svg">
<path d="M23.1812 7.06341L17.7485 1.63064C17.3002 1.18237 16.8455 0.955078 16.3971 0.955078C15.7815 0.955078 15.0625 1.42336 15.0625 2.74312V4.59272C11.1154 4.76475 7.42941 6.38348 4.61803 9.19472C1.64034 12.1722 0.000328134 16.131 8.51259e-09 20.342C-4.68665e-05 20.6445 0.1935 20.9132 0.480469 21.009C0.553688 21.0334 0.628734 21.0452 0.703031 21.0452C0.919922 21.0452 1.12987 20.9445 1.2653 20.7644C4.58484 16.3457 9.5827 13.7344 15.0625 13.5282V15.3492C15.0625 16.6689 15.7814 17.1373 16.3971 17.1373H16.3971C16.8455 17.1373 17.3003 16.91 17.7485 16.4618L23.1812 11.0289C23.7092 10.501 24 9.79688 24 9.04622C24 8.29552 23.7092 7.59136 23.1812 7.06341ZM22.1869 10.0346L16.7541 15.4674C16.6499 15.5716 16.5636 15.6375 16.5 15.6774C16.4832 15.6042 16.4687 15.4966 16.4687 15.3493V12.8119C16.4687 12.4236 16.1539 12.1087 15.7656 12.1087C12.6415 12.1087 9.6563 12.8245 6.89297 14.2361C4.90922 15.2495 3.09581 16.6137 1.56014 18.2383C2.58173 11.315 8.56308 5.98369 15.7656 5.98369C16.1539 5.98369 16.4687 5.66887 16.4687 5.28056V2.74312C16.4687 2.5958 16.4832 2.48822 16.4999 2.415C16.5636 2.45498 16.6499 2.5208 16.7541 2.625L22.1869 8.05781C22.4493 8.32017 22.5938 8.67117 22.5938 9.04622C22.5938 9.42122 22.4493 9.77222 22.1869 10.0346Z" fill="black"/>
</svg>
