<svg width="18" height="21" viewBox="0 0 18 21" fill="none" xmlns="http://www.w3.org/2000/svg">
<path d="M7.75 14C7.75 13.3096 8.30964 12.75 9 12.75C9.69036 12.75 10.25 13.3096 10.25 14C10.25 14.6904 9.69036 15.25 9 15.25C8.30964 15.25 7.75 14.6904 7.75 14Z" fill="#8F8F8F"/>
<path fill-rule="evenodd" clip-rule="evenodd" d="M9 0.25C5.82436 0.25 3.25 2.82436 3.25 6V7.11372C3.25 7.18052 3.25873 7.24529 3.27512 7.30693C1.83903 7.83463 0.719664 8.99318 0.244717 10.4549C0 11.2081 0 12.1387 0 14C0 15.8613 0 16.7919 0.244717 17.5451C0.739307 19.0673 1.93273 20.2607 3.45492 20.7553C4.20808 21 5.13871 21 6.99998 21H11C12.8613 21 13.7919 21 14.5451 20.7553C16.0673 20.2607 17.2607 19.0673 17.7553 17.5451C18 16.7919 18 15.8613 18 14C18 12.1387 18 11.2081 17.7553 10.4549C17.2803 8.99318 16.161 7.83463 14.7249 7.30693C14.7413 7.24529 14.75 7.18052 14.75 7.11372V6C14.75 2.82436 12.1756 0.25 9 0.25ZM11 7C11.9653 7 12.6803 7 13.25 7.03413V6C13.25 3.65279 11.3472 1.75 9 1.75C6.65279 1.75 4.75 3.65279 4.75 6V7.03413C5.31973 7 6.03471 7 7 7H11ZM6.25 14C6.25 12.4812 7.48122 11.25 9 11.25C10.5188 11.25 11.75 12.4812 11.75 14C11.75 15.5188 10.5188 16.75 9 16.75C7.48122 16.75 6.25 15.5188 6.25 14Z" fill="#8F8F8F"/>
</svg>
