<svg width="24" height="16" viewBox="0 0 24 16" fill="none" xmlns="http://www.w3.org/2000/svg">
<path d="M22.2075 0.920429C21.8848 0.692166 21.5118 0.545041 21.1201 0.491514C20.7285 0.437987 20.3297 0.479634 19.9575 0.612929C14.8104 2.44308 9.18968 2.44308 4.04252 0.612929C3.67033 0.479071 3.27134 0.436934 2.87939 0.490091C2.48745 0.543248 2.1141 0.690131 1.791 0.918287C1.4679 1.14644 1.20458 1.44914 1.02337 1.80072C0.842154 2.1523 0.748388 2.5424 0.750021 2.93793V13.0629C0.748388 13.4585 0.842154 13.8486 1.02337 14.2001C1.20458 14.5517 1.4679 14.8544 1.791 15.0826C2.1141 15.3107 2.48745 15.4576 2.87939 15.5108C3.27134 15.5639 3.67033 15.5218 4.04252 15.3879C9.18968 13.5578 14.8104 13.5578 19.9575 15.3879C20.2221 15.4831 20.5013 15.5313 20.7825 15.5304C21.1068 15.5314 21.4281 15.4683 21.728 15.3446C22.0278 15.221 22.3002 15.0392 22.5295 14.8099C22.7588 14.5806 22.9406 14.3082 23.0642 14.0084C23.1879 13.7086 23.251 13.3872 23.25 13.0629V2.93793C23.2505 2.54274 23.1561 2.15321 22.9747 1.80212C22.7932 1.45103 22.5301 1.14865 22.2075 0.920429ZM21.75 13.0629C21.7542 13.2198 21.72 13.3754 21.6506 13.5162C21.5812 13.657 21.4786 13.7788 21.3516 13.871C21.2247 13.9633 21.0772 14.0233 20.9218 14.0458C20.7665 14.0684 20.608 14.0528 20.46 14.0004C14.9886 12.0504 9.01147 12.0504 3.54002 14.0004C3.39205 14.0528 3.23357 14.0684 3.07823 14.0458C2.92289 14.0233 2.77537 13.9633 2.6484 13.871C2.52143 13.7788 2.41881 13.657 2.34941 13.5162C2.28 13.3754 2.24589 13.2198 2.25002 13.0629V2.93793C2.24589 2.78102 2.28 2.62546 2.34941 2.48468C2.41881 2.34389 2.52143 2.22211 2.6484 2.12983C2.77537 2.03755 2.92289 1.97755 3.07823 1.95501C3.23357 1.93246 3.39205 1.94805 3.54002 2.00043C9.01147 3.95044 14.9886 3.95044 20.46 2.00043C20.608 1.94805 20.7665 1.93246 20.9218 1.95501C21.0772 1.97755 21.2247 2.03755 21.3516 2.12983C21.4786 2.22211 21.5812 2.34389 21.6506 2.48468C21.72 2.62546 21.7542 2.78102 21.75 2.93793V13.0629Z" fill="black"/>
</svg>
