<svg width="16" height="16" viewBox="0 0 16 16" fill="none" xmlns="http://www.w3.org/2000/svg">
<path d="M7.65786 0.648682C5.33014 0.648682 3.43129 2.55402 3.43129 4.88173C3.43129 6.30465 4.1433 7.56536 5.22687 8.33223C2.69949 9.34492 0.906555 11.8161 0.906555 14.6994C0.910422 14.8737 0.982359 15.0395 1.10696 15.1613C1.23156 15.2832 1.39893 15.3515 1.57322 15.3515C1.74751 15.3515 1.91488 15.2832 2.03948 15.1613C2.16408 15.0395 2.23602 14.8737 2.23989 14.6994C2.23989 11.6394 4.70719 9.17338 7.76723 9.17338C8.8354 9.17338 9.82693 9.4779 10.6709 10.0002C10.7456 10.0466 10.8288 10.0778 10.9156 10.092C11.0024 10.1063 11.0911 10.1032 11.1768 10.0831C11.2624 10.063 11.3432 10.0262 11.4146 9.97478C11.486 9.92337 11.5465 9.85845 11.5928 9.78362C11.639 9.70878 11.67 9.62555 11.6841 9.53871C11.6981 9.45187 11.6948 9.36308 11.6745 9.2775C11.6542 9.19191 11.6172 9.11116 11.5656 9.03989C11.5141 8.96863 11.4489 8.90825 11.374 8.86219C10.9937 8.62685 10.5809 8.44261 10.1553 8.28409C11.2039 7.5133 11.8909 6.27625 11.8909 4.88173C11.8909 2.55402 9.98557 0.648682 7.65786 0.648682ZM7.65786 1.98327C9.26499 1.98327 10.5576 3.2746 10.5576 4.88173C10.5576 6.48886 9.26499 7.77497 7.65786 7.77497C6.05073 7.77497 4.76463 6.48886 4.76463 4.88173C4.76463 3.2746 6.05073 1.98327 7.65786 1.98327ZM14.4053 9.98462C14.2969 9.98774 14.1909 10.0172 14.0965 10.0705C14.0022 10.1238 13.9222 10.1994 13.8636 10.2906L11.5654 13.7346L10.124 12.7697C10.0509 12.7206 9.96884 12.6864 9.88249 12.669C9.79615 12.6517 9.70722 12.6515 9.62082 12.6686C9.53441 12.6856 9.45223 12.7196 9.37897 12.7685C9.30571 12.8174 9.24282 12.8803 9.19391 12.9535C9.14499 13.0268 9.11101 13.1089 9.09392 13.1953C9.07682 13.2817 9.07695 13.3707 9.09428 13.457C9.11162 13.5434 9.14582 13.6254 9.19494 13.6986C9.24406 13.7717 9.30712 13.8343 9.38051 13.883L11.3844 15.2164C11.4574 15.2648 11.5392 15.2984 11.6252 15.3152C11.7112 15.332 11.7997 15.3316 11.8855 15.3142C11.9714 15.2968 12.0529 15.2626 12.1256 15.2137C12.1982 15.1647 12.2605 15.102 12.3089 15.0289L14.9769 11.0276C15.0464 10.926 15.0865 10.807 15.0926 10.684C15.0987 10.5609 15.0706 10.4386 15.0113 10.3306C14.9521 10.2225 14.8642 10.133 14.7572 10.072C14.6502 10.0109 14.5284 9.98066 14.4053 9.98462Z" fill="white"/>
</svg>
